<svg width="300" height="148" viewBox="0 0 300 148" fill="none" xmlns="http://www.w3.org/2000/svg">
<rect x="1" y="1" width="98" height="98" rx="49" stroke="#00B32A" stroke-width="2"/>
<path fill-rule="evenodd" clip-rule="evenodd" d="M28.3693 25.1115C28.3693 25.1774 28.418 25.2852 28.4776 25.3509C28.5752 25.4588 28.5664 25.4911 28.388 25.6791C28.0348 26.0515 27.6314 26.5712 27.6676 26.6074C27.687 26.6268 27.9034 26.4002 28.1485 26.1039C28.3937 25.8076 28.6182 25.5651 28.6475 25.5651C28.6768 25.5651 28.7885 25.6566 28.8957 25.7685L29.0906 25.9719L28.6583 26.393C28.4205 26.6246 28.2259 26.8466 28.2259 26.8865C28.2259 26.9263 28.4437 26.7441 28.7097 26.4818L29.1935 26.0048L29.4195 26.1254L29.6455 26.246L29.3588 26.5677C29.0485 26.9157 28.8284 27.2852 28.9312 27.2852C28.9664 27.2852 29.0857 27.1485 29.1963 26.9814C29.3068 26.8144 29.4804 26.5921 29.5821 26.4874L29.7668 26.2971L30.2184 26.4575L30.6699 26.6178L30.2363 27.0963C29.9978 27.3594 29.8027 27.6128 29.8027 27.6593C29.8027 27.7313 30.2869 27.229 30.6581 26.7717C30.7597 26.6467 30.8056 26.6413 31.1465 26.7145C31.3534 26.759 31.5228 26.8171 31.5228 26.8437C31.5228 26.8703 31.3776 27.0689 31.2002 27.2852C31.0229 27.5014 30.8785 27.7108 30.8795 27.7505C30.8814 27.8246 31.2982 27.4031 31.5693 27.053C31.7193 26.8592 31.7269 26.8577 32.1417 26.9376C32.3728 26.9822 32.5892 27.0429 32.6224 27.0726C32.6556 27.1023 32.5347 27.2631 32.3536 27.43C32.1726 27.5969 32.0251 27.7858 32.0258 27.8497C32.0267 27.9216 32.1918 27.7967 32.4583 27.5227C32.8743 27.0948 32.8975 27.0819 33.1199 27.1527C33.2466 27.1931 33.3914 27.2387 33.4416 27.254C33.4982 27.2713 33.4255 27.3892 33.2499 27.5648C32.9443 27.8704 32.7667 28.1452 32.8747 28.1452C32.9117 28.1452 33.1039 27.9678 33.302 27.751C33.7008 27.3147 33.6708 27.3272 34.058 27.4348L34.3356 27.5118L34.0837 27.7748C33.9451 27.9194 33.8113 28.1183 33.7862 28.2169L33.7406 28.3961L33.8679 28.217C33.938 28.1184 34.095 27.9278 34.2168 27.7935L34.4381 27.5491L34.8088 27.6824L35.1794 27.8158L34.8786 28.1223C34.7131 28.2909 34.5958 28.447 34.618 28.4692C34.6401 28.4913 34.7999 28.3615 34.9732 28.1807L35.2882 27.852L35.6345 28.0051L35.9806 28.1583L35.7816 28.366C35.6721 28.4803 35.5987 28.5899 35.6184 28.6096C35.6381 28.6293 35.7466 28.549 35.8595 28.4312C36.0973 28.1829 36.1584 28.1741 36.5025 28.3382L36.7568 28.4595L36.4916 28.731C36.3458 28.8804 36.248 29.0241 36.2743 29.0504C36.3006 29.0767 36.4436 28.9627 36.5921 28.7971L36.8622 28.4958L38.3314 29.102C39.1395 29.4354 40.3005 29.9244 40.9115 30.1887C42.6798 30.9537 42.8492 31.0189 42.9329 30.9671C42.977 30.9398 42.992 30.9506 42.9669 30.9914C42.9252 31.0587 43.3565 31.2457 45.3983 32.0453C46.7349 32.5688 47.6658 33.244 47.8593 33.8303C47.9381 34.0691 47.9337 34.12 47.8236 34.2417C47.653 34.4302 47.4509 34.4191 47.4124 34.2192L47.3813 34.058L47.3716 34.2215C47.3662 34.3114 47.3153 34.4029 47.2584 34.4246C47.0357 34.5101 45.3533 34.0478 45.4683 33.9328C45.5387 33.8623 45.5608 33.2338 45.4929 33.2338C45.4592 33.2338 45.4107 33.392 45.385 33.5855C45.3384 33.9366 45.338 33.9371 45.1317 33.8652C45.0181 33.8256 44.925 33.7621 44.925 33.7242C44.925 33.6864 44.889 33.6776 44.8449 33.7049C44.7563 33.7597 44.786 33.3079 44.8878 33.0546C44.9412 32.9216 44.9365 32.9196 44.8222 33.0268C44.7545 33.0904 44.6816 33.2727 44.6602 33.4319L44.6214 33.7214L44.3252 33.6347L44.0292 33.548L44.0322 33.1764C44.0342 32.9303 44.0112 32.8289 43.964 32.8761C43.9248 32.9153 43.8912 33.0762 43.8893 33.2336C43.8855 33.5437 43.8529 33.5604 43.4211 33.4741L43.1893 33.4277L43.2376 33.0633C43.2957 32.6257 43.2238 32.6532 43.1456 33.0985C43.0939 33.3932 43.0772 33.4117 42.8789 33.3925C42.4875 33.3546 42.4717 33.3345 42.5148 32.9289C42.5423 32.6711 42.5353 32.6092 42.4928 32.7321C42.4588 32.8306 42.4277 32.9969 42.4238 33.1016C42.4168 33.2854 42.4079 33.2894 42.1667 33.2154C41.926 33.1415 41.9186 33.1287 41.9609 32.8637C42.0215 32.4846 41.9349 32.5175 41.8358 32.9113C41.7911 33.0886 41.747 33.2338 41.7379 33.2338C41.7288 33.2338 41.6198 33.1984 41.4958 33.1552C41.281 33.0803 41.2723 33.0626 41.3117 32.7789C41.3425 32.5571 41.3337 32.5087 41.2767 32.5887C41.2347 32.6479 41.1999 32.7661 41.1993 32.8516C41.1987 32.9369 41.1616 33.0191 41.1168 33.034C41.0589 33.0532 41.064 33.1071 41.1346 33.2199C41.1891 33.3073 41.274 33.3634 41.3232 33.3445C41.5802 33.2459 42.8217 33.9093 44.6025 35.097C45.115 35.4387 45.9374 35.9387 46.4301 36.2081C48.076 37.1078 48.6981 37.5795 49.149 38.2696C49.52 38.8374 49.6313 39.2877 49.4864 39.6345C49.3165 40.0413 48.8454 40.0788 48.074 39.7469C47.8358 39.6445 47.7255 39.5585 47.75 39.4945C47.7719 39.4377 47.7397 39.3974 47.6724 39.3974C47.5772 39.3974 47.565 39.3415 47.6015 39.0749C47.6258 38.8975 47.6179 38.7524 47.5838 38.7524C47.5119 38.7524 47.4358 39.0011 47.4345 39.2409C47.4336 39.3799 47.4072 39.399 47.2722 39.3576C47.0507 39.2897 46.9251 39.1796 46.9756 39.0978C46.9989 39.0602 46.9582 39.0397 46.8852 39.0522C46.769 39.0721 46.7526 39.0241 46.7526 38.6626C46.7526 38.1552 46.6756 38.1265 46.6093 38.609C46.5822 38.8061 46.5438 38.9674 46.524 38.9674C46.4418 38.9674 46.0718 38.7167 46.0718 38.661C46.0718 38.6278 46.0393 38.6206 45.9996 38.6451C45.8753 38.722 45.8327 38.4652 45.9121 38.1182C45.9541 37.935 45.9731 37.7698 45.9545 37.7511C45.8931 37.6897 45.79 37.9232 45.7438 38.2285L45.6984 38.5289L45.3427 38.336L44.9869 38.1432L45.0168 37.8052C45.0334 37.6193 45.0194 37.4841 44.9859 37.5048C44.9524 37.5255 44.9245 37.6131 44.924 37.6995C44.9217 38.0124 44.831 38.0504 44.5038 37.8756C44.2225 37.7251 44.2022 37.6946 44.2285 37.4623C44.244 37.3243 44.2837 37.1498 44.3164 37.0743C44.3582 36.9782 44.3515 36.9523 44.2942 36.9877C44.2491 37.0155 44.1748 37.1634 44.129 37.3164L44.0456 37.5944L43.7256 37.4389L43.4055 37.2833L43.4506 36.8533C43.4823 36.5522 43.4741 36.4553 43.4232 36.5306C43.3832 36.5897 43.35 36.708 43.3494 36.7935C43.3469 37.1506 43.2843 37.1891 42.9822 37.0193C42.6754 36.8469 42.6425 36.7164 42.7805 36.2193C42.9087 35.7577 42.7939 35.8407 42.6484 36.3149L42.5122 36.7585L42.2778 36.5241C42.0514 36.2977 42.0445 36.2733 42.0711 35.801C42.1063 35.1789 42.0141 35.1617 41.9481 35.7781C41.9206 36.0343 41.8827 36.2439 41.8639 36.2439C41.8449 36.2439 41.7349 36.1765 41.6193 36.0942C41.4045 35.9413 41.3904 35.8057 41.5346 35.2853C41.5575 35.2026 41.543 35.1688 41.4967 35.1974C41.4553 35.223 41.3999 35.388 41.3735 35.5641L41.3255 35.8842L41.1262 35.7665C40.9381 35.6554 40.9284 35.6247 40.9505 35.2118L40.9739 34.7747L40.8953 35.1868C40.8484 35.4327 40.7796 35.5989 40.725 35.5989C40.581 35.5989 40.5318 35.7376 40.6326 35.859C40.683 35.9199 41.0326 36.183 41.4092 36.4438C43.4399 37.8498 44.0525 38.3737 46.3662 40.6831C47.9275 42.2414 48.2353 42.5836 48.4268 42.9744C48.8492 43.8366 48.6805 44.4603 48.0045 44.5358C47.8284 44.5555 47.5714 44.5418 47.4335 44.5053C47.1855 44.4397 47.1828 44.435 47.2039 44.0862C47.2195 43.8269 47.2056 43.7619 47.1512 43.8409C47.1106 43.9001 47.0769 44.0371 47.0762 44.1455C47.075 44.3706 47.0734 44.3714 46.8277 44.2594C46.6566 44.1815 46.6446 44.1419 46.6367 43.6323C46.6303 43.2297 46.6139 43.1443 46.5734 43.3034C46.5433 43.4217 46.5149 43.6552 46.5102 43.8223L46.5018 44.1262L46.2114 43.9298L45.9209 43.7334L45.9524 43.2676L45.984 42.8017L45.89 43.0884C45.8383 43.2461 45.7936 43.4326 45.7906 43.503C45.7861 43.6052 45.7582 43.6166 45.6516 43.5595C45.4397 43.4461 45.3318 43.0957 45.3793 42.6753C45.4072 42.428 45.3998 42.3489 45.3576 42.4434C45.3223 42.5222 45.2912 42.7553 45.2884 42.9615L45.2834 43.3364L44.7279 42.974C43.8781 42.4196 43.8986 42.4476 43.9441 41.9058C43.9725 41.5661 43.9644 41.4873 43.9139 41.6146C43.8759 41.7107 43.8378 41.9121 43.8294 42.0622C43.821 42.2123 43.7922 42.3353 43.7655 42.3355C43.7387 42.3357 43.5129 42.2029 43.2638 42.0405C43.0146 41.878 42.7033 41.6765 42.5718 41.5926L42.3329 41.44L42.3701 40.9383C42.4096 40.4088 42.3734 40.4239 42.2441 40.991L42.1657 41.335L41.7823 41.0762L41.3989 40.8174L41.4449 40.4836C41.4777 40.2452 41.4698 40.1806 41.4173 40.2574C41.3768 40.3166 41.3433 40.4375 41.3426 40.5262C41.3412 40.7367 41.2454 40.7296 40.8591 40.4904L40.5409 40.2933L40.5775 39.8274C40.6157 39.3404 40.6225 39.3322 40.4199 40.0187L40.374 40.1742L40.0614 39.9888C39.7177 39.785 39.7284 39.8448 39.8723 38.9315C39.9024 38.7407 39.895 38.6808 39.8504 38.7524C39.8134 38.8115 39.7612 38.9889 39.7343 39.1465C39.6474 39.6567 39.6273 39.6922 39.4733 39.6098C39.3591 39.5488 39.3331 39.4509 39.3254 39.0545L39.3159 38.5732L39.2413 38.9674C39.2001 39.1842 39.1222 39.3945 39.068 39.4347C38.8788 39.5755 39.5082 40.3755 40.9035 41.7677C41.6371 42.4998 42.446 43.2738 42.701 43.4877C43.5734 44.2199 43.7432 44.3732 44.28 44.9134C45.3772 46.0175 45.8229 47.0904 45.3853 47.5739C45.1209 47.8661 44.3517 47.9295 44.2511 47.6675C44.2275 47.6062 44.2078 47.4378 44.2073 47.2931C44.2064 47.0972 44.1885 47.0576 44.1367 47.1377C44.0986 47.1969 44.0875 47.3553 44.1122 47.4897C44.1509 47.7009 44.1402 47.7278 44.0335 47.6868C43.9655 47.6608 43.8826 47.6394 43.8493 47.6394C43.8159 47.6394 43.7352 47.5862 43.6702 47.521C43.576 47.4269 43.5597 47.3132 43.5908 46.9656C43.6168 46.6748 43.6092 46.5885 43.5679 46.7077C43.5338 46.8063 43.5027 47.0079 43.4988 47.1557C43.4949 47.3035 43.4705 47.4244 43.4446 47.4244C43.4188 47.4244 43.2862 47.3393 43.1499 47.2354C42.9118 47.0539 42.9034 47.0315 42.934 46.6621C42.9695 46.2344 42.9195 46.2031 42.8531 46.6115C42.7554 47.2126 42.4439 46.8052 42.5157 46.1702C42.5632 45.7509 42.4511 45.8617 42.3755 46.3088L42.3274 46.5937L42.1212 46.3629C41.8874 46.1013 41.8719 45.9587 42.0232 45.46C42.146 45.0552 42.1527 44.9876 42.0702 44.9876C42.0374 44.9876 41.9509 45.2272 41.8781 45.5199L41.7455 46.052L41.5475 45.8961C41.3192 45.7163 41.2975 45.5323 41.4464 45.0414C41.5039 44.8518 41.5196 44.701 41.4817 44.701C41.4444 44.701 41.3604 44.8932 41.2951 45.128L41.1763 45.5552L40.9642 45.4041C40.7576 45.257 40.7533 45.2418 40.8004 44.8158C40.8269 44.5753 40.8648 44.2978 40.8846 44.1993C40.9143 44.0511 40.9073 44.0409 40.8439 44.1401C40.8016 44.2061 40.7466 44.4561 40.7216 44.6956C40.6966 44.935 40.6534 45.131 40.6258 45.131C40.598 45.131 40.5175 45.067 40.4467 44.9887C40.3439 44.8752 40.326 44.7702 40.3579 44.4691C40.38 44.2616 40.4216 44.0273 40.4503 43.9484C40.4889 43.8427 40.481 43.8249 40.4202 43.8805C40.3749 43.9219 40.2981 44.1235 40.2494 44.3284C40.2007 44.5333 40.1413 44.701 40.1173 44.701C40.0933 44.701 40.0149 44.636 39.9429 44.5565C39.825 44.4262 39.8204 44.3679 39.8962 43.9652C39.9424 43.7194 40.0014 43.4408 40.0272 43.346C40.0569 43.2365 40.0473 43.19 40.001 43.2187C39.9288 43.2633 39.7883 43.7075 39.7361 44.0559C39.7082 44.2426 39.5859 44.26 39.4227 44.1007C39.3532 44.0329 39.3474 43.9018 39.3984 43.55C39.4353 43.2962 39.4878 43.0319 39.5152 42.963C39.5432 42.8927 39.5329 42.8375 39.4917 42.8375C39.4133 42.8375 39.2631 43.437 39.2631 43.7503V43.9394L39.0481 43.7334C38.8691 43.5619 38.8331 43.4712 38.8331 43.1915C38.8331 43.0068 38.8815 42.7184 38.9406 42.5509C39.0767 42.1651 39.0758 42.1211 38.9359 42.3208C38.8742 42.4089 38.784 42.6758 38.7354 42.9139C38.6476 43.3445 38.6464 43.346 38.5123 43.1978C38.3801 43.0517 38.3806 43.0376 38.5433 42.475C38.752 41.7523 38.7005 41.6595 38.4765 42.3546C38.3844 42.64 38.2984 42.8865 38.2852 42.9026C38.272 42.9185 38.1839 42.8484 38.0895 42.7465C37.9387 42.5838 37.925 42.5238 37.9762 42.2515C38.0083 42.0811 38.0584 41.88 38.0877 41.8045C38.1216 41.7169 38.114 41.6839 38.0667 41.713C38.026 41.7382 37.9518 41.9048 37.9019 42.0831C37.8519 42.2615 37.8008 42.4075 37.7884 42.4075C37.7759 42.4075 37.562 42.2543 37.313 42.0671C37.064 41.8798 36.7398 41.6629 36.5925 41.585C36.2676 41.413 36.2552 41.2856 36.5037 40.674C36.6021 40.4316 36.6719 40.2225 36.6586 40.2092C36.5989 40.1495 36.2413 40.93 36.2299 41.1448L36.2171 41.3845L35.9578 41.2933C35.8152 41.2432 35.6217 41.1589 35.5278 41.1061C35.4339 41.0532 35.3471 41.0054 35.335 40.9998C35.3228 40.9942 35.3581 40.8813 35.4133 40.7489C35.5526 40.4152 35.6292 39.9708 35.5474 39.9708C35.5105 39.9708 35.4634 40.0755 35.4427 40.2037C35.4221 40.3318 35.3627 40.5563 35.3107 40.7026C35.2267 40.9392 35.1964 40.9629 35.0359 40.9176C34.9366 40.8896 34.6458 40.8684 34.3896 40.8706C33.2987 40.88 32.881 41.5342 33.3825 42.4477C33.4986 42.6594 33.7134 43.0192 33.8597 43.2472C34.6731 44.5146 35.2268 46.0708 35.1487 46.8698C35.0851 47.5199 34.8942 47.818 34.3865 48.0598L33.9567 48.2645L33.6295 47.7965L33.3023 47.3285L33.4151 47.0412C33.5611 46.6697 33.5077 46.6172 33.3321 46.9595L33.196 47.2248L32.9609 46.8584C32.698 46.4487 32.7012 46.3434 32.9946 45.7581C33.0885 45.5709 33.1325 45.4177 33.0925 45.4177C33.0526 45.4177 32.9387 45.595 32.8394 45.8118C32.7401 46.0286 32.6475 46.206 32.6336 46.206C32.6195 46.206 32.5403 46.0248 32.4575 45.8035L32.3069 45.4009L32.45 45.1584C32.6126 44.8828 32.5767 44.8376 32.3841 45.0755L32.2549 45.235L32.135 44.9501C31.9351 44.4748 31.9326 44.3295 32.1186 43.9652C32.217 43.7723 32.2479 43.6608 32.1896 43.7092C32.1328 43.7564 32.0295 43.9057 31.9601 44.0412L31.8337 44.2874L31.6503 43.9767L31.4668 43.6661L31.6391 43.2767C31.8585 42.7806 31.8116 42.7151 31.5757 43.1884L31.3973 43.5466L31.2334 43.3722C31.0118 43.1363 30.9875 42.8052 31.1658 42.4489L31.312 42.1567L31.1307 42.3578C31.0171 42.4838 30.9494 42.6438 30.9494 42.7862C30.9494 43.012 30.9452 43.0093 30.335 42.406C29.4597 41.5403 29.406 41.4563 29.5086 41.1139C29.5543 40.9613 29.7035 40.69 29.8401 40.5111C29.9766 40.3322 30.0602 40.1858 30.0257 40.1858C29.9417 40.1858 29.6323 40.5973 29.4423 40.9619L29.2885 41.257L29.1184 41.0548C28.9673 40.8752 28.9565 40.8223 29.0226 40.5833C29.1076 40.2753 29.3024 39.9099 29.5659 39.5645C29.6661 39.4332 29.72 39.3271 29.6858 39.3288C29.5736 39.3343 29.0717 40.0434 28.9465 40.3733L28.824 40.696L28.6345 40.4097C28.4539 40.1368 28.4496 40.1088 28.5422 39.8141C28.5955 39.644 28.7102 39.349 28.7969 39.1585C28.8837 38.968 28.9391 38.7966 28.9201 38.7776C28.8732 38.7307 28.3697 39.7454 28.3677 39.8908C28.3665 39.9765 28.3297 39.96 28.2259 39.8274C28.1488 39.7289 28.085 39.6082 28.0842 39.5593C28.0823 39.4529 28.6184 38.0295 28.7729 37.7308C28.8326 37.6152 28.8651 37.5042 28.845 37.4841C28.7901 37.4292 28.2623 38.5135 28.1141 38.9853C28.043 39.212 27.9664 39.3974 27.944 39.3974C27.9216 39.3974 27.5374 38.8119 27.0902 38.0964L26.277 36.7954L26.5815 35.8926C26.749 35.396 26.9314 34.8988 26.9869 34.7877C27.0425 34.6766 27.0766 34.5519 27.0628 34.5105C27.0313 34.4158 26.561 35.4707 26.3384 36.1355L26.1707 36.6362L25.9853 36.3425L25.7998 36.0487L25.9671 35.4834C26.2856 34.4061 26.4422 33.7912 26.407 33.756C26.3875 33.7366 26.2377 34.1513 26.074 34.6777C25.9103 35.2041 25.7616 35.6816 25.7436 35.7389C25.7207 35.8115 25.6288 35.748 25.4406 35.5295C25.0347 35.0582 24.8441 35.2713 25.1532 35.8508C25.5478 36.5907 27.9434 40.2511 28.6303 41.1637C28.855 41.4623 29.4233 42.1116 29.8933 42.6066C31.204 43.9873 31.3735 44.2487 31.9849 45.8318C32.1718 46.3158 32.4538 46.905 32.6114 47.141C33.0258 47.7617 33.9375 48.7105 34.0909 48.6809C34.1598 48.6677 34.431 48.5554 34.6935 48.4313C35.1235 48.2281 35.1894 48.1678 35.3585 47.822C35.6289 47.2694 35.6709 46.5581 35.4782 45.7959C35.23 44.8144 34.911 44.1409 33.9579 42.5867C33.5982 42 33.5426 41.7909 33.6786 41.5367C33.7817 41.3442 34.17 41.1891 34.5485 41.1892C35.0673 41.1892 36.103 41.646 36.8622 42.2096C37.2889 42.5264 37.5118 42.7376 38.5464 43.8054C39.1521 44.4306 39.668 44.891 40.5464 45.5901C40.8777 45.8538 41.4361 46.334 41.7873 46.6574C42.9703 47.7465 43.876 48.2233 44.7778 48.2319C45.4342 48.238 45.8451 47.9063 45.9635 47.2746C46.0175 46.9867 45.9055 46.4779 45.7283 46.206C45.664 46.1075 45.6061 45.994 45.5996 45.9539C45.5749 45.8033 45.1283 45.2064 44.7607 44.833C44.1318 44.194 42.1859 42.4852 42.1046 42.5007C42.063 42.5086 42.0274 42.4758 42.0256 42.428C42.0238 42.3801 41.6999 42.0252 41.3057 41.6394C40.1508 40.5091 40.1429 40.4604 41.234 41.2005C41.7859 41.5747 42.8341 42.2628 43.5633 42.7293C44.2925 43.196 45.1571 43.7512 45.4846 43.9633C46.9951 44.9415 47.8597 45.1811 48.5643 44.8167C48.8416 44.6733 49.0819 44.2126 49.0819 43.8244C49.0819 43.4083 48.8555 42.7594 48.5793 42.3837C48.348 42.069 46.7533 40.4397 45.3411 39.075L44.503 38.2651L45.6492 38.9042C46.2797 39.2558 47.1406 39.7121 47.5624 39.9182C48.2882 40.273 48.3595 40.2931 48.8905 40.2932C49.4337 40.2933 49.4584 40.2858 49.661 40.0592C49.8489 39.849 49.8703 39.7753 49.8703 39.336C49.8703 38.6673 49.5902 38.1114 48.9078 37.426C48.3559 36.8717 47.8389 36.5148 46.5734 35.8148C45.6586 35.3087 43.544 33.9459 43.5948 33.8951C43.6536 33.8363 44.374 34.0371 45.2365 34.3525C46.4719 34.8044 47.0769 34.9217 47.6058 34.8119C48.135 34.7021 48.3652 34.4803 48.3652 34.0805C48.3652 33.6831 48.153 33.3182 47.6524 32.8548C47.0105 32.2604 46.5495 32.0228 44.3606 31.158C43.4367 30.7931 43.2399 30.7374 43.1422 30.8136C43.0421 30.8917 43.0378 30.889 43.1116 30.7941C43.1853 30.6995 43.0989 30.6415 42.5024 30.3855C42.1202 30.2216 41.3559 29.8905 40.804 29.6498C40.2522 29.4091 39.3975 29.0502 38.9048 28.8522C38.412 28.6542 37.8315 28.4156 37.6147 28.3219C36.5378 27.8564 35.5945 27.4679 35.1421 27.3037C34.6542 27.1265 33.3171 26.7391 32.9562 26.6704C31.953 26.4795 30.6882 26.1881 30.3409 26.0679C29.9107 25.919 29.1942 25.522 28.7316 25.1763C28.4432 24.9606 28.3693 24.9474 28.3693 25.1115ZM46.2634 33.3592C46.2459 33.3888 46.2089 33.5501 46.1812 33.7176C46.1429 33.9493 46.1537 34.0221 46.2267 34.0221C46.2926 34.022 46.326 33.9097 46.3334 33.6637C46.344 33.315 46.3288 33.2488 46.2634 33.3592ZM46.9499 33.9863C46.9506 34.144 46.9653 34.2 46.9825 34.1109C46.9996 34.0217 46.9989 33.8927 46.981 33.8242C46.9631 33.7557 46.9491 33.8286 46.9499 33.9863ZM27.3977 35.8501C27.1119 36.3378 26.9355 36.8557 26.9397 37.1943C26.9433 37.4785 26.9547 37.4605 27.1156 36.9162C27.2103 36.5961 27.3681 36.1526 27.4662 35.9307C27.5644 35.7088 27.6317 35.5272 27.6158 35.5272C27.6 35.5272 27.5018 35.6725 27.3977 35.8501ZM28.1085 36.5741C28.0815 36.6487 27.9194 37.0284 27.7485 37.4178C27.4105 38.1875 27.3405 38.4792 27.6174 37.964C27.8534 37.5249 28.2427 36.5235 28.1958 36.4766C28.1748 36.4556 28.1355 36.4995 28.1085 36.5741ZM48.2666 39.1913C48.2008 39.5205 48.212 39.7557 48.2935 39.7557C48.3329 39.7557 48.3652 39.5784 48.3652 39.3616C48.3652 38.9173 48.3326 38.8612 48.2666 39.1913ZM35.9216 40.4357C35.8226 40.652 35.7519 40.9097 35.7643 41.0083C35.7806 41.1363 35.8405 41.0239 35.9738 40.615C36.0765 40.3001 36.1473 40.0424 36.1311 40.0424C36.1149 40.0424 36.0207 40.2194 35.9216 40.4357ZM37.0869 40.9227C36.9545 41.2695 36.9346 41.5891 37.0413 41.655C37.0838 41.6812 37.113 41.599 37.113 41.4532C37.113 41.3179 37.16 41.0741 37.2174 40.9115C37.3558 40.519 37.2372 40.5292 37.0869 40.9227ZM30.2394 41.109C29.9527 41.471 29.8257 41.8142 29.9371 41.9256C29.9968 41.9852 30.0177 41.948 30.0177 41.7823C30.0177 41.6361 30.1063 41.4424 30.2734 41.2234C30.5858 40.8142 30.555 40.7105 30.2394 41.109ZM43.1807 41.0996C43.0971 41.2367 43.1024 41.9059 43.187 41.9058C43.2166 41.9057 43.2419 41.7122 43.2433 41.4757C43.2459 41.0406 43.2396 41.0029 43.1807 41.0996ZM37.5752 41.5094C37.4534 41.8009 37.4438 41.952 37.543 42.0133C37.5847 42.0391 37.6147 41.9678 37.6147 41.8431C37.6147 41.725 37.6462 41.5458 37.6846 41.4446C37.79 41.1674 37.6945 41.224 37.5752 41.5094ZM30.8287 41.7087C30.5683 41.984 30.4547 42.1939 30.4994 42.3184C30.5439 42.4427 30.6627 42.3559 30.6627 42.199C30.6627 42.1284 30.7597 41.9369 30.8782 41.7733C31.1375 41.4153 31.1236 41.3972 30.8287 41.7087ZM44.6384 42.3359C44.6384 42.7508 44.6584 42.8375 44.7546 42.8375C44.8499 42.8375 44.8548 42.8181 44.7816 42.7299C44.7241 42.6606 44.7039 42.4821 44.725 42.2282C44.7429 42.0115 44.7308 41.8342 44.698 41.8342C44.6652 41.8342 44.6384 42.0599 44.6384 42.3359ZM43.2858 43.6797C43.3749 43.7933 43.3724 43.7958 43.2587 43.7068C43.1393 43.6131 43.1014 43.5542 43.1604 43.5542C43.1752 43.5542 43.2317 43.6107 43.2858 43.6797ZM58.2472 44.7283C57.4066 45.0286 56.7352 45.8187 56.4517 46.8407C56.023 48.3869 56.6071 50.0908 58.7828 53.6406C59.0059 54.0045 59.2556 54.4721 59.3376 54.6798C59.613 55.3768 59.6706 56.2314 59.4361 56.1414C59.3439 56.1061 58.4854 56.0246 56.6789 55.8799C56.1467 55.8373 55.6307 55.7826 55.5322 55.7583C55.3647 55.7172 55.36 55.7233 55.4593 55.8517C55.5621 55.9845 55.5607 55.9849 55.4176 55.8633C55.3362 55.7942 55.0787 55.7032 54.8454 55.6611C52.9063 55.3109 49.3982 54.0029 47.5686 52.9481C47.2899 52.7874 47.0246 52.6774 46.9789 52.7035C46.9333 52.7296 46.919 52.7254 46.9473 52.6942C46.9924 52.6442 46.5899 52.3677 45.2475 51.5262C43.8868 50.6732 41.7279 49.5919 40.6965 49.2466C40.2334 49.0916 39.9485 49.0421 39.5084 49.0399C38.9863 49.0373 38.8949 49.0584 38.5785 49.2539C37.8466 49.7064 37.5788 50.5754 37.9036 51.444C38.0293 51.7799 38.1812 51.9985 38.5405 52.3603C39.3128 53.1382 40.1995 53.67 43.2408 55.18C44.2263 55.6693 45.3067 56.225 45.6417 56.415C46.6687 56.9972 48.7069 58.3683 48.7977 58.538C48.8678 58.6689 48.8656 58.6919 48.7856 58.663C48.7318 58.6436 48.1394 58.4257 47.4693 58.1788C46.7992 57.932 46.0897 57.671 45.8926 57.5988C45.5512 57.4738 45.109 57.3377 43.6809 56.9185C43.3317 56.816 42.9995 56.75 42.9426 56.7718C42.8857 56.7937 42.8556 56.7849 42.8757 56.7524C42.8958 56.7199 42.5932 56.5925 42.2032 56.4693C41.8133 56.3461 40.8229 55.9734 40.0024 55.641C38.2016 54.9115 37.54 54.6981 36.7264 54.5843C35.296 54.3842 34.0881 54.8529 33.7123 55.7538C33.3645 56.5877 33.9051 57.6301 35.0581 58.3487C35.7542 58.7825 36.3578 59.023 38.2239 59.6096C39.729 60.0828 41.0706 60.5386 43.5991 61.4359C44.2298 61.6597 44.8749 61.8855 45.0325 61.9377C46.1195 62.2974 47.9739 63.1691 48.1994 63.4262C48.3257 63.5703 48.3253 63.5729 48.186 63.5216C47.9059 63.4181 47.1382 63.2594 45.9146 63.0518C44.0053 62.7279 40.5126 61.8859 38.1522 61.1805C37.2288 60.9045 37.0803 60.8801 36.2888 60.8738C35.5467 60.8678 35.3714 60.8898 35.0108 61.0333C34.255 61.3343 33.8879 61.7755 33.8879 62.383C33.8879 62.9765 34.3516 63.6378 35.024 64.0029C35.4475 64.233 36.5473 64.5597 37.7307 64.807C38.2384 64.9132 39.2828 65.1604 40.0515 65.3566C40.8201 65.5527 42.2876 65.9036 43.3125 66.1364C44.3373 66.3692 45.6758 66.6887 46.2868 66.8464C46.8977 67.0041 47.4683 67.1332 47.5547 67.1334C47.8485 67.1339 47.7903 67.2588 47.4501 67.3576C47.2261 67.4227 46.7582 67.4541 46.0718 67.4501C45.1602 67.4448 44.8433 67.4072 43.4916 67.1442C41.1081 66.6803 40.1641 66.6733 39.0695 67.1115C38.5696 67.3116 37.9601 67.7501 37.8213 68.0094C37.2998 68.9839 38.033 69.8686 39.8026 70.3999C40.4161 70.5841 40.546 70.5954 42.6316 70.6466C45.0579 70.7061 45.3948 70.753 47.2543 71.2907C50.4083 72.2027 53.3584 73.0064 53.4396 72.9758C53.4909 72.9564 53.5132 72.9724 53.4891 73.0114C53.465 73.0504 53.4875 73.082 53.5391 73.0818C53.5907 73.0816 54.3102 73.304 55.138 73.5761C57.9793 74.51 58.864 74.7345 60.4144 74.9148C61.5868 75.0513 62.9413 75.0225 64.058 74.8375C65.5901 74.5837 67.6119 73.9803 67.9471 73.677C68.1234 73.5174 68.0397 73.44 67.7736 73.5164C67.6486 73.5522 67.5364 73.5715 67.5242 73.5594C67.5013 73.5365 67.8002 72.4984 67.8937 72.276C67.9236 72.2049 67.9153 72.1505 67.8747 72.1505C67.7829 72.1505 67.4461 72.9882 67.3855 73.3674C67.3413 73.6436 67.3221 73.6618 66.9722 73.7607C66.2208 73.9732 65.1754 74.2207 65.1474 74.1927C65.0737 74.119 65.3337 73.107 65.6485 72.2425C65.99 71.3044 66.0591 71.0489 65.9342 71.1866C65.8654 71.2624 65.2724 72.7424 65.1317 73.1892C65.0822 73.3466 65.0226 73.6517 64.9992 73.8672L64.9568 74.2592L64.5268 74.3484C63.7964 74.5 63.8295 74.5466 64.0604 73.6934C64.1721 73.2806 64.3307 72.7483 64.413 72.5105C64.5862 72.0101 64.6094 71.7092 64.4463 72.0789C64.1665 72.7132 63.8407 73.7109 63.7998 74.0585C63.7494 74.4868 63.7836 74.4686 62.8963 74.5426C62.4988 74.5757 62.4842 74.5708 62.4842 74.4038C62.4842 74.1911 62.8406 73.0654 63.1307 72.3618C63.2488 72.0755 63.3317 71.8274 63.3148 71.8105C63.2699 71.7657 63.1751 71.962 62.8178 72.84C62.5245 73.5605 62.4383 73.8242 62.3108 74.3902C62.2675 74.5824 62.2538 74.5873 61.7613 74.5873C61.3134 74.5873 61.2604 74.5731 61.2942 74.4619C61.3151 74.3929 61.3643 74.1913 61.4035 74.014C61.4428 73.8366 61.6063 73.3243 61.7668 72.8755C61.9274 72.4268 62.0423 72.0432 62.0222 72.0231C62.0023 72.0031 61.9643 72.0478 61.9381 72.1224C61.9119 72.197 61.7791 72.5483 61.6432 72.9031C61.325 73.7333 61.1958 74.1526 61.1949 74.3577C61.1941 74.5151 61.173 74.5213 60.7103 74.501L60.2266 74.4798L60.246 74.2376C60.2567 74.1043 60.3963 73.6605 60.5563 73.2513C60.7163 72.8422 60.8349 72.4705 60.8199 72.4255C60.7915 72.3403 60.2698 73.6067 60.1139 74.1394C60.0648 74.3069 59.9895 74.4437 59.9465 74.4434C59.8209 74.4425 58.7555 74.1793 58.7155 74.1393C58.6954 74.1193 58.811 73.7081 58.9723 73.2256C59.1337 72.743 59.2527 72.3354 59.237 72.3196C59.1863 72.2689 58.614 73.7239 58.614 73.9036C58.614 73.9991 58.5898 74.0913 58.5602 74.1086C58.5069 74.1397 57.4165 73.8437 57.3539 73.7812C57.3173 73.7445 57.5203 73.0966 57.747 72.5268C57.8293 72.3198 57.8812 72.1505 57.8622 72.1505C57.803 72.1505 57.4137 72.9642 57.2859 73.355C57.2189 73.5597 57.1436 73.7268 57.1186 73.7262C57.0271 73.7241 56.2525 73.468 56.2105 73.426C56.1644 73.38 56.408 72.5323 56.536 72.293C56.578 72.2147 56.5853 72.1505 56.5523 72.1505C56.4536 72.1505 56.1757 72.7864 56.1306 73.1154L56.0886 73.4221L55.6312 73.2734C55.0756 73.0927 55.0627 73.028 55.4513 72.3697C55.7326 71.8935 55.8849 71.5275 55.7728 71.5977C55.7265 71.6266 55 72.9894 54.9934 73.0596C54.9927 73.0668 54.7915 73.0025 54.5462 72.9165C54.0336 72.7369 54.0373 72.768 54.4329 71.9813C54.5689 71.7109 54.6656 71.4751 54.6478 71.4573C54.609 71.4184 54.0271 72.4581 54.0271 72.5662C54.0271 72.6077 53.9271 72.6916 53.8049 72.7526C53.6294 72.8401 53.6002 72.8423 53.6662 72.7628C53.7351 72.6798 53.6732 72.6408 53.3131 72.5397C53.073 72.4723 52.8629 72.3951 52.8462 72.3682C52.8296 72.3413 52.9262 72.1361 53.061 71.9124C53.1958 71.6886 53.2768 71.5055 53.241 71.5055C53.2051 71.5055 53.0588 71.6951 52.9159 71.9267L52.6559 72.3479L52.3677 72.2747C52.2093 72.2345 52.0626 72.1572 52.0418 72.103C52.0209 72.0487 52.1351 71.7308 52.2955 71.3966C52.4559 71.0623 52.5617 70.7888 52.5306 70.7888C52.4995 70.7888 52.3362 71.0791 52.1676 71.4338C51.999 71.7886 51.8349 72.0789 51.8028 72.0789C51.6005 72.0789 50.9961 71.8929 50.969 71.8223C50.951 71.7755 51.0692 71.4673 51.2316 71.1376C51.3939 70.8078 51.48 70.5863 51.4231 70.6455C51.366 70.7046 51.1999 70.9868 51.0538 71.2726C50.9077 71.5583 50.751 71.7921 50.7055 71.7921C50.66 71.792 50.1229 71.6453 49.5119 71.4659C48.5515 71.184 47.2977 70.817 47.129 70.7685C47.072 70.752 47.4055 70.0503 47.6557 69.66C47.7379 69.5319 47.7774 69.4271 47.7437 69.4271C47.6459 69.4271 47.0035 70.4398 47.0035 70.594C47.0035 70.7039 46.9689 70.7247 46.8422 70.6913C46.7535 70.6678 46.5117 70.6105 46.3047 70.564C46.0977 70.5174 45.9285 70.4442 45.9286 70.4011C45.9287 70.3581 46.0341 70.1456 46.1629 69.9288C46.3976 69.5337 46.5898 69.1404 46.5481 69.1404C46.5197 69.1404 46.1413 69.7322 45.9224 70.1191L45.7539 70.4169L45.3573 70.3787C45.1393 70.3578 44.9336 70.3159 44.9004 70.2856C44.8326 70.224 45.0181 69.7945 45.3564 69.23C45.4804 69.023 45.555 68.8544 45.5223 68.8551C45.444 68.8569 44.9711 69.6739 44.8479 70.0201L44.7517 70.2906L43.8941 70.2524C43.4223 70.2313 43.0239 70.2016 43.0086 70.1864C42.9935 70.1712 43.1649 69.8931 43.3898 69.5685C43.8557 68.8959 43.8146 68.8311 43.3135 69.4486C43.0119 69.8203 42.9426 69.949 42.9238 70.173C42.9181 70.2404 40.6354 70.1782 40.5659 70.1087C40.5085 70.0514 40.8272 69.507 41.1384 69.1304C41.2896 68.9476 41.4132 68.7569 41.4132 68.7067C41.4132 68.5888 40.5062 69.738 40.4437 69.9351C40.4092 70.0437 40.3544 70.0742 40.2418 70.0472C40.1568 70.0269 39.9693 69.9888 39.825 69.9627L39.5628 69.9152L39.6698 69.6589C39.7287 69.518 39.9013 69.2395 40.0533 69.0402C40.2052 68.841 40.3147 68.663 40.2965 68.6449C40.2414 68.5898 39.8547 69.0817 39.6467 69.4717C39.4605 69.8207 39.4419 69.8347 39.2674 69.758C38.7849 69.5457 38.7891 69.5609 39.0847 69.0968C39.2327 68.8645 39.4501 68.5521 39.5679 68.4025C39.6857 68.2528 39.7649 68.1133 39.744 68.0923C39.7085 68.0568 39.444 68.394 38.9369 69.121C38.8207 69.2876 38.7049 69.4247 38.6798 69.4256C38.6546 69.4264 38.5619 69.3687 38.4737 69.2974L38.3135 69.1676L38.6148 68.6344C38.7804 68.3411 38.9836 68.0286 39.0662 67.9399C39.1488 67.8513 39.1829 67.7787 39.142 67.7787C39.0579 67.7787 38.8076 68.1322 38.4891 68.7009C38.2903 69.0559 38.2677 69.0742 38.1951 68.9385C37.925 68.4339 38.374 67.8798 39.4079 67.442C39.8477 67.2558 39.9311 67.2455 40.9832 67.2466C41.9618 67.2477 42.2648 67.2799 43.5275 67.5169C45.8458 67.9523 46.9613 67.9374 48.048 67.4569L48.4369 67.2849V67.4601C48.4369 67.5565 48.4691 67.6353 48.5085 67.6353C48.5479 67.6353 48.5802 67.5209 48.5802 67.3809C48.5802 67.241 48.6245 67.0395 48.6786 66.933C48.8277 66.64 48.8844 66.4169 48.8098 66.4169C48.7731 66.4169 48.6877 66.5619 48.62 66.7389C48.5201 67.0005 48.4746 67.0493 48.3774 66.9993C48.3116 66.9653 48.0884 66.8979 47.8814 66.8493C47.6744 66.8007 47.5051 66.752 47.5051 66.741C47.5051 66.7299 47.5884 66.5393 47.69 66.3172C47.7917 66.0951 47.8634 65.879 47.8493 65.8369C47.8353 65.7947 47.7289 65.9644 47.6129 66.214C47.4969 66.4636 47.3961 66.6781 47.3889 66.6907C47.3817 66.7033 47.2404 66.673 47.0749 66.6234C46.7884 66.5376 46.7758 66.5222 46.812 66.3001C46.8425 66.1115 46.9973 65.7251 47.2028 65.324C47.218 65.2944 47.2006 65.2702 47.1641 65.2702C47.0642 65.2702 46.7357 65.9141 46.6786 66.222C46.6405 66.4274 46.6 66.4845 46.5113 66.4578C45.8045 66.2457 45.0659 66.0496 44.5824 65.9458C44.029 65.8268 43.9934 65.808 43.9946 65.6343C43.9953 65.5326 44.0893 65.2801 44.2034 65.0731C44.3175 64.8662 44.3844 64.6969 44.3522 64.6969C44.2637 64.6969 43.9254 65.3053 43.8757 65.5538C43.8276 65.7945 43.7927 65.805 43.402 65.6965C43.075 65.6056 43.0542 65.4508 43.3027 64.9598C43.3959 64.7758 43.4448 64.6252 43.4114 64.6252C43.3353 64.6252 42.9899 65.2985 42.9899 65.447C42.9899 65.5912 42.894 65.5863 42.0896 65.4015C41.6817 65.3078 41.4132 65.2108 41.4132 65.1571C41.4132 65.1081 41.4773 64.8636 41.5556 64.6137C41.634 64.3638 41.6971 64.1271 41.6959 64.0877C41.6914 63.9349 41.3415 64.8745 41.3415 65.0392C41.3415 65.1612 41.3106 65.202 41.2391 65.1746C41.1828 65.153 41.0215 65.1137 40.8808 65.0873C40.5967 65.034 40.5957 65.0326 40.696 64.8571C40.7351 64.7887 40.8114 64.6037 40.8655 64.446C40.9196 64.2884 40.9904 64.0948 41.0228 64.016C41.0735 63.8925 41.0662 63.8853 40.9699 63.9634C40.9085 64.0133 40.7882 64.2461 40.7027 64.4806C40.6172 64.7152 40.5244 64.9206 40.4964 64.9372C40.4685 64.9537 40.2683 64.9126 40.0515 64.8458C39.5919 64.7043 39.586 64.6699 39.9115 64.0226C40.0286 63.7897 40.1134 63.5882 40.1 63.5747C40.0517 63.5264 39.5196 64.4193 39.4457 64.6727C39.4438 64.6792 39.2488 64.6447 39.0123 64.5962C38.6197 64.5157 38.5838 64.4928 38.6007 64.3337C38.6109 64.2378 38.7173 63.9705 38.8371 63.7396C38.9569 63.5088 39.0439 63.2865 39.0303 63.2458C39.0166 63.205 38.8586 63.4591 38.6789 63.8105L38.3524 64.4495L37.8996 64.3579C37.6505 64.3074 37.4304 64.2498 37.4104 64.2297C37.3678 64.1872 37.678 63.26 37.7684 63.1595C37.8479 63.0713 37.8479 62.9571 37.7684 63.0062C37.7347 63.027 37.6186 63.2871 37.5102 63.5841C37.4018 63.8812 37.2839 64.1424 37.2479 64.1646C37.1728 64.211 36.3963 64.0622 36.3963 64.0013C36.3963 63.9791 36.5412 63.6551 36.7182 63.2815C36.8952 62.9077 36.9961 62.6384 36.9424 62.683C36.8886 62.7276 36.7383 63.0136 36.6082 63.3184C36.4782 63.6233 36.3489 63.8993 36.3211 63.9319C36.2563 64.008 35.6747 63.8358 35.6335 63.7283C35.6163 63.6835 35.7481 63.3752 35.9264 63.0431C36.1047 62.711 36.2504 62.407 36.2503 62.3676C36.2497 62.2644 35.5397 63.4966 35.5379 63.6039C35.5357 63.7269 35.4176 63.7161 35.1711 63.5706C34.9262 63.4259 34.9302 63.4021 35.3352 62.5931C35.4902 62.2835 35.6021 62.0153 35.5838 61.997C35.5655 61.9787 35.3949 62.2711 35.2046 62.6467L34.8586 63.3295L34.706 63.1861C34.6194 63.1048 34.561 62.9718 34.5712 62.8792C34.5923 62.6867 34.9278 62.0036 35.0332 61.9384C35.0734 61.9136 35.1063 61.861 35.1063 61.8216C35.1063 61.6725 34.9573 61.8526 34.7 62.3128C34.4441 62.7704 34.4314 62.7816 34.3813 62.5942C34.3246 62.382 34.4032 62.0221 34.5433 61.8534C34.7017 61.6624 35.2918 61.4094 35.7746 61.3253C36.3885 61.2184 36.9267 61.3063 38.4389 61.7605C40.433 62.3594 43.73 63.15 45.7755 63.52C46.5451 63.6592 47.3964 63.8196 47.6672 63.8766C47.938 63.9336 48.3061 63.9802 48.4852 63.9802C48.7883 63.9802 48.8079 63.9689 48.7697 63.8167C48.7243 63.6355 48.9589 63.0756 49.3107 62.5261C49.4315 62.3374 49.5119 62.1646 49.4894 62.1421C49.4465 62.0992 49.05 62.6893 48.8322 63.1201C48.7624 63.2581 48.6976 63.3801 48.6881 63.3913C48.6787 63.4024 48.5618 63.3032 48.4285 63.1708C48.2951 63.0384 48.1273 62.8977 48.0556 62.8582C47.9342 62.7913 47.943 62.7562 48.1818 62.3487C48.3228 62.108 48.5214 61.8122 48.6231 61.6914C48.7248 61.5706 48.7731 61.4717 48.7303 61.4717C48.6318 61.4717 48.261 61.9781 48.0343 62.4223C47.8618 62.7603 47.8582 62.7627 47.6647 62.6607C47.2048 62.4183 47.1936 62.3973 47.3334 62.0421C47.4026 61.8663 47.5371 61.6188 47.6323 61.4919C47.7275 61.3651 47.7938 61.2269 47.7798 61.1848C47.7437 61.0766 47.2161 61.8964 47.1684 62.1347C47.1211 62.3708 47.112 62.3719 46.7612 62.1838C46.5066 62.0474 44.8185 61.3948 44.1875 61.189L43.9157 61.1003L44.2416 60.4977C44.4208 60.1662 44.5372 59.895 44.5004 59.895C44.4636 59.895 44.297 60.1449 44.1303 60.4504C43.9636 60.756 43.8218 61.0137 43.8152 61.0233C43.8086 61.0329 43.603 60.9731 43.3583 60.8905C42.8383 60.7149 42.8374 60.7031 43.2839 59.9804C43.5842 59.4946 43.5966 59.465 43.4999 59.465C43.4116 59.465 42.8466 60.4139 42.8466 60.5622C42.8466 60.7129 42.8632 60.7138 42.3061 60.5338C42.0516 60.4516 41.8435 60.3467 41.8439 60.3009C41.8449 60.1797 42.1761 59.487 42.3494 59.2436C42.4311 59.1288 42.4645 59.0349 42.4235 59.0349C42.32 59.0349 41.7891 59.867 41.7347 60.1144L41.6902 60.3173L41.2471 60.1572C40.7115 59.9637 40.7043 59.9044 41.1338 59.2194C41.298 58.9576 41.4151 58.7263 41.3941 58.7053C41.3539 58.665 40.7682 59.4493 40.7682 59.5437C40.7682 59.574 40.7374 59.68 40.6997 59.7792L40.6311 59.9594L40.198 59.8131C39.9096 59.7157 39.7648 59.6284 39.7648 59.5521C39.7648 59.489 39.8967 59.2154 40.0579 58.9441C40.2192 58.6727 40.3339 58.4334 40.3129 58.4124C40.2668 58.3663 39.8267 59.0527 39.701 59.3668L39.6111 59.5912L39.2816 59.492C39.1003 59.4374 38.9403 59.381 38.9259 59.3666C38.8871 59.3278 39.1737 58.5879 39.3725 58.2141C39.4678 58.0349 39.5197 57.8882 39.4879 57.8882C39.4102 57.8882 38.8331 59.0435 38.8331 59.199C38.8331 59.2664 38.8116 59.3216 38.7854 59.3216C38.7591 59.3216 38.2693 59.1735 37.697 58.9924C36.5483 58.6288 35.8946 58.3624 35.8946 58.2577C35.8946 58.22 36.0236 57.9087 36.1813 57.5657C36.5015 56.8694 36.5131 56.8298 36.3605 56.9565C36.3014 57.0056 36.253 57.0695 36.253 57.0986C36.253 57.1276 36.1386 57.3989 35.9987 57.7016L35.7445 58.252L35.4516 58.088C35.0234 57.8483 34.5329 57.395 34.5329 57.2388C34.5329 57.1644 34.678 56.8259 34.8554 56.4868C35.0328 56.1477 35.1773 55.8486 35.1764 55.8221C35.1734 55.7254 34.5742 56.7128 34.4921 56.9498L34.4075 57.1939L34.2824 57.003C34.1593 56.815 34.1621 56.8019 34.4542 56.1931C34.6175 55.8527 34.7424 55.566 34.7316 55.5562C34.7209 55.5462 34.5831 55.7605 34.4254 56.0323L34.1387 56.5266L34.1159 56.2665C34.0825 55.8843 34.2214 55.6247 34.5905 55.3802C35.0297 55.0893 35.382 55.0019 36.1102 55.0029C37.0236 55.0043 37.8741 55.2521 39.9798 56.1307C41.2945 56.6792 42.3916 57.0514 42.5622 57.0068C42.6399 56.9865 42.6869 56.9968 42.6665 57.0297C42.6461 57.0626 42.6864 57.1062 42.7559 57.1265C44.48 57.6311 45.5196 57.9633 46.1995 58.2272C48.2884 59.0377 49.2127 59.3008 49.3262 59.1172C49.3913 59.0118 49.0939 58.3028 48.8995 58.0999C48.6925 57.8839 47.6202 57.1375 46.5572 56.4696C45.8345 56.0156 44.4861 55.2683 44.4233 55.2872C44.4036 55.2931 44.3391 55.2545 44.28 55.2015C44.2209 55.1485 43.598 54.8296 42.8958 54.4927C40.9238 53.5467 39.4278 52.6588 38.8439 52.0876C38.4022 51.6555 38.1579 51.0944 38.2121 50.6365C38.294 49.9451 38.6778 49.588 39.4102 49.5216C39.874 49.4796 40.5099 49.616 40.4563 49.7461C40.4383 49.7897 40.4017 49.8899 40.375 49.9687C40.3278 50.1082 40.3293 50.1085 40.4372 49.9764C40.4981 49.9019 40.558 49.8107 40.5703 49.774C40.5991 49.6876 40.9832 49.7824 40.9832 49.8758C40.9832 49.9147 40.9152 50.0421 40.832 50.1588C40.7489 50.2756 40.6959 50.3861 40.7142 50.4045C40.7325 50.4228 40.8247 50.3233 40.9191 50.1834C41.0608 49.9734 41.1219 49.9365 41.2699 49.9719C41.5589 50.0409 41.5856 50.1197 41.4141 50.3972C41.3258 50.5402 41.2709 50.6745 41.2922 50.6959C41.3135 50.7171 41.3805 50.6429 41.4412 50.5308C41.6626 50.1211 41.6509 50.1259 42.0114 50.3011C42.1948 50.3902 42.3449 50.4885 42.3449 50.5194C42.3449 50.5504 42.2482 50.733 42.1299 50.9252C42.0117 51.1174 41.9149 51.2971 41.9149 51.3247C41.9149 51.4427 42.0656 51.2646 42.2455 50.934C42.3522 50.7381 42.4678 50.5779 42.5025 50.5779C42.5372 50.5779 42.6949 50.6438 42.8528 50.7244L43.14 50.8709L42.8468 51.2039C42.5434 51.5486 42.2964 51.9866 42.3661 52.0564C42.3881 52.0783 42.4549 52.0019 42.5145 51.8865C42.5742 51.7711 42.7557 51.5087 42.9181 51.3035L43.2131 50.9302L43.8443 51.2675C44.8223 51.7901 44.7801 51.719 44.3999 52.2042C44.0724 52.6223 43.9211 52.9202 43.9223 53.1448C43.9227 53.2112 43.9953 53.1176 44.0836 52.9368C44.1719 52.7559 44.369 52.4276 44.5216 52.2069L44.799 51.8057L45.077 51.9897C45.2299 52.0909 45.3551 52.1924 45.3551 52.2153C45.3551 52.2382 45.1876 52.5879 44.9831 52.9925C44.7785 53.397 44.633 53.7499 44.6597 53.7766C44.6864 53.8033 44.7739 53.667 44.8541 53.4737C45.0917 52.9006 45.3849 52.3556 45.4747 52.3202C45.5208 52.302 45.7543 52.4116 45.9936 52.5637L46.4287 52.8404L46.228 53.0888C45.9594 53.4212 45.6858 53.8783 45.662 54.0345C45.6313 54.2354 45.7114 54.1826 45.8229 53.9285C45.9822 53.5656 46.4778 52.9049 46.5738 52.9276C46.6213 52.9388 46.7133 52.9066 46.7781 52.8559C46.8823 52.7746 46.885 52.7779 46.8016 52.8844C46.7042 53.0089 46.7551 53.0638 47.1673 53.2789C47.2843 53.34 47.2744 53.373 47.0532 53.664C46.7928 54.0063 46.6853 54.1896 46.5753 54.4791C46.4466 54.8176 46.6259 54.6679 46.817 54.2773C46.9208 54.0651 47.0953 53.7788 47.2047 53.6412L47.4036 53.3909L47.7948 53.6069C48.01 53.7256 48.1995 53.8345 48.2159 53.8488C48.2323 53.8631 48.1486 53.9957 48.0299 54.1435C47.8287 54.3938 47.5768 54.8203 47.5768 54.9103C47.5768 55.0055 47.729 54.9379 47.7704 54.8243C47.868 54.5569 48.2965 53.9464 48.3867 53.9464C48.4927 53.9464 49.0819 54.2187 49.0819 54.2677C49.0819 54.2849 48.9532 54.5018 48.7959 54.7498C48.5206 55.1838 48.448 55.3798 48.5627 55.3798C48.5925 55.3798 48.6567 55.2898 48.7053 55.1799C48.7541 55.0699 48.8899 54.8285 49.0073 54.6434L49.2207 54.3069L49.6709 54.498C49.9185 54.603 50.1332 54.698 50.148 54.709C50.1628 54.7198 50.0139 54.9478 49.8171 55.2156C49.4098 55.7697 49.2969 55.9677 49.2969 56.1276C49.2969 56.3098 49.4027 56.2561 49.4878 56.0305C49.6027 55.7262 50.2338 54.8064 50.3277 54.8065C50.4375 54.8065 51.1825 55.0908 51.2539 55.1599C51.2857 55.1907 51.2343 55.3092 51.1398 55.4232C50.7813 55.8557 50.4437 56.405 50.4458 56.5524C50.4479 56.703 50.4493 56.7032 50.5263 56.5623C50.7499 56.1526 51.4077 55.2364 51.4782 55.2364C51.5227 55.2364 51.8807 55.3452 52.2736 55.478C52.6665 55.6109 53.2218 55.7793 53.5075 55.8523C53.7933 55.9252 54.0271 56.0089 54.0271 56.0382C54.0271 56.0675 53.9358 56.1975 53.8242 56.3269C53.2741 56.9654 52.6998 57.8839 52.7522 58.0414C52.7653 58.0804 53.0376 57.7151 53.3576 57.2298C53.6775 56.7444 54.0169 56.2754 54.1117 56.1876C54.2782 56.0332 54.2999 56.031 54.7469 56.1249C55.0703 56.1929 55.2026 56.2518 55.1863 56.3206C55.1734 56.3747 55.0036 56.6978 54.8089 57.0386C54.2575 58.0037 53.8316 59.0349 53.9843 59.0349C54.0063 59.0349 54.328 58.4102 54.6989 57.6466C55.3413 56.3245 55.3843 56.2567 55.5993 56.2252C55.7235 56.207 55.8418 56.2189 55.8621 56.2518C55.8824 56.2846 55.9898 56.3115 56.1008 56.3115C56.2118 56.3115 56.4012 56.3312 56.5217 56.3553L56.7407 56.3991L56.623 56.6599C56.5583 56.8034 56.468 56.9691 56.4222 57.0282C56.3765 57.0873 56.2586 57.2808 56.16 57.4582C56.0615 57.6356 55.7981 58.0871 55.5747 58.4616C55.0272 59.3796 54.7457 59.9679 54.6952 60.2997C54.6623 60.5159 54.7432 60.3971 55.0683 59.7516C55.2965 59.2983 55.8041 58.355 56.1961 57.6553C56.9931 56.2331 56.8903 56.3166 57.7051 56.4283L58.0347 56.4735L57.9204 56.6971C57.8575 56.8201 57.5402 57.3883 57.2151 57.9599C56.1089 59.9053 55.3683 61.3508 55.5588 61.1927C55.712 61.0655 57.2247 58.3745 57.8896 57.0461L58.1855 56.4548H58.6464C58.8999 56.4548 59.1261 56.4855 59.1494 56.523C59.1725 56.5605 58.8215 57.3103 58.3692 58.1893C57.4093 60.0552 56.59 61.8141 56.6278 61.9275C56.6555 62.0106 57.0188 61.2867 57.7392 59.713C58.4536 58.1523 59.3042 56.5647 59.4405 56.5373C59.5431 56.5167 59.5574 56.5484 59.5214 56.7165C59.4974 56.8288 59.4565 57.2754 59.4307 57.7091C59.3872 58.4388 59.3654 58.5281 59.1371 58.9093C58.9012 59.3033 57.5417 62.0692 57.4373 62.3676C57.2902 62.7879 57.6199 62.1928 58.3909 60.6465C58.8624 59.701 59.2979 58.8629 59.3588 58.7841L59.4694 58.6408L59.4724 58.7841C59.4769 58.9988 59.8201 59.696 59.8977 59.648C59.9395 59.6222 59.94 59.5185 59.8987 59.3749C59.7978 59.023 59.8193 58.0003 59.945 57.1662C60.0845 56.2413 60.0985 55.2888 59.9781 54.9122C59.8474 54.5034 59.5187 53.7992 59.2888 53.4352C58.8897 52.8035 58.1245 51.4564 57.8081 50.8287C57.1387 49.501 56.8791 48.6272 56.8778 47.697C56.877 47.1531 56.9041 47.0161 57.0904 46.6219C57.3482 46.0766 57.784 45.5698 58.1587 45.3797C58.3106 45.3027 58.4861 45.1989 58.5486 45.1489C58.6459 45.0714 58.6786 45.0921 58.7735 45.2917C59.8388 47.5314 60.6084 48.8609 61.6011 50.1767C61.9651 50.6591 62.6185 51.4444 63.053 51.9219L63.8431 52.79L63.6625 53.2698C63.5632 53.5337 63.4989 53.7666 63.5197 53.7874C63.5518 53.8196 63.7038 53.506 63.9056 52.991C63.9479 52.8832 64.0405 52.9658 64.4281 53.4569C64.6872 53.7853 65.0173 54.2329 65.1617 54.4518L65.4241 54.8497L65.2146 55.282C64.947 55.8347 64.776 56.4109 64.7833 56.7366L64.7889 56.9924L64.8589 56.7773C64.8975 56.6591 65.0122 56.3043 65.1139 55.989C65.2155 55.6736 65.3464 55.3214 65.4048 55.2061L65.5108 54.9966L65.6467 55.1703C65.8974 55.4906 66.2392 56.1261 66.2296 56.2539C66.2244 56.3235 66.074 56.75 65.8953 57.2016C65.6178 57.9033 65.4252 58.6486 65.4232 59.029C65.4221 59.2305 65.5235 59.023 65.6399 58.5856C65.7052 58.34 65.8873 57.743 66.0446 57.2589L66.3305 56.3786L66.448 56.6497C66.5127 56.7987 66.7313 57.3722 66.934 57.9241C67.1367 58.4759 67.3472 59.0145 67.4018 59.1209C67.5479 59.4059 67.5346 59.4672 67.138 60.3353C66.7794 61.1203 66.3065 62.6901 66.4286 62.6901C66.4844 62.6901 66.639 62.2321 66.8407 61.4691C66.8775 61.3298 67.0627 60.8486 67.252 60.3999C67.5137 59.78 67.6088 59.617 67.6481 59.7216C67.6764 59.7972 67.977 60.4478 68.316 61.1671C68.8965 62.3991 69.2798 63.3232 69.5088 64.0435C69.6061 64.3493 69.6024 64.3693 69.3726 64.796C68.5864 66.2553 68.0678 67.4376 68.1693 67.5392C68.2194 67.5892 68.3769 67.2779 68.6511 66.5874C68.7745 66.2768 69.0526 65.6763 69.2691 65.2529L69.6628 64.483L69.9489 64.9115C70.1063 65.1472 70.2632 65.3574 70.2975 65.3786C70.3319 65.3998 70.1555 65.8275 69.9056 66.3292C69.3794 67.3853 69.1971 67.922 69.3645 67.922C69.4039 67.922 69.4361 67.8794 69.4361 67.8273C69.4361 67.687 69.9725 66.4577 70.2357 65.995C70.7593 65.0743 71.0221 64.5451 70.9953 64.4649C70.9796 64.4179 70.8758 64.5467 70.7646 64.7511C70.6534 64.9555 70.5389 65.1082 70.5103 65.0905C70.4278 65.0395 69.7086 63.4134 69.7349 63.3376C69.748 63.3 70.1941 63.5125 70.7262 63.8097C71.2583 64.1069 72.0001 64.5125 72.3746 64.711C72.7491 64.9095 73.2081 65.1679 73.3946 65.2852C73.5812 65.4025 73.8633 65.5159 74.0217 65.5371C74.2883 65.5729 74.3096 65.5631 74.3086 65.4051C74.308 65.3112 74.2838 65.1976 74.2549 65.1528C74.1349 64.9668 69.783 62.6901 69.5474 62.6901C69.4862 62.6901 69.4361 62.6551 69.4361 62.6123C69.4361 62.5694 69.2095 62.0497 68.9324 61.4572C68.4185 60.3586 68.0106 59.3524 67.3546 57.5657C66.8117 56.0868 66.6685 55.7853 66.079 54.8781C65.1752 53.4874 64.7515 52.9553 63.5147 51.6578C62.3756 50.4629 61.8644 49.8114 61.0364 48.4995C60.3817 47.4619 59.8853 46.5933 59.4337 45.6942C59.0813 44.9926 58.7876 44.6245 58.5864 44.6324C58.5425 44.6342 58.3898 44.6773 58.2472 44.7283ZM33.8889 47.6215C33.8896 47.7299 33.9213 47.867 33.9595 47.9261C34.0104 48.0049 34.0293 47.9521 34.0301 47.729C34.0307 47.5615 33.999 47.4244 33.9595 47.4244C33.9201 47.4244 33.8884 47.5131 33.8889 47.6215ZM43.377 51.8951C43.0359 52.356 42.8746 52.6595 42.9743 52.653C43.0427 52.6486 43.7923 51.4997 43.7527 51.4601C43.7357 51.4431 43.5666 51.6389 43.377 51.8951ZM64.3659 54.4302C64.1491 54.9117 64.0261 55.3081 64.0936 55.3081C64.1339 55.3081 64.3431 54.8615 64.5578 54.3168C64.7713 53.7752 64.6209 53.864 64.3659 54.4302ZM52.3485 56.1441C51.9765 56.6175 51.7135 57.1291 51.7519 57.3043C51.7676 57.3756 51.8821 57.2237 52.0412 56.9207C52.1861 56.6448 52.4075 56.2822 52.5333 56.1149C52.8864 55.6452 52.7197 55.6716 52.3485 56.1441ZM35.4983 56.6107C35.0842 57.1871 34.8999 57.7455 35.1242 57.7445C35.1786 57.7442 35.2178 57.6352 35.2239 57.4671C35.2343 57.1847 35.3329 56.9863 35.7001 56.5086C35.8137 56.3608 35.8747 56.2398 35.8357 56.2398C35.7967 56.2398 35.6448 56.4067 35.4983 56.6107ZM37.1649 57.7841C36.871 58.2874 36.7525 58.6766 36.8933 58.6766C36.9399 58.6766 36.9601 58.6474 36.9381 58.6118C36.9161 58.5761 37.0443 58.2697 37.223 57.9309C37.6021 57.2122 37.5604 57.1068 37.1649 57.7841ZM38.3255 58.0495C38.0282 58.4576 37.8797 58.7513 37.9417 58.8087C37.9698 58.8346 38.008 58.8125 38.0269 58.7597C38.0457 58.7068 38.1996 58.4568 38.369 58.2042C38.7107 57.6946 38.6753 57.5691 38.3255 58.0495ZM66.6568 58.4437C66.4691 58.8835 66.0175 60.3639 65.9789 60.6654C65.9283 61.0615 66.0528 60.9219 66.1388 60.4863C66.2404 59.9717 66.6168 58.8002 66.7942 58.4465C66.945 58.1462 66.9538 58.1032 66.8648 58.1032C66.8303 58.1032 66.7366 58.2565 66.6568 58.4437ZM58.9126 61.1691C58.7024 61.71 58.4653 62.3205 58.3859 62.5257C58.1291 63.1894 58.2827 63.0675 58.564 62.3844C58.9809 61.3719 59.4041 60.1814 59.3464 60.1836C59.3181 60.1847 59.1228 60.6282 58.9126 61.1691ZM44.9343 60.5973C44.8109 60.7895 44.7101 61.0246 44.7102 61.1197C44.7104 61.2408 44.7853 61.144 44.9604 60.7962C45.098 60.5232 45.1987 60.2882 45.1845 60.2739C45.1701 60.2596 45.0576 60.4051 44.9343 60.5973ZM45.9132 60.5933C45.7065 60.8301 45.4267 61.3254 45.428 61.4524C45.4287 61.5222 45.526 61.4038 45.6442 61.1894C45.7624 60.975 45.9121 60.741 45.9769 60.6694C46.0417 60.5978 46.0786 60.523 46.0589 60.5033C46.0392 60.4836 45.9736 60.5241 45.9132 60.5933ZM46.71 61.0958C46.3809 61.5791 46.2428 61.9017 46.3652 61.9017C46.4009 61.9017 46.4301 61.8757 46.4301 61.8438C46.4301 61.7879 46.7627 61.2167 47.0328 60.8088C47.1046 60.7003 47.1354 60.6118 47.1013 60.612C47.0672 60.6123 46.8911 60.8299 46.71 61.0958ZM67.7609 61.9799C67.5879 62.3508 67.3486 62.9607 67.2291 63.3351C67.0151 64.0055 66.8199 64.8996 66.8754 64.9551C66.8909 64.9707 67.009 64.6368 67.1377 64.213C67.4942 63.0389 67.7074 62.416 67.9384 61.8732C68.2555 61.128 68.1202 61.2093 67.7609 61.9799ZM49.4933 63.4874C49.23 63.8725 48.9269 64.5133 49.0757 64.3703C49.2241 64.2277 49.8035 63.2422 49.7801 63.1721C49.7673 63.1336 49.6382 63.2755 49.4933 63.4874ZM68.6655 63.3531C68.5745 63.625 68.1552 64.6395 67.5968 65.9388C67.3794 66.4444 67.2167 66.8732 67.2352 66.8916C67.3018 66.9583 67.6312 66.2892 67.9981 65.3419C68.2041 64.8097 68.4224 64.2615 68.4832 64.1235C68.683 63.6697 68.8561 63.1201 68.7993 63.1201C68.7686 63.1201 68.7084 63.2249 68.6655 63.3531ZM42.3878 64.5707C42.1757 64.9328 42.0709 65.3419 42.1904 65.3419C42.2335 65.3419 42.2506 65.2947 42.2285 65.2368C42.2063 65.1791 42.2878 64.9479 42.4096 64.723C42.6718 64.2388 42.6543 64.1161 42.3878 64.5707ZM44.9989 65.2881C44.8802 65.4951 44.7828 65.7228 44.7823 65.7941C44.7814 65.9752 44.8995 65.8833 44.9558 65.6591C44.9814 65.5569 45.0821 65.347 45.1796 65.1926C45.2771 65.0382 45.3249 64.9119 45.2857 64.9119C45.2466 64.9119 45.1175 65.0812 44.9989 65.2881ZM45.8714 65.4315C45.6385 65.8856 45.5832 66.1303 45.7134 66.1303C45.7528 66.1303 45.7851 66.0716 45.7851 66C45.7851 65.9284 45.8818 65.6806 46.0001 65.4494C46.2385 64.9831 46.2384 64.9835 46.1581 64.9835C46.1267 64.9835 45.9977 65.1852 45.8714 65.4315ZM71.5199 65.6792C70.9434 66.6623 70.4502 67.6965 70.4883 67.8423C70.5371 68.0289 70.6544 67.9684 70.6549 67.7565C70.6552 67.601 70.8683 67.1529 71.4895 66.0008C71.8593 65.3147 71.8835 65.0591 71.5199 65.6792ZM72.6887 65.5731C72.5536 65.7637 72.3791 66.1135 72.2307 66.4913C72.146 66.7066 72.0329 66.9796 71.9793 67.0978C71.6713 67.7774 71.5149 68.2318 71.5174 68.4395L71.5203 68.6745L71.6253 68.4812C71.683 68.3748 71.8756 67.8782 72.0531 67.3777C72.2307 66.8771 72.4772 66.2621 72.6008 66.0109C72.7245 65.7597 72.8094 65.5378 72.7895 65.5179C72.7697 65.4981 72.7243 65.5229 72.6887 65.5731ZM72.9818 67.0438C72.4252 68.636 72.299 69.0485 72.3184 69.2121C72.3365 69.3639 72.3573 69.3419 72.4547 69.0687C72.8667 67.9138 73.2831 66.5543 73.2341 66.5241C73.2022 66.5044 73.0887 66.7382 72.9818 67.0438ZM42.2909 69.2658C41.9071 69.7115 41.7271 70.0004 41.8333 70.0004C41.87 70.0004 42.0034 69.8392 42.1299 69.6421C42.2564 69.445 42.3818 69.2837 42.4086 69.2837C42.4354 69.2837 42.5145 69.187 42.5844 69.0687C42.774 68.7477 42.6864 68.8066 42.2909 69.2658ZM44.0908 69.3022C43.8703 69.6362 43.7783 69.8312 43.7783 69.9641C43.7783 70.1342 43.8981 70.0323 43.9524 69.816C43.9781 69.7138 44.0788 69.5038 44.1762 69.3495C44.3887 69.0129 44.3103 68.9695 44.0908 69.3022ZM48.7687 70.0184C48.4336 70.5444 48.2803 70.8567 48.3114 70.95C48.3261 70.9939 48.4732 70.7901 48.6385 70.4972C48.8037 70.2043 48.9911 69.892 49.0549 69.8034C49.1268 69.7036 49.1401 69.6421 49.0898 69.6421C49.045 69.6421 48.9006 69.8114 48.7687 70.0184ZM50.3712 70.1575C49.8966 70.793 49.6883 71.1472 49.7893 71.1472C49.8745 71.1472 50.5976 70.0681 50.5693 69.9832C50.5578 69.9488 50.4687 70.0272 50.3712 70.1575ZM66.9865 71.6847C66.4907 72.6803 66.2208 73.5578 66.3432 73.7764C66.3887 73.8579 66.4408 73.7429 66.532 73.3601C66.6013 73.0693 66.8011 72.4984 66.9761 72.0913C67.3457 71.2316 67.353 70.9489 66.9865 71.6847Z" fill="#00B32A"/>
<path d="M134.021 32.1465C136.084 32.1465 137.326 31.1445 137.326 29.5684V29.5625C137.326 28.2441 136.559 27.5293 134.801 27.166L133.887 26.9785C132.867 26.7676 132.404 26.416 132.404 25.8184V25.8125C132.404 25.1387 133.02 24.6758 134.01 24.6699C134.959 24.6699 135.609 25.1094 135.709 25.8477L135.721 25.918H137.168L137.162 25.8184C137.074 24.3711 135.867 23.3984 134.021 23.3984C132.199 23.3984 130.893 24.4062 130.887 25.8945V25.9004C130.887 27.1602 131.707 27.9336 133.371 28.2793L134.279 28.4668C135.369 28.6953 135.809 29.0352 135.809 29.668V29.6738C135.809 30.4004 135.141 30.875 134.074 30.875C133.014 30.875 132.27 30.4238 132.158 29.6973L132.146 29.627H130.699L130.705 29.7148C130.805 31.2324 132.082 32.1465 134.021 32.1465ZM140.291 32H141.797V24.8164H144.322V23.5449H137.76V24.8164H140.291V32ZM145.359 32H150.832V30.7285H146.871V28.3203H150.615V27.0957H146.871V24.8164H150.832V23.5449H145.359V32ZM152.145 32H153.656V29.2051H155.402C157.113 29.2051 158.279 28.0684 158.279 26.3809V26.3691C158.279 24.6758 157.113 23.5449 155.402 23.5449H152.145V32ZM155.027 24.7812C156.111 24.7812 156.744 25.3613 156.744 26.375V26.3867C156.744 27.4004 156.111 27.9863 155.027 27.9863H153.656V24.7812H155.027ZM164.871 32.1465C166.939 32.1465 168.193 30.4648 168.193 27.7754V27.7637C168.193 25.0742 166.939 23.3984 164.871 23.3984C162.797 23.3984 161.549 25.0742 161.549 27.7637V27.7754C161.549 30.4648 162.797 32.1465 164.871 32.1465ZM164.871 30.9102C163.729 30.9102 163.072 29.7266 163.072 27.7754V27.7637C163.072 25.8125 163.729 24.6406 164.871 24.6406C166.008 24.6406 166.67 25.8125 166.67 27.7637V27.7754C166.67 29.7266 166.008 30.9102 164.871 30.9102ZM169.242 32H175.189V30.7637H171.24V30.6992L173.104 28.9297C174.592 27.5 175.055 26.8262 175.055 25.8301V25.8184C175.055 24.4238 173.871 23.3984 172.178 23.3984C170.461 23.3984 169.16 24.5059 169.16 26.0527V26.0938H170.578V26.0527C170.596 25.2383 171.252 24.6113 172.189 24.6113C173.004 24.6113 173.572 25.1504 173.578 25.9062V25.918C173.578 26.5449 173.338 26.9727 172.23 28.0566L169.242 30.9688V32Z" fill="#00B32A"/>
<path d="M131.613 58H137.789C142.852 58 145.828 54.8594 145.828 49.5039V49.4805C145.828 44.1367 142.828 41.0898 137.789 41.0898H131.613V58ZM134.637 55.4453V43.6445H137.473C140.836 43.6445 142.746 45.7188 142.746 49.4922V49.5156C142.746 53.3711 140.871 55.4453 137.473 55.4453H134.637ZM153.398 58.2461C156.645 58.2461 158.473 56.3242 158.859 54.4141L158.895 54.2852H156.164L156.141 54.3672C155.859 55.1992 154.91 55.9727 153.457 55.9727C151.559 55.9727 150.363 54.6836 150.316 52.5039H159.012V51.5664C159.012 47.8164 156.809 45.3203 153.258 45.3203C149.707 45.3203 147.422 47.8984 147.422 51.8125V51.8242C147.422 55.7734 149.672 58.2461 153.398 58.2461ZM153.293 47.6055C154.84 47.6055 155.965 48.5898 156.176 50.5586H150.352C150.586 48.6484 151.746 47.6055 153.293 47.6055ZM160.898 62.1016H163.816V55.9023H163.875C164.578 57.3555 165.996 58.2461 167.766 58.2461C170.883 58.2461 172.875 55.7852 172.875 51.8008V51.7891C172.875 47.7812 170.883 45.3203 167.73 45.3203C165.949 45.3203 164.59 46.2344 163.875 47.7227H163.816V45.5781H160.898V62.1016ZM166.863 55.7852C165.059 55.7852 163.793 54.2266 163.793 51.8008V51.7891C163.793 49.3516 165.059 47.7812 166.863 47.7812C168.727 47.7812 169.898 49.3047 169.898 51.7891V51.8008C169.898 54.25 168.727 55.7852 166.863 55.7852ZM180.211 58.2461C183.457 58.2461 185.285 56.3242 185.672 54.4141L185.707 54.2852H182.977L182.953 54.3672C182.672 55.1992 181.723 55.9727 180.27 55.9727C178.371 55.9727 177.176 54.6836 177.129 52.5039H185.824V51.5664C185.824 47.8164 183.621 45.3203 180.07 45.3203C176.52 45.3203 174.234 47.8984 174.234 51.8125V51.8242C174.234 55.7734 176.484 58.2461 180.211 58.2461ZM180.105 47.6055C181.652 47.6055 182.777 48.5898 182.988 50.5586H177.164C177.398 48.6484 178.559 47.6055 180.105 47.6055ZM187.711 58H190.629V50.793C190.629 49 191.695 47.7812 193.371 47.7812C195.035 47.7812 195.855 48.7773 195.855 50.5469V58H198.773V49.9609C198.773 47.0781 197.215 45.3203 194.484 45.3203C192.598 45.3203 191.332 46.1875 190.688 47.5234H190.629V45.5781H187.711V58ZM205.734 58.2461C207.527 58.2461 208.898 57.3555 209.602 55.8906H209.672V58H212.59V41.0898H209.672V47.7109H209.602C208.898 46.2227 207.48 45.3203 205.723 45.3203C202.605 45.3203 200.602 47.7695 200.602 51.7773V51.7891C200.602 55.7852 202.594 58.2461 205.734 58.2461ZM206.613 55.7852C204.738 55.7852 203.578 54.2617 203.578 51.7891V51.7773C203.578 49.3047 204.75 47.7812 206.613 47.7812C208.406 47.7812 209.672 49.3516 209.672 51.7773V51.7891C209.672 54.2266 208.418 55.7852 206.613 55.7852ZM220.5 58.2461C223.746 58.2461 225.574 56.3242 225.961 54.4141L225.996 54.2852H223.266L223.242 54.3672C222.961 55.1992 222.012 55.9727 220.559 55.9727C218.66 55.9727 217.465 54.6836 217.418 52.5039H226.113V51.5664C226.113 47.8164 223.91 45.3203 220.359 45.3203C216.809 45.3203 214.523 47.8984 214.523 51.8125V51.8242C214.523 55.7734 216.773 58.2461 220.5 58.2461ZM220.395 47.6055C221.941 47.6055 223.066 48.5898 223.277 50.5586H217.453C217.688 48.6484 218.848 47.6055 220.395 47.6055ZM228 58H230.918V50.793C230.918 49 231.984 47.7812 233.66 47.7812C235.324 47.7812 236.145 48.7773 236.145 50.5469V58H239.062V49.9609C239.062 47.0781 237.504 45.3203 234.773 45.3203C232.887 45.3203 231.621 46.1875 230.977 47.5234H230.918V45.5781H228V58ZM246.891 58.2461C250.031 58.2461 252.129 56.2773 252.352 53.6875L252.363 53.6055H249.609L249.586 53.7109C249.316 55.0117 248.379 55.8906 246.902 55.8906C245.062 55.8906 243.867 54.3906 243.867 51.8008V51.7891C243.867 49.2461 245.051 47.6875 246.891 47.6875C248.438 47.6875 249.328 48.6602 249.574 49.8672L249.598 49.9727H252.352L252.34 49.8789C252.164 47.3945 250.125 45.3203 246.855 45.3203C243.234 45.3203 240.891 47.8047 240.891 51.7656V51.7773C240.891 55.7617 243.199 58.2461 246.891 58.2461ZM259.57 58.2461C262.816 58.2461 264.645 56.3242 265.031 54.4141L265.066 54.2852H262.336L262.312 54.3672C262.031 55.1992 261.082 55.9727 259.629 55.9727C257.73 55.9727 256.535 54.6836 256.488 52.5039H265.184V51.5664C265.184 47.8164 262.98 45.3203 259.43 45.3203C255.879 45.3203 253.594 47.8984 253.594 51.8125V51.8242C253.594 55.7734 255.844 58.2461 259.57 58.2461ZM259.465 47.6055C261.012 47.6055 262.137 48.5898 262.348 50.5586H256.523C256.758 48.6484 257.918 47.6055 259.465 47.6055Z" fill="white"/>
<line x1="51" y1="108" x2="51" y2="148" stroke="white" stroke-opacity="0.3" stroke-width="2"/>
</svg>
