<svg width="1440" height="899" viewBox="0 0 1440 899" fill="none" xmlns="http://www.w3.org/2000/svg">
<path fill-rule="evenodd" clip-rule="evenodd" d="M-31.0079 2.22113C-22.7611 3.0628 12.3251 4.3283 46.9615 5.03202C138.879 6.89929 162.244 9.69219 204.114 23.8206C255.801 41.2578 289.046 70.4403 308.731 115.649C316.955 134.537 321.428 148.716 328.603 178.644C331.818 192.052 338.239 218.766 342.871 238.008C356.494 294.586 367.655 321.899 397.49 371.68C436.664 437.044 440.171 467.466 421.826 582.873C417.258 611.609 415.754 652.11 418.641 668.681C425.475 707.924 452.506 727.818 495.503 725.245C519.66 723.799 533.296 719.905 559.76 706.886C623.207 675.678 682.358 607.007 705.441 537.759C715.757 506.807 716.966 496.651 718.745 425.935C719.673 389.099 721.26 355.362 722.276 350.964C733.108 304.01 754.799 273.099 789.048 255.811C810.933 244.764 838.358 241.041 860.412 246.125C894.82 254.058 923.495 283.988 944.783 334.191C962.656 376.34 969.769 390.874 981.106 408.403C1012.21 456.509 1058.85 486.255 1132.25 504.819C1196.12 520.973 1258.6 533.004 1293.13 535.795C1391.47 543.746 1483.47 501.991 1575.42 407.676C1605.07 377.268 1615.81 364.687 1671.63 294.986C1693.64 267.497 1726.3 227.463 1744.2 206.021C1786.63 155.205 1809.97 123.967 1842.03 75.1285L1868.25 35.2002V22.6491C1868.25 15.7458 1867.9 10.098 1867.47 10.098C1867.05 10.098 1862.86 16.6195 1858.17 24.5923C1828.4 75.1564 1787.32 132.438 1738.08 192.027C1721.28 212.368 1688.68 252.853 1665.65 281.991C1612.89 348.741 1595.37 369.219 1566.47 397.946C1503.89 460.153 1439.01 497.41 1373.33 508.866C1350.8 512.794 1309.64 512.74 1282.73 508.746C1254.91 504.614 1181.13 486.079 1144.53 474.026C1095.97 458.034 1068.74 442.324 1043.87 415.96C1022.03 392.81 1010.2 371.476 985.688 310.98C979.449 295.586 971.098 277.143 967.13 269.996C936.804 215.383 892.695 189.751 833.858 192.55C759.068 196.109 697.372 247.357 674.441 324.974C669.801 340.684 669.717 342.489 669.661 426.934L669.605 512.9L664.265 532.447C645.282 601.923 592.863 662.048 534.84 680.892C520.042 685.698 498.364 685.828 486.325 681.182C473.95 676.408 462.49 663.331 457.588 648.393C451.622 630.212 452.634 592.467 460.389 543.888C469.553 486.493 471.447 463.798 468.946 441.374C465.097 406.852 457.128 387.873 427.69 343.105C397.298 296.887 387.734 271.697 368.873 188.194C355.896 130.747 348.641 106.016 338.005 82.9974C322.005 48.367 298.193 23.8126 263.628 6.30352L251.387 0.10196L102.692 0.395844C20.092 0.557781 -39.3366 1.36946 -31.0079 2.22113ZM312.117 7.70297C351.754 39.0327 369.671 79.2408 393.811 191.027C407.294 253.462 421.552 288.696 448.012 324.974C473.152 359.443 483.476 376.562 489.521 393.813C494.721 408.651 495.629 414.415 496.315 436.93C497.131 463.75 496.603 468.266 483.914 542.889C475.155 594.388 477.5 625.412 491.341 641.176C499.41 650.364 507.73 653.845 521.635 653.845C550.843 653.845 587.101 628.983 611.528 592.203C638.991 550.851 647.118 506.341 639.86 437.004C634.095 381.898 636.006 344.217 646.1 314.049C652.168 295.916 666.85 268.069 678.437 252.717C709.187 211.985 748.62 185.105 795.667 172.812C812.037 168.534 820.367 167.562 841.649 167.448C889.358 167.196 925.106 180.603 954.495 209.776C976.142 231.267 989.233 253.89 1010.16 305.982C1032.35 361.216 1044.24 381.772 1067.47 405.073C1084.48 422.13 1093.9 428.711 1120.03 441.768C1154.31 458.904 1235.37 483.932 1286.47 493.156C1313.22 497.984 1361.86 497.968 1384.33 493.126C1458.04 477.236 1527.87 432.082 1593 358.179C1612.24 336.344 1633.28 310.44 1678.41 253.003C1688.78 239.808 1713.07 209.67 1732.39 186.029C1772.45 137.02 1791.25 112.432 1812.64 81.0701C1828.46 57.8692 1862.25 3.61058 1862.25 1.40145C1862.25 0.68773 1858.87 0.10196 1854.75 0.10196C1847.87 0.10196 1846.84 0.86566 1842.34 9.36032C1834.53 24.0725 1791.99 88.0034 1775.6 109.633C1767.38 120.489 1746.57 146.39 1729.35 167.194C1712.12 188 1682.62 224.814 1663.78 249.004C1613.71 313.309 1594.53 335.924 1565.43 364.996C1487.73 442.622 1408.01 477.568 1326.14 469.903C1275.12 465.125 1193.69 440.975 1152.53 418.413C1097.21 388.095 1072.12 357.138 1042.42 282.581C1036.82 268.512 1028.56 249.462 1024.07 240.25C994.255 179.07 954.063 147.084 890.544 133.979C861.265 127.94 813.304 129.193 783.672 136.776C717.392 153.734 669.893 187.43 612.827 257.975C586.042 291.084 568.213 308.531 557.569 312.043C542.009 317.177 520.111 310.086 498.042 292.765C466.92 268.339 448.666 230.297 430.993 153.042C415.599 85.7583 397.91 40.658 375.314 11.0976L367.673 1.10157L335.024 0.551783L302.373 0L312.117 7.70297ZM412.38 18.5947C427.032 42.7952 440.557 74.9085 451.966 112.582C469.471 170.375 475.329 187.086 484.112 204.262C499.346 234.056 518.28 248.888 540.883 248.728C559.82 248.594 577.145 238.484 615.738 205.043C665.082 162.286 705.195 138.16 751.684 123.27C830.893 97.9015 916.985 106.428 976.096 145.495C1011.35 168.792 1032.89 199.791 1060.55 266.997C1089.82 338.137 1112.23 368.365 1156.53 396.434C1193.38 419.791 1256.96 442.268 1310.46 450.859C1414.9 467.624 1508.44 422.406 1604.81 308.583C1613 298.904 1636.66 269.396 1657.38 243.006C1678.1 216.617 1708.55 178.832 1725.04 159.039C1770.09 104.993 1809.73 50.1003 1832.98 9.59823L1838.43 0.10196H1830.75C1823.1 0.10196 1823 0.19992 1807.36 24.8842C1780.39 67.4375 1755.57 100.48 1714.09 149.043C1703.76 161.139 1676.94 193.976 1654.5 222.015C1602.75 286.667 1585.82 306.186 1558.99 332.095C1486.62 401.972 1413.74 432.074 1335.83 424.259C1259.84 416.636 1190.72 386.824 1149.84 344.043C1125.56 318.625 1111.75 294.854 1089.73 240.539C1069.65 191.001 1054.31 165.373 1030.7 141.924C973.791 85.4064 866.709 62.6194 759.681 84.2549C729.601 90.3345 703.018 98.5413 656.276 116.178C605.388 135.379 593.996 138.554 575.754 138.622C546.253 138.729 527.745 121.658 496.485 65.5062C490.845 55.3742 479.875 36.5136 472.11 23.5927L457.99 0.10196H429.587H401.184L412.38 18.5947ZM496.055 2.60098C502.566 13.4127 532.635 51.2878 542.077 60.5702C557.327 75.5643 565.454 80.9102 580.98 86.1661C601.981 93.2733 628.275 91.1842 689.709 77.5235C751.948 63.685 770.251 60.6322 806.287 58.0852C884.23 52.5733 968.025 70.7942 1019.9 104.531C1058.3 129.507 1080.26 160.121 1107.39 226.487C1125.17 269.974 1131.84 283.57 1145.45 304.01C1178.38 353.481 1232.48 386.876 1304.47 402.186C1331.78 407.994 1385.23 408.571 1408.1 403.303C1480.09 386.726 1541.25 343.229 1612.5 257.927C1623.02 245.324 1643.71 220.165 1658.46 202.023C1673.21 183.88 1695.21 157.34 1707.34 143.046C1738.23 106.662 1759.52 80.0645 1774.53 59.0788C1787.55 40.8779 1812.27 2.89686 1812.27 1.08557C1812.27 0.545785 1808.81 0.10196 1804.58 0.10196C1797.04 0.10196 1796.61 0.515796 1783.26 20.5939C1763.9 49.7045 1743.1 76.7998 1715.33 109.059C1702.08 124.453 1676.91 154.141 1659.41 175.033C1573.82 277.171 1535.98 313.297 1481.9 344.481C1389.27 397.892 1270.54 385.328 1199.85 314.636C1175.25 290.042 1161.77 266.643 1138.47 208.166C1116.09 151.97 1103.45 129.563 1081.38 106.948C1044.94 69.6146 983.153 43.7328 899.626 30.8119C865.766 25.5759 784.835 25.6739 738.69 31.0098C694.345 36.1378 642.461 36.3677 624.734 31.5136C607.287 26.7375 590.064 18.4268 576.807 8.3887L565.865 0.10196H530.207C502.211 0.10196 494.873 0.639748 496.055 2.60098ZM634.131 2.10517C636.548 3.09078 645.544 5.41587 654.123 7.27314C666.936 10.0461 677.915 10.5119 715.699 9.88212C740.989 9.45828 788.22 9.18239 820.657 9.26636C871.243 9.3983 883.475 10.0401 906.624 13.7886C983.805 26.2857 1042.08 47.3214 1081.23 76.8198C1110.38 98.7892 1130.14 128.078 1149.49 178.032C1171.67 235.297 1181.29 256.469 1193.09 273.994C1222.88 318.221 1269.18 347.279 1325.22 356.91C1413.69 372.112 1504.69 330.324 1594.18 233.398C1616.78 208.912 1723.79 84.4048 1743.99 59.0788C1751.88 49.1827 1764.68 31.8655 1772.43 20.5939L1786.52 0.10196H1776.79H1767.06L1747.9 25.5919C1721.35 60.9021 1617.9 178.908 1582.57 214.174C1540.14 256.519 1506.98 281.573 1466.4 301.939C1428.5 320.962 1399.4 328.429 1363.44 328.357C1335.26 328.301 1311.79 322.947 1287.47 311.026C1239.13 287.327 1214.81 253.214 1185.51 168.036C1170.59 124.645 1159.67 102.092 1144.09 82.5175C1121.52 54.1527 1081.35 29.8103 1025.58 10.6938L997.588 1.10157L813.66 0.705723C703.657 0.469815 631.5 1.03159 634.131 2.10517ZM1059.56 2.12117C1061.76 3.08279 1073.52 7.98686 1085.7 13.0189C1116.16 25.6119 1138.6 39.8823 1156.53 58.0672C1180.2 82.0857 1187.62 97.4417 1211.42 171.583C1227.77 222.533 1240.82 246.393 1264.75 269.058C1281.07 284.522 1294.03 292.647 1313.98 299.928C1390.13 327.715 1480.75 293.307 1577.09 200.023C1599.19 178.628 1613.21 163.342 1690.78 76.0721C1719.53 43.7248 1746.72 10.7718 1750.52 3.68055C1752.26 0.415836 1751.31 0.10196 1739.66 0.10196H1726.88L1714.13 14.5963C1680.13 53.2431 1592.53 147.338 1573.57 165.577C1491.73 244.316 1413.62 281.991 1354.06 271.453C1311.22 263.878 1279.12 236.449 1261.22 192.148C1256.78 181.159 1252.38 164.551 1237.58 103.061C1231.36 77.2036 1220.19 52.8392 1208.46 39.5125C1198.59 28.2929 1180.48 15.0541 1163.08 6.33551L1150.64 0.10196L1103.1 0.237906C1074.12 0.319874 1057.12 1.05558 1059.56 2.12117ZM1228.76 7.91489C1255.64 27.1593 1263.17 45.6481 1272.42 115.139C1279.82 170.655 1289.72 197.075 1311.43 219.192C1344.89 253.288 1393.15 257.401 1448.41 230.865C1470.95 220.041 1481.04 213.856 1506.39 195.317C1544.04 167.782 1574.96 138.296 1650.31 58.0612C1667.33 39.9283 1686.59 19.4703 1693.1 12.597L1704.94 0.10196H1671.87H1638.79L1611.08 27.5971C1595.83 42.7192 1564.91 74.0249 1542.37 97.1678C1476.47 164.835 1437.8 190.027 1399.85 190.027C1381.42 190.027 1372.08 186.98 1361.23 177.426C1339.16 157.996 1333.29 124.561 1344.37 81.362C1349.3 62.1056 1363.23 32.2453 1375.37 14.8762C1380.36 7.74496 1384.44 1.50341 1384.44 1.0056C1384.44 0.5078 1346.95 0.10196 1301.14 0.10196H1217.85L1228.76 7.91489ZM-51 44.1406V64.6166L23.4707 63.1992C123.787 61.2899 147.358 64.3147 188.856 84.4268C207.468 93.4473 211.931 96.716 228.966 113.813C245.825 130.737 249.366 135.575 258.404 154.041C270.688 179.14 277.099 198.866 291.627 256.251C306.731 315.91 313.055 333.613 333.661 373.955C365.4 436.089 368.527 442.822 374.087 461.007C379.261 477.934 379.559 481.049 379.525 517.898C379.493 551.053 378.557 563.177 373.265 598.972C361.188 680.642 360.69 699.059 369.749 729.067C375.738 748.914 393.973 767.53 414.433 774.687C454.175 788.59 520.685 778.004 577.605 748.716C648.593 712.188 708.258 653.231 790.745 538.104C830.623 482.448 843.842 471.071 868.638 471.057C884.62 471.049 893.927 474.142 938.027 494.116C1027.21 534.508 1072 547.125 1181.52 562.703C1265.55 574.656 1295.12 576.239 1335.06 570.924C1411.31 560.776 1487.11 520.869 1558.08 453.516C1590.25 422.982 1617.38 392.172 1678.28 316.977C1695.2 296.086 1725.36 260.1 1745.29 237.009C1797.49 176.565 1823.84 142.544 1858.02 91.516C1868.04 76.5659 1868.41 75.5163 1867.84 63.9888L1867.25 52.0036L1844.84 85.8682C1819.26 124.527 1789.15 164.993 1762 197.23C1715.28 252.673 1692.64 280.098 1659.02 321.975C1613.95 378.107 1594.11 400.722 1564.22 430.051C1495.43 497.536 1423.18 537.213 1349.45 547.985C1324.55 551.623 1281.47 550.743 1248.64 545.925C1211.9 540.537 1134.52 525.369 1105.22 517.812C1046.69 502.722 1002.53 478.614 969.581 443.756C951.336 424.455 942.219 410.269 921.416 368.797C911.993 350.014 899.696 328.521 894.086 321.032C854.048 267.567 785.957 281.773 763.94 348.183C758.068 365.892 755.483 386.308 752.704 436.93C750.527 476.567 747.74 494.004 739.281 520.859C727.156 559.356 698.119 607.963 665.068 645.084C602.615 715.233 522.674 754.917 461.584 746.103C430.343 741.592 410.043 726.029 401.504 700.033C395.179 680.782 396.516 631.208 404.823 576.875C410.551 539.42 411.542 527.698 411.51 497.906C411.476 468.308 410.802 460.457 407.126 446.926C402.044 428.22 391.572 405.611 373.791 374.955C347.729 330.026 335.506 297.681 320.902 235.01C305.642 169.525 298.225 145.961 284.68 119.929C259.502 71.5299 211.193 41.5277 141.546 31.0318C124.891 28.5228 101.13 27.6411 37.965 27.1953C-7.11725 26.8754 -45.5781 25.9498 -47.5014 25.1401C-50.7021 23.7906 -51 25.41 -51 44.1406ZM14.9741 84.1509C2.32904 84.9166 -17.6871 85.6603 -29.5084 85.8043L-51 86.0682V104.289V122.508L-42.5033 121.348C-19.5863 118.218 40.8539 115.623 67.7533 116.614C122.508 118.629 156.62 131.458 185.907 161.047C210.415 185.807 224.526 213.496 240.915 268.996C267.841 360.168 273.323 374.923 300.358 428.933C320.408 468.99 327.499 488.938 331.018 515.169C333.881 536.517 332.325 584.036 327.823 612.861C317.967 675.95 316.188 692.286 316.072 720.819C315.94 753.44 318.331 765.789 328.371 784.342C346.662 818.136 394.585 836.115 449.803 829.9C526.267 821.291 590.528 796.207 656.078 749.383C683.359 729.897 707.85 709.791 750.331 672.002C825.326 605.292 855.186 586.679 899.66 578.924C931.892 573.305 953.049 574.758 1044.57 588.882C1160.04 606.705 1252.72 613.485 1303.47 607.821C1348.23 602.827 1387.74 590.854 1431.55 569.016C1506.74 531.535 1565.73 480.795 1645.54 384.951C1656.52 371.756 1676.71 347.473 1690.41 330.988C1704.1 314.502 1733.3 280.766 1755.3 256.017C1801.28 204.29 1821.9 179.475 1848.98 143.288L1868.25 117.54V104.521V91.5L1851.71 115.275C1818.73 162.682 1800.8 185.047 1740.69 253.748C1724.01 272.807 1692.64 310.124 1670.98 336.676C1619.24 400.089 1609.07 411.726 1576.66 444.679C1490.51 532.257 1404.84 577.671 1310.04 586.02C1281.38 588.543 1258.25 587.455 1196.51 580.676C1111.95 571.391 1069.99 563.674 990.591 542.803C913.869 522.635 891.523 520.523 862.435 530.687C838.888 538.914 827.035 549.016 749.685 626.768C700.395 676.316 668.639 706.56 654.509 717.42C600.132 759.205 550.51 783.042 492.786 795.101C469.224 800.023 420.253 800.163 404.727 795.351C389.435 790.613 371.09 778.204 363.423 767.414C342.805 738.394 340.938 702.962 355.134 610.014C360.346 575.902 361.454 562.565 361.628 531.893C361.922 480.277 359.449 471.083 329.498 412.384C299.558 353.703 291.295 332.487 276.777 276.993C252.031 182.398 239.808 155.935 206.711 125.293C190.299 110.097 164.031 96.1882 140.375 90.1645C110.489 82.5535 71.9397 80.7063 14.9741 84.1509ZM1852.85 151.704C1832.58 179.192 1803.28 213.856 1756.26 265.969C1733.95 290.694 1693.59 337.475 1666.57 369.929C1613.37 433.821 1555.9 493.79 1522.38 520.369C1492.37 544.168 1459.87 564.894 1427.42 580.926C1332.43 627.853 1257.8 633.793 1066.56 609.644C991.184 600.128 958.581 597.881 929.063 600.176C901.452 602.321 877.603 609.025 851.645 621.935C825.713 634.83 803.92 650.608 749.869 695.615C674.395 758.46 642.725 780.685 595.746 803.768C539.45 831.433 474.969 848.093 422.814 848.45C370.624 848.808 333.011 832.727 312.759 801.393C294.724 773.488 293.345 737.43 306.885 647.847C314.1 600.12 315.518 585.838 315.62 559.882C315.804 512.88 310.998 494.995 281.785 433.931C260.044 388.487 251.837 367.919 239.904 328.973C215.045 247.837 202.25 216.657 184.12 193.026C165.065 168.19 137.86 150.401 105.822 141.828C84.8726 136.222 31.6955 134.583 -16.2477 138.066L-51 140.589V156.447C-51 170.613 -50.6261 172.192 -47.5014 171.263C-45.5761 170.689 -29.1586 169.177 -11.0157 167.902C80.4823 161.469 131.354 179.587 166.239 231.035C181.982 254.25 193.264 281.008 211.999 339.57C225.341 381.278 237.415 412.222 255.769 451.77C272.067 486.883 275.852 496.581 280.792 515.899C291.343 557.163 290.174 596.841 276.013 677.835C259.968 769.625 265.316 811.243 296.919 840.502C321.634 863.383 356.102 875.44 401.822 877.195C433.869 878.427 453.566 876.317 492.786 867.455C578.982 847.977 642.599 815.897 726.694 749.501C743.738 736.045 766.679 717.996 777.674 709.391C836.853 663.081 879.556 642.281 931.058 634.676C960.738 630.292 1015.52 631.812 1075.66 638.681C1231.1 656.442 1314.37 648.889 1404.71 608.837C1461.87 583.493 1517.79 543.914 1574.13 488.934C1602.16 461.576 1624.63 436.334 1701.54 345.828C1715.95 328.861 1738.89 302.927 1752.52 288.197C1798.07 238.938 1824.44 209.23 1846.43 182.422L1868.25 155.823V143.937C1868.25 137.4 1868.02 132.082 1867.75 132.12C1867.47 132.16 1860.77 140.973 1852.85 151.704ZM1856.26 183.602C1837.75 206.211 1806.53 241.135 1768.3 281.991C1733.82 318.847 1716.37 338.691 1645.28 421.936C1564.07 517.033 1500.82 569.784 1417.42 611.947C1363.29 639.315 1314.21 654.095 1258.49 659.805C1232.31 662.485 1150.26 662.577 1123.54 659.953C1112.54 658.873 1085.1 656.072 1062.56 653.727C1010.16 648.277 945.938 649.063 918.619 655.486C867.451 667.52 832.465 687.066 756.742 745.925C682.346 803.754 653.375 823.008 607.741 844.958C562.577 866.683 496.559 886.298 446.113 892.979C377.384 902.083 303.639 883.007 272.631 848.107C262.689 836.915 253.86 819.128 250.697 803.916C246.679 784.591 249.566 738.268 257.621 692.83C271.581 614.083 273.938 578.61 267.669 541.741C263.598 517.816 257.315 499.799 237.391 454.923C221.245 418.559 210.807 391.464 198.882 354.962C175.251 282.631 159.193 250.625 134.179 226.013C114.733 206.879 92.4516 195.475 61.7717 188.962C44.2246 185.235 -3.79856 184.156 -33.5069 186.819L-51 188.388V202.382V216.379L-25.51 215.005C35.6239 211.713 79.9765 224.074 110.566 252.933C125.894 267.391 141.518 290.016 151.884 312.761C159.247 328.921 163.991 341.598 181.884 392.947C188.782 412.74 198.672 439.279 203.862 451.924C209.052 464.569 217.213 484.47 221.997 496.145C248.12 559.896 249.094 603.383 226.835 712.218C211.577 786.813 211.147 819.748 225.045 849.026C232.379 864.472 250.705 882.015 270.23 892.273L284.452 899.748H413.259H542.067L555.911 894.984C606.731 877.499 656.11 851.975 701.704 819.622C710.501 813.38 736.141 794.084 758.682 776.741C807.922 738.855 834.618 720.907 862.641 706.848C922.841 676.648 979.155 670.456 1080.56 682.89C1157.85 692.368 1221.62 690.996 1281.48 678.565C1349.71 664.397 1428.46 628.193 1495.39 580.226C1553.97 538.244 1598.23 494.937 1675.19 404.301C1715.46 356.882 1735.38 334.792 1787.29 279.992C1812.81 253.052 1841.51 222.267 1851.07 211.581L1868.45 192.15L1867.85 181.165L1867.25 170.181L1856.26 183.602ZM1844.96 230.539C1832.7 243.994 1803.52 274.794 1780.11 298.984C1739.5 340.954 1722.82 359.507 1652.33 441.039C1552.84 556.119 1459.47 626.368 1347.45 670.416C1259.67 704.933 1185.43 713.144 1083.55 699.605C983.517 686.31 928.717 691.918 867.639 721.702C841.267 734.563 808.908 756.403 757.682 795.913C692.96 845.835 650.132 873.141 608.843 890.812L590.298 898.749L619.57 899.302L648.843 899.856L663.277 891.489C687.82 877.265 721.874 853.326 766.679 818.8C831.793 768.624 859.828 750.887 896.184 736.866C950.622 715.873 994.919 713.927 1081.49 728.734C1131.68 737.314 1157.08 739.089 1184.55 735.935C1285.99 724.285 1404.78 672.342 1509.39 593.9C1570.58 548.01 1603.76 515 1699.83 404.403C1733.25 365.932 1754.04 343.917 1815.58 281.837L1868.25 228.706V217.363C1868.25 211.125 1868.02 206.033 1867.75 206.049C1867.47 206.063 1857.22 217.085 1844.96 230.539ZM-51 245.451V259.39L-27.5092 260.572C24.2264 263.177 57.3254 275.678 83.4232 302.473C106.484 326.146 121.708 356.224 144.903 423.935C149.611 437.68 160.527 468.718 169.159 492.908C190.799 553.552 192.994 562.811 194.34 599.114C196.025 644.595 191.345 674.709 172.058 742.442C153.074 809.118 152.076 814.204 151.994 844.77C151.924 871.389 152.192 873.311 157.464 884.048C160.513 890.256 164.229 896.352 165.723 897.591C167.566 899.118 179.443 899.668 202.64 899.296L236.841 898.749L226.089 890.434C213.478 880.68 204.168 867.887 198.192 852.103C194.509 842.369 193.928 836.825 194.08 812.782C194.264 783.348 194.515 781.769 210.589 708.823C223.226 651.476 223.894 646.148 223.86 602.865C223.82 554.336 221.985 545.633 200.095 490.269C191.915 469.575 180.201 438.314 174.066 420.797C155.295 367.208 144.739 339.604 137.422 324.974C117.698 285.54 97.0838 262.949 68.1632 249.076C42.5232 236.777 26.6955 233.64 -15.514 232.485L-51 231.515V245.451ZM1801.22 308.301C1760.75 349.159 1716.29 396.618 1686.34 430.933C1614.58 513.162 1566.76 559.986 1513.39 600.294C1416.83 673.211 1289.84 734.593 1197.12 753.162C1185.01 755.587 1170.78 756.645 1151.53 756.549C1126.37 756.425 1118.99 755.475 1078.56 747.16C1025.29 736.205 996.694 733.256 968.095 735.769C906.154 741.213 859.834 763.31 779.673 825.649C734.281 860.951 719.541 871.919 697.94 886.453L678.179 899.748H698.757H719.333L730.511 891.376C736.658 886.771 757.536 870.608 776.909 855.46C857.815 792.186 900.244 770.431 955.696 763.78C989.675 759.705 1017.51 763.668 1073.86 780.603C1093.48 786.501 1116.28 792.448 1124.5 793.818C1165.89 800.705 1211.32 787.29 1307.47 739.787C1406.12 691.044 1486.09 640.36 1555.37 582.655C1591.21 552.801 1632.77 510.707 1690.34 445.927C1741.29 388.599 1778.19 350.494 1834.87 296.667L1868.47 264.76L1867.86 253.202L1867.25 241.645L1801.22 308.301ZM-51 291.843V305.694L-39.5045 306.979C18.5726 313.475 55.814 339.926 82.0477 393.317C92.2537 414.091 100.84 438.104 115.157 485.911C120.591 504.054 127.19 526.095 129.825 534.892C149.199 599.574 148.42 647.641 126.954 712.13C116.1 744.739 101.066 777.062 74.3287 825.278C61.6777 848.095 47.7072 873.958 43.2869 882.755L35.2461 898.749L78.3831 899.288C102.108 899.584 121.862 899.484 122.282 899.066C122.7 898.647 122.01 895.704 120.744 892.529C117.026 883.187 117.936 854.676 122.556 835.773C124.839 826.427 133.539 798.538 141.89 773.798C170.707 688.425 177.912 653.633 176.401 607.123C175.199 570.1 173.258 562.285 142.56 470.917C106.678 364.117 95.6903 341.756 65.2383 313.563C41.5936 291.671 3.4506 278.079 -34.5065 278.019L-51 277.993V291.843ZM1838.26 307.349C1785.03 356.994 1744.29 398.455 1691.31 456.922C1619.26 536.427 1584.17 570.46 1533.38 610.086C1464.08 664.145 1361.28 727.216 1253.49 781.805C1222.79 797.35 1191.94 811.519 1181.97 814.652C1147.18 825.585 1122.9 823.634 1078.56 806.339C1024.42 785.227 1002.53 779.795 971.598 779.795C912.757 779.795 866.093 801.745 777.266 871.209L742.05 898.749L758.052 899.324L774.054 899.9L799.856 880.478C834.93 854.074 854.85 841.331 879.116 829.778C909.181 815.461 928.263 810.865 957.604 810.867C994.809 810.869 1013.42 817.421 1067.24 849.464C1103.31 870.94 1123.14 876.215 1148.15 870.984C1170.09 866.393 1186.75 857.355 1246.76 817.509C1276.85 797.526 1328.91 763.646 1362.44 742.22C1542.53 627.171 1594.09 585.718 1694.96 474.915C1752.66 411.524 1804.5 360.904 1858.86 314.856L1868.45 306.735L1867.85 293.525L1867.25 280.312L1838.26 307.349ZM-51 340.952V357.677L-39.5905 360.994C-5.01208 371.046 22.3312 394.921 40.4301 430.859C60.0943 469.907 82.7874 568.93 82.9074 616.216C82.9973 651.042 74.8525 682.844 56.9416 717.598C38.8127 752.778 9.88606 786.383 -31.5077 820.345L-51 836.339V868.043V899.748H-39.2426H-27.4852L-2.9229 872.735C43.6508 821.511 70.4283 784.638 89.9066 744.899C121.81 679.817 129.859 624.187 116.102 563.88C103.295 507.738 83.1673 441.386 70.7341 414.319C46.2618 361.044 10.07 332.835 -43.5029 325.282L-51 324.227V340.952ZM1853.86 336.366C1801.69 379.395 1762.48 417.11 1699.55 484.783C1646.9 541.395 1612.43 574.22 1569.36 608.753C1528.52 641.5 1504.91 658.297 1410.43 721.836C1322.15 781.199 1285.47 807.145 1246.49 837.803C1203.3 871.771 1182.02 887.437 1170.77 893.539L1159.52 899.642L1189.55 899.694L1219.58 899.748L1239.53 879.612C1293.97 824.678 1336.08 791.513 1461.41 704.889C1597.04 611.138 1625.27 587.815 1721.3 490.157C1774.64 435.915 1807.24 406.358 1843.71 379.179L1868.15 360.96L1868.2 343.467C1868.22 333.847 1867.84 325.974 1867.35 325.974C1866.86 325.974 1860.78 330.65 1853.86 336.366ZM-51 404.717V427.482L-36.2958 442.202C-24.9862 453.524 -19.6943 460.847 -13.3808 473.916C8.42264 519.046 13.1068 590.432 -2.25516 643.463C-9.85617 669.705 -19.8043 687.146 -41.3318 711.978L-51 723.128V759.627V796.125L-42.5033 789.472C-26.1438 776.663 3.52856 746.666 15.5218 730.815C30.1921 711.426 45.1542 680.824 51.1998 657.843C63.9348 609.428 49.5925 501.953 23.1868 447.926C13.2148 427.522 0.84362 411.692 -13.7746 400.632C-24.9302 392.192 -44.2726 381.952 -49.0588 381.952C-50.2003 381.952 -51 391.318 -51 404.717ZM1855.48 397.056C1822.79 416.764 1790.1 444.277 1726.3 505.761C1701.56 529.606 1675.92 554.032 1669.32 560.042C1630.98 594.976 1579.82 633.581 1485.4 698.823C1368.63 779.497 1330.47 809.62 1276.48 863.702L1241.49 898.749L1256.37 899.344L1271.25 899.938L1282.23 887.349C1297.75 869.564 1332.42 835.084 1352.45 817.529C1402.95 773.26 1438.64 747.804 1599.35 641.394C1630.14 621.01 1672.67 591.855 1693.87 576.609C1770.87 521.213 1781.52 513.896 1795.66 506.681C1804.17 502.336 1814.04 498.956 1819.83 498.4C1828.75 497.542 1830.02 497.968 1834.15 503.18C1838.06 508.116 1838.52 510.447 1837.53 520.161C1836.89 526.353 1833.12 540.298 1829.15 551.149C1800.99 628.171 1797.6 641.256 1797.66 672.837C1797.7 698.102 1801.86 715.509 1813.38 738.724C1828.07 768.304 1846.39 789.41 1862.75 795.607L1868.25 797.688V593.819C1868.25 481.691 1868.02 389.951 1867.75 389.955C1867.47 389.957 1861.95 393.151 1855.48 397.056ZM-50.8561 564.88C-50.8381 664.859 -51.3739 662.072 -38.8008 627.623C-29.7304 602.767 -26.4297 580.546 -27.5532 551.885C-28.5748 525.803 -31.8755 509.997 -39.8704 492.908C-51.2479 468.586 -50.874 466.137 -50.8561 564.88ZM1709.24 602.843C1676 611.815 1593.6 657.264 1505.39 715.285C1427.11 766.773 1380.63 803.412 1332.36 851.675C1313.06 870.968 1295.23 889.676 1292.74 893.251L1288.2 899.748L1299.83 899.742L1311.46 899.736L1331.46 877.567C1392.22 810.195 1484.01 741.784 1573.84 696.94C1607.54 680.115 1632.92 671.506 1652.33 670.316C1685.41 668.289 1697.08 677.773 1721.04 726.182C1750.08 784.867 1775.43 823.574 1795.86 840.462C1813.21 854.792 1837.18 863.666 1858.75 863.732L1868.25 863.762V846.025V828.288L1859.99 826.967C1830.27 822.215 1805.93 797.782 1782.19 748.884C1769.22 722.156 1763.57 701.444 1758.45 661.842C1752.6 616.614 1749.4 607.793 1736.95 602.593C1728.96 599.252 1722.33 599.312 1709.24 602.843ZM1613.35 699.185C1563.74 710.283 1478.1 759.395 1412.11 814.596C1387.16 835.466 1348.73 872.699 1334.07 890.21L1326.09 899.748L1336.77 899.746L1347.45 899.742L1373.44 873.499C1464.72 781.323 1569.83 724.689 1623.9 738.542C1649.72 745.157 1662.04 756.584 1705.65 814.366C1720.76 834.386 1737.66 855.6 1743.21 861.505C1755.63 874.73 1774.12 888.135 1789.09 894.754C1799.69 899.44 1802.48 899.748 1834.32 899.748H1868.25L1868.23 890.252L1868.21 880.756L1851.06 880.398C1819.33 879.738 1791.83 867.373 1769.56 843.758C1756.5 829.914 1735.05 799.104 1709.17 757.002C1690.16 726.086 1675.12 708.959 1661.33 702.528C1653.15 698.715 1648.24 697.906 1634.34 698.08C1624.99 698.195 1615.54 698.693 1613.35 699.185ZM1561.37 761.611C1532.87 769.357 1502.8 783.962 1469.21 806.375C1440.11 825.795 1418.71 843.488 1388.43 873.175L1361.44 899.636L1373.23 899.692L1385.01 899.748L1401.3 884.11C1446.5 840.717 1501.68 805.943 1541.49 795.761C1563.18 790.211 1586.46 790.441 1602.76 796.367C1626.98 805.169 1643.29 818.888 1693 872.259L1718.6 899.748H1740.74H1762.88L1750.04 890.028C1734.77 878.465 1722.26 865.066 1696.59 832.775C1668.24 797.107 1644.33 773.886 1627.5 765.671C1615.16 759.649 1611.59 758.858 1594.51 758.362C1580.5 757.954 1571.61 758.826 1561.37 761.611ZM1541.95 812.83C1504.88 820.207 1464.71 843.068 1417.19 883.822L1399.79 898.749L1413.16 899.34L1426.53 899.934L1443.56 887.153C1466.72 869.766 1489.69 857.237 1512.39 849.61C1528.49 844.2 1534.27 843.23 1550.37 843.25C1582.76 843.292 1602.6 852.113 1640.35 883.255L1660.35 899.748H1678.8H1697.25L1673.29 875.538C1632.18 834 1609.68 818.4 1582.6 812.658C1566.7 809.288 1559.59 809.318 1541.95 812.83ZM917.419 832.747C889.554 838.808 858.276 854.576 818.664 882.529L795.677 898.749L813.968 899.32L832.257 899.892L851.947 888.906C888.369 868.586 923.479 860.334 951.002 865.624C967.356 868.766 989.045 879.47 1001.96 890.77L1012.23 899.748H1051.77H1091.31L1080.44 893.159C1074.46 889.534 1058.51 878.311 1045.01 868.217C1017.97 848.001 998.299 837.541 978.565 832.891C962.883 829.194 934.059 829.126 917.419 832.747ZM1514.67 865.714C1498.21 870.16 1477.41 879.738 1459.41 891.146L1447.41 898.749L1471.4 899.342C1489.19 899.784 1498.49 899.074 1507.39 896.599C1522.83 892.301 1549.75 892.239 1566.03 896.464C1583.39 900.97 1634.08 901.256 1630.4 896.825C1625.72 891.186 1596.08 873.475 1582.79 868.379C1564.11 861.215 1535.45 860.094 1514.67 865.714ZM897.627 888.715C891.03 890.168 881.134 893.197 875.636 895.444L865.64 899.53L917.619 899.55L969.599 899.572L961.602 895.316C944.283 886.102 920.586 883.656 897.627 888.715Z" fill="#4056A1" fill-opacity="0.045"/>
</svg>
