<svg width="400" height="800" viewBox="0 0 400 800" fill="none" xmlns="http://www.w3.org/2000/svg">
<g clip-path="url(#clip0)">
<rect width="400" height="800" fill="#4056A1"/>
<path fill-rule="evenodd" clip-rule="evenodd" d="M-1313.96 -0.0146967C-1306.51 0.73761 -1274.85 1.86875 -1243.58 2.49776C-1160.62 4.16677 -1139.53 6.66314 -1101.75 19.2915C-1055.09 34.8773 -1025.09 60.9615 -1007.32 101.37C-999.899 118.253 -995.863 130.926 -989.387 157.677C-986.485 169.662 -980.689 193.539 -976.508 210.738C-964.213 261.309 -954.139 285.722 -927.212 330.218C-891.855 388.642 -888.69 415.834 -905.247 518.988C-909.37 544.673 -910.727 580.873 -908.121 595.685C-901.954 630.761 -877.557 648.543 -838.749 646.244C-816.947 644.952 -804.639 641.471 -780.754 629.834C-723.489 601.94 -670.102 540.56 -649.269 478.663C-639.958 450.998 -638.866 441.92 -637.26 378.712C-636.423 345.787 -634.99 315.632 -634.074 311.701C-624.297 269.733 -604.72 242.103 -573.808 226.651C-554.055 216.777 -529.303 213.449 -509.398 217.993C-478.342 225.084 -452.462 251.836 -433.249 296.709C-417.117 334.383 -410.697 347.374 -400.464 363.042C-372.388 406.04 -330.298 432.628 -264.049 449.221C-206.404 463.66 -150.013 474.414 -118.849 476.908C-30.09 484.015 52.9523 446.693 135.942 362.392C162.702 335.212 172.395 323.967 222.772 261.667C242.642 237.096 272.117 201.312 288.274 182.147C326.564 136.726 347.637 108.805 376.573 65.1519L400.23 29.4629V18.2444C400.23 12.074 399.916 7.02589 399.534 7.02589C399.151 7.02589 395.371 12.8549 391.136 19.9813C364.267 65.1769 327.188 116.377 282.752 169.639C267.585 187.821 238.164 224.007 217.375 250.051C169.753 309.714 153.945 328.018 127.862 353.695C71.379 409.297 12.8223 442.599 -46.4615 452.838C-66.7972 456.35 -103.948 456.301 -128.23 452.731C-153.342 449.037 -219.932 432.471 -252.965 421.697C-296.79 407.403 -321.372 393.361 -343.819 369.797C-363.53 349.104 -374.201 330.035 -396.329 275.962C-401.96 262.203 -409.497 245.718 -413.079 239.33C-440.45 190.515 -480.261 167.605 -533.364 170.107C-600.867 173.287 -656.551 219.094 -677.248 288.471C-681.436 302.513 -681.512 304.126 -681.562 379.605L-681.612 456.444L-686.432 473.915C-703.565 536.015 -750.876 589.756 -803.246 606.6C-816.602 610.896 -836.167 611.012 -847.033 606.859C-858.203 602.592 -868.545 590.903 -872.97 577.551C-878.354 561.301 -877.441 527.563 -870.442 484.142C-862.17 432.84 -860.462 412.555 -862.719 392.512C-866.192 361.655 -873.385 344.692 -899.955 304.677C-927.385 263.366 -936.018 240.85 -953.04 166.213C-964.753 114.865 -971.301 92.7603 -980.9 72.1853C-995.341 41.2317 -1016.83 19.2844 -1048.03 3.63426L-1059.08 -1.90887L-1193.28 -1.64618C-1267.84 -1.50144 -1321.47 -0.775938 -1313.96 -0.0146967ZM-1004.27 4.88513C-968.491 32.8884 -952.32 68.8276 -930.532 168.745C-918.363 224.552 -905.494 256.045 -881.613 288.471C-858.923 319.28 -849.605 334.581 -844.148 350.001C-839.455 363.264 -838.636 368.415 -838.017 388.54C-837.28 412.512 -837.757 416.549 -849.209 483.249C-857.114 529.28 -854.998 557.01 -842.506 571.1C-835.223 579.313 -827.713 582.424 -815.164 582.424C-788.801 582.424 -756.077 560.202 -734.03 527.327C-709.243 490.366 -701.908 450.581 -708.458 388.606C-713.662 339.351 -711.937 305.67 -702.827 278.705C-697.351 262.497 -684.099 237.607 -673.641 223.885C-645.887 187.478 -610.297 163.452 -567.834 152.464C-553.059 148.64 -545.54 147.772 -526.333 147.67C-483.272 147.445 -451.008 159.428 -424.483 185.503C-404.945 204.713 -393.129 224.934 -374.241 271.495C-354.214 320.865 -343.483 339.238 -322.514 360.065C-307.164 375.311 -298.658 381.194 -275.082 392.865C-244.14 408.18 -170.976 430.551 -124.852 438.796C-100.716 443.112 -56.8114 443.098 -36.5317 438.77C29.9986 424.567 93.0174 384.207 151.803 318.15C169.172 298.633 188.158 275.48 228.891 224.141C238.249 212.347 260.174 185.408 277.614 164.278C313.767 120.472 330.735 98.4946 350.039 70.4627C364.321 49.7251 394.817 1.22724 394.817 -0.747347C394.817 -1.38529 391.771 -1.90887 388.047 -1.90887C381.836 -1.90887 380.912 -1.22625 376.845 6.36651C369.801 19.5167 331.401 76.6598 316.616 95.9929C309.196 105.696 290.409 128.848 274.865 147.443C259.322 166.04 232.695 198.945 215.692 220.567C170.495 278.044 153.187 298.258 126.92 324.244C56.792 393.628 -15.155 424.863 -89.0472 418.012C-135.097 413.741 -208.598 392.155 -245.747 371.989C-295.673 344.89 -318.322 317.219 -345.121 250.578C-350.177 238.004 -357.631 220.976 -361.684 212.742C-388.597 158.057 -424.873 129.468 -482.202 117.754C-508.628 112.356 -551.915 113.476 -578.66 120.254C-638.482 135.411 -681.353 165.53 -732.858 228.585C-757.033 258.178 -773.125 273.773 -782.731 276.913C-796.775 281.502 -816.539 275.163 -836.458 259.681C-864.547 237.848 -881.023 203.846 -896.974 134.793C-910.868 74.6531 -926.833 34.3412 -947.227 7.91937L-954.123 -1.01539L-983.591 -1.5068L-1013.06 -2L-1004.27 4.88513ZM-913.773 14.6204C-900.548 36.2515 -888.342 64.9553 -878.044 98.6286C-862.244 150.286 -856.958 165.223 -849.031 180.575C-835.281 207.206 -818.192 220.463 -797.791 220.32C-780.7 220.2 -765.063 211.164 -730.23 181.273C-685.694 143.056 -649.49 121.491 -607.531 108.182C-536.04 85.507 -458.337 93.1284 -404.986 128.047C-373.171 148.871 -353.723 176.579 -328.764 236.649C-302.344 300.236 -282.115 327.255 -242.139 352.344C-208.872 373.221 -151.492 393.311 -103.199 400.99C-8.94247 415.975 75.4875 375.558 162.462 273.82C169.856 265.169 191.208 238.794 209.909 215.206C228.611 191.618 256.094 157.845 270.982 140.154C311.637 91.8454 347.421 42.781 368.399 6.57916L373.316 -1.90887H366.385C359.481 -1.90887 359.397 -1.82131 345.279 20.2422C320.939 58.2775 298.536 87.8122 261.094 131.219C251.769 142.03 227.567 171.381 207.312 196.443C160.609 254.231 145.322 271.677 121.105 294.836C55.7943 357.293 -9.9908 384.2 -80.3085 377.214C-148.89 370.401 -211.278 343.754 -248.169 305.515C-270.085 282.795 -282.546 261.549 -302.422 213.001C-320.551 168.722 -334.398 145.815 -355.706 124.856C-407.067 74.3386 -503.714 53.9709 -600.313 73.3093C-627.462 78.7434 -651.455 86.0789 -693.643 101.843C-739.572 119.005 -749.853 121.843 -766.319 121.904C-792.944 122 -809.65 106.741 -837.863 56.5513C-842.953 47.495 -852.854 30.6369 -859.863 19.0878L-872.607 -1.90887H-898.242H-923.878L-913.773 14.6204ZM-838.251 0.324824C-832.374 9.98866 -805.236 43.8425 -796.714 52.1393C-782.95 65.5414 -775.615 70.3197 -761.602 75.0176C-742.647 81.3702 -718.915 79.5029 -663.467 67.2926C-607.293 54.9234 -590.773 52.1947 -558.249 49.9181C-487.9 44.9915 -412.271 61.2777 -365.452 91.4326C-330.794 113.757 -310.969 141.121 -286.485 200.44C-270.441 239.31 -264.416 251.463 -252.135 269.733C-222.409 313.951 -173.589 343.8 -108.612 357.485C-83.9642 362.676 -35.7162 363.192 -15.0756 358.484C49.8993 343.666 105.094 304.787 169.402 228.542C178.904 217.277 197.572 194.79 210.887 178.573C224.2 162.357 244.055 138.635 255.008 125.858C282.888 93.3375 302.098 69.5638 315.649 50.8062C327.401 34.5378 349.707 0.589293 349.707 -1.02969C349.707 -1.51216 346.583 -1.90887 342.765 -1.90887C335.963 -1.90887 335.573 -1.53897 323.525 16.4074C306.055 42.4272 287.276 66.6458 262.213 95.48C250.253 109.24 227.541 135.776 211.74 154.449C134.497 245.743 100.341 278.033 51.5286 305.906C-32.0749 353.646 -139.231 342.417 -203.035 279.23C-225.235 257.247 -237.407 236.333 -258.431 184.065C-278.633 133.835 -290.04 113.807 -309.964 93.593C-342.853 60.2234 -398.617 37.0896 -474.005 25.5405C-504.566 20.8605 -577.61 20.948 -619.259 25.7174C-659.283 30.3009 -706.111 30.5064 -722.111 26.1677C-737.858 21.8987 -753.403 14.4703 -765.368 5.49805L-775.243 -1.90887H-807.427C-832.696 -1.90887 -839.318 -1.42818 -838.251 0.324824ZM-713.63 -0.11834C-711.448 0.762627 -703.329 2.84085 -695.586 4.50093C-684.021 6.97943 -674.112 7.39579 -640.01 6.8329C-617.184 6.45407 -574.555 6.20747 -545.279 6.28252C-499.622 6.40046 -488.583 6.97407 -467.689 10.3246C-398.028 21.4948 -345.432 40.2971 -310.1 66.6636C-283.786 86.3004 -265.957 112.479 -248.49 157.13C-228.467 208.315 -219.784 227.239 -209.132 242.904C-182.252 282.434 -140.458 308.408 -89.8809 317.016C-10.0287 330.604 72.1007 293.253 152.868 206.618C173.272 184.731 269.847 73.4433 288.081 50.8062C295.206 41.9608 306.757 26.4822 313.75 16.4074L326.464 -1.90887H317.684H308.902L291.609 20.8748C267.651 52.4359 174.277 157.913 142.389 189.434C104.098 227.284 74.1703 249.678 37.5445 267.882C3.33474 284.884 -22.9319 291.559 -55.3878 291.494C-80.8227 291.444 -102.003 286.659 -123.95 276.003C-167.58 254.821 -189.535 224.33 -215.975 148.195C-229.443 109.411 -239.304 89.2525 -253.36 71.7564C-273.732 46.4032 -309.984 24.6452 -360.327 7.55841L-385.589 -1.01539L-551.594 -1.36921C-650.878 -1.58007 -716.004 -1.07793 -713.63 -0.11834ZM-329.652 -0.104044C-327.667 0.75548 -317.054 5.13887 -306.065 9.63663C-278.568 20.8926 -258.317 33.6479 -242.139 49.902C-220.773 71.3705 -214.069 85.096 -192.597 151.365C-177.84 196.906 -166.057 218.233 -144.461 238.492C-129.726 252.314 -118.031 259.576 -100.023 266.084C-31.3008 290.921 50.4894 260.165 137.449 176.786C157.395 157.662 170.048 143.999 240.055 65.9953C266.004 37.0824 290.548 7.6281 293.972 1.28978C295.549 -1.62831 294.692 -1.90887 284.173 -1.90887H272.642L261.132 11.0465C230.443 45.5901 151.379 129.695 134.268 145.997C60.4063 216.376 -10.0936 250.051 -63.8559 240.632C-102.514 233.862 -131.494 209.345 -147.645 169.748C-151.651 159.925 -155.628 145.08 -168.984 90.1192C-174.6 67.0067 -184.675 45.2291 -195.262 33.3173C-204.176 23.2889 -220.52 11.4557 -236.222 3.66285L-247.449 -1.90887L-290.354 -1.78735C-316.516 -1.71409 -331.854 -1.05649 -329.652 -0.104044ZM-176.942 5.07454C-152.685 22.2757 -145.89 38.8015 -137.535 100.914C-130.859 150.536 -121.92 174.151 -102.33 193.92C-72.1274 224.396 -28.5672 228.072 21.3048 204.354C41.6459 194.679 50.7527 189.15 73.6326 172.58C107.617 147.968 135.522 121.612 203.526 49.8967C218.895 33.689 236.278 15.4031 242.155 9.25958L252.841 -1.90887H222.989H193.137L168.12 22.6671C154.36 36.1836 126.457 64.1655 106.112 84.8512C46.6261 145.334 11.7271 167.852 -22.526 167.852C-39.1554 167.852 -47.5838 165.128 -57.3799 156.588C-77.3041 139.221 -82.602 109.336 -72.602 70.7236C-68.1451 53.5117 -55.5755 26.8217 -44.6174 11.2967C-40.1172 4.92265 -36.4362 -0.656212 -36.4362 -1.10116C-36.4362 -1.54611 -70.2653 -1.90887 -111.613 -1.90887H-186.79L-176.942 5.07454ZM-1332 37.4541V55.7561L-1264.79 54.4891C-1174.24 52.7826 -1152.97 55.4862 -1115.52 73.463C-1098.72 81.5257 -1094.69 84.4474 -1079.31 99.7294C-1064.1 114.856 -1060.9 119.18 -1052.74 135.686C-1041.66 158.12 -1035.87 175.752 -1022.76 227.044C-1009.13 280.369 -1003.42 296.192 -984.821 332.251C-956.175 387.788 -953.353 393.806 -948.334 410.06C-943.665 425.19 -943.396 427.975 -943.426 460.912C-943.455 490.546 -944.3 501.383 -949.076 533.378C-959.976 606.377 -960.426 622.838 -952.25 649.66C-946.844 667.399 -930.386 684.039 -911.92 690.437C-876.05 702.863 -816.021 693.401 -764.648 667.222C-700.577 634.573 -646.726 581.876 -572.276 478.972C-536.284 429.225 -524.353 419.056 -501.973 419.043C-487.549 419.036 -479.149 421.801 -439.346 439.654C-358.849 475.758 -318.427 487.035 -219.583 500.959C-143.737 511.643 -117.046 513.058 -81.0032 508.307C-12.1795 499.236 56.2363 463.567 120.291 403.365C149.327 376.073 173.808 348.534 228.774 281.323C244.044 262.649 271.264 230.484 289.259 209.845C336.365 155.818 360.156 125.41 391.004 79.7995C400.043 66.4367 400.38 65.4985 399.864 55.195L399.328 44.4822L379.102 74.7514C356.015 109.306 328.846 145.475 304.333 174.29C262.173 223.846 241.74 248.359 211.392 285.79C170.712 335.963 152.808 356.177 125.827 382.391C63.7445 442.712 -1.47036 478.175 -68.0133 487.804C-90.4908 491.056 -129.365 490.269 -159.004 485.963C-192.158 481.147 -261.998 467.589 -288.449 460.835C-341.271 447.347 -381.125 425.798 -410.867 394.641C-427.334 377.39 -435.562 364.709 -454.339 327.641C-462.843 310.852 -473.942 291.641 -479.005 284.947C-515.142 237.158 -576.598 249.857 -596.47 309.216C-601.769 325.044 -604.102 343.293 -606.611 388.54C-608.576 423.968 -611.091 439.554 -618.725 463.558C-629.669 497.968 -655.876 541.414 -685.707 574.594C-742.075 637.295 -814.226 672.766 -869.363 664.887C-897.56 660.855 -915.882 646.944 -923.589 623.708C-929.298 606.502 -928.091 562.191 -920.594 513.627C-915.424 480.148 -914.529 469.671 -914.558 443.042C-914.588 416.586 -915.197 409.569 -918.515 397.475C-923.102 380.754 -932.553 360.546 -948.602 333.145C-972.124 292.986 -983.156 264.075 -996.337 208.058C-1010.11 149.526 -1016.8 128.464 -1029.03 105.196C-1051.75 61.9353 -1095.36 35.1186 -1158.22 25.7371C-1173.25 23.4944 -1194.69 22.7064 -1251.7 22.3079C-1292.39 22.022 -1327.11 21.1946 -1328.84 20.4709C-1331.73 19.2647 -1332 20.7122 -1332 37.4541ZM-1272.45 73.2164C-1283.87 73.9008 -1301.93 74.5655 -1312.6 74.6942L-1332 74.9301V91.2163V107.501L-1324.33 106.464C-1303.65 103.666 -1249.1 101.347 -1224.82 102.233C-1175.4 104.034 -1144.61 115.501 -1118.18 141.948C-1096.06 164.079 -1083.32 188.829 -1068.53 238.436C-1044.23 319.928 -1039.28 333.116 -1014.88 381.392C-996.783 417.196 -990.383 435.026 -987.207 458.472C-984.623 477.554 -986.027 520.028 -990.09 545.792C-998.986 602.183 -1000.59 616.784 -1000.7 642.287C-1000.82 671.445 -998.658 682.483 -989.596 699.066C-973.087 729.272 -929.834 745.343 -879.996 739.787C-810.983 732.092 -752.984 709.671 -693.821 667.819C-669.198 650.402 -647.094 632.43 -608.752 598.653C-541.065 539.026 -514.115 522.39 -473.974 515.458C-444.883 510.435 -425.787 511.734 -343.185 524.359C-238.965 540.29 -155.318 546.349 -109.515 541.287C-69.1158 536.823 -33.4499 526.121 6.08826 506.602C73.9502 473.1 127.189 427.748 199.221 342.079C209.138 330.285 227.363 308.581 239.723 293.846C252.081 279.111 278.436 248.956 298.29 226.835C339.786 180.6 358.397 158.42 382.839 126.074L400.23 103.06V91.4236V79.7852L385.306 101.036C355.544 143.41 339.36 163.4 285.105 224.807C270.053 241.842 241.74 275.197 222.186 298.93C175.484 355.61 166.312 366.012 137.056 395.466C59.3038 473.746 -18.0185 514.338 -103.585 521.8C-129.448 524.055 -150.323 523.083 -206.05 517.024C-282.368 508.725 -320.242 501.827 -391.904 483.172C-461.15 465.145 -481.318 463.258 -507.572 472.343C-528.824 479.696 -539.523 488.726 -609.335 558.222C-653.823 602.51 -682.484 629.543 -695.238 639.249C-744.316 676.598 -789.103 697.904 -841.201 708.683C-862.468 713.083 -906.667 713.208 -920.68 708.907C-934.482 704.672 -951.039 693.58 -957.959 683.936C-976.568 657.996 -978.253 626.326 -965.44 543.247C-960.736 512.756 -959.736 500.836 -959.58 473.42C-959.314 427.285 -961.546 419.067 -988.578 366.6C-1015.6 314.149 -1023.06 295.186 -1036.16 245.584C-1058.5 161.033 -1069.53 137.379 -1099.4 109.99C-1114.21 96.4074 -1137.92 83.9756 -1159.27 78.5915C-1186.25 71.7886 -1221.04 70.1375 -1272.45 73.2164ZM386.338 133.597C368.043 158.166 341.594 189.15 299.156 235.731C279.021 257.83 242.595 299.645 218.207 328.652C170.194 385.761 118.319 439.363 88.0679 463.12C60.9819 484.392 31.6459 502.918 2.3586 517.247C-83.376 559.192 -150.731 564.501 -323.337 542.917C-391.368 534.411 -420.795 532.402 -447.437 534.454C-472.357 536.371 -493.882 542.363 -517.31 553.903C-540.715 565.429 -560.385 579.531 -609.169 619.759C-677.289 675.932 -705.873 695.798 -748.275 716.43C-799.085 741.157 -857.282 756.048 -904.356 756.368C-951.46 756.688 -985.408 742.314 -1003.69 714.307C-1019.96 689.364 -1021.21 657.135 -1008.99 577.064C-1002.48 534.404 -1001.2 521.638 -1001.1 498.438C-1000.94 456.426 -1005.28 440.44 -1031.64 385.86C-1051.27 345.24 -1058.67 326.856 -1069.44 292.045C-1091.88 219.523 -1103.43 191.654 -1119.79 170.532C-1136.99 148.333 -1161.54 132.432 -1190.46 124.77C-1209.37 119.759 -1257.36 118.294 -1300.63 121.407L-1332 123.662V137.836C-1332 150.498 -1331.66 151.91 -1328.84 151.079C-1327.1 150.566 -1312.29 149.215 -1295.91 148.075C-1213.33 142.325 -1167.41 158.52 -1135.93 204.506C-1121.72 225.256 -1111.54 249.172 -1094.63 301.517C-1082.59 338.797 -1071.69 366.455 -1055.12 401.805C-1040.41 433.189 -1037 441.857 -1032.54 459.125C-1023.02 496.007 -1024.07 531.473 -1036.85 603.868C-1051.33 685.912 -1046.51 723.111 -1017.98 749.263C-995.677 769.715 -964.567 780.492 -923.302 782.061C-894.377 783.162 -876.6 781.276 -841.201 773.355C-763.404 755.945 -705.986 727.271 -630.086 667.925C-614.703 655.897 -593.998 639.764 -584.073 632.073C-530.661 590.68 -492.119 572.089 -445.636 565.291C-418.848 561.372 -369.403 562.73 -315.127 568.87C-174.832 584.746 -99.6734 577.995 -18.1413 542.195C33.4485 519.542 83.9214 484.165 134.77 435.022C160.069 410.57 180.352 388.008 249.764 307.11C262.778 291.945 283.483 268.764 295.777 255.598C336.892 211.569 360.697 185.015 380.542 161.054L400.23 137.279V126.655C400.23 120.812 400.028 116.059 399.779 116.093C399.53 116.128 393.484 124.005 386.338 133.597ZM389.411 162.108C372.708 182.317 344.528 213.533 310.024 250.051C278.9 282.994 263.155 300.731 198.994 375.138C125.697 460.138 68.6038 507.288 -6.66345 544.975C-55.5178 569.437 -99.8159 582.648 -150.114 587.751C-173.742 590.148 -247.797 590.23 -271.911 587.884C-281.835 586.919 -306.601 584.415 -326.946 582.319C-374.237 577.448 -432.206 578.15 -456.863 583.891C-503.045 594.647 -534.622 612.118 -602.966 664.728C-670.113 716.417 -696.261 733.627 -737.448 753.246C-778.211 772.665 -837.797 790.197 -883.327 796.169C-945.359 804.307 -1011.92 787.256 -1039.9 756.061C-1048.88 746.057 -1056.85 730.159 -1059.7 716.562C-1063.33 699.289 -1060.72 657.884 -1053.45 617.27C-1040.85 546.884 -1038.72 515.178 -1044.38 482.223C-1048.06 460.838 -1053.73 444.734 -1071.71 404.623C-1086.28 372.12 -1095.7 347.901 -1106.47 315.275C-1127.8 250.623 -1142.29 222.016 -1164.87 200.017C-1182.42 182.914 -1202.53 172.721 -1230.22 166.899C-1246.05 163.568 -1289.4 162.603 -1316.21 164.983L-1332 166.386V178.895V191.405L-1308.99 190.178C-1253.82 187.235 -1213.79 198.283 -1186.18 224.078C-1172.34 237.001 -1158.24 257.224 -1148.89 277.554C-1142.24 291.998 -1137.96 303.329 -1121.81 349.227C-1115.58 366.918 -1106.66 390.64 -1101.97 401.942C-1097.29 413.245 -1089.92 431.032 -1085.6 441.468C-1062.03 498.45 -1061.15 537.32 -1081.24 634.6C-1095.01 701.275 -1095.4 730.713 -1082.85 756.883C-1076.23 770.689 -1059.69 786.369 -1042.07 795.538L-1029.24 802.219H-912.979H-796.723L-784.227 797.961C-738.359 782.332 -693.792 759.518 -652.641 730.6C-644.702 725.021 -621.56 707.774 -601.215 692.272C-556.773 658.409 -532.679 642.366 -507.386 629.8C-453.052 602.806 -402.225 597.272 -310.706 608.385C-240.942 616.857 -183.387 615.631 -129.363 604.52C-67.7805 591.856 3.30049 559.496 63.7084 516.622C116.579 479.097 156.527 440.388 225.989 359.375C262.328 316.991 280.308 297.247 327.163 248.264C350.194 224.185 376.1 196.668 384.727 187.117L400.414 169.749L399.871 159.93L399.328 150.112L389.411 162.108ZM379.211 204.062C368.144 216.089 341.809 243.618 320.685 265.24C284.034 302.754 268.972 319.337 205.354 392.212C115.558 495.075 31.285 557.864 -69.8177 597.236C-149.046 628.088 -216.047 635.427 -307.999 623.326C-398.288 611.443 -447.749 616.455 -502.875 643.077C-526.677 654.573 -555.883 674.093 -602.118 709.409C-660.533 754.031 -699.187 778.437 -736.454 794.232L-753.192 801.326L-726.771 801.821L-700.351 802.316L-687.323 794.838C-665.173 782.123 -634.436 760.726 -593.998 729.866C-535.228 685.017 -509.925 669.163 -477.112 656.631C-427.978 637.866 -387.998 636.128 -309.861 649.362C-264.567 657.031 -241.639 658.618 -216.843 655.798C-125.289 645.386 -18.0709 598.957 76.3393 528.844C131.57 487.827 161.514 458.321 248.229 359.466C278.393 325.08 297.157 305.402 352.695 249.914L400.23 202.424V192.285C400.23 186.709 400.028 182.158 399.779 182.172C399.53 182.185 390.275 192.036 379.211 204.062ZM-1332 217.391V229.85L-1310.8 230.906C-1264.1 233.234 -1234.23 244.408 -1210.68 268.359C-1189.86 289.518 -1176.12 316.403 -1155.19 376.925C-1150.94 389.21 -1141.08 416.953 -1133.29 438.575C-1113.76 492.78 -1111.78 501.056 -1110.57 533.505C-1109.05 574.156 -1113.27 601.073 -1130.68 661.615C-1147.81 721.212 -1148.71 725.758 -1148.79 753.078C-1148.85 776.872 -1148.61 778.589 -1143.85 788.187C-1141.1 793.735 -1137.74 799.183 -1136.4 800.291C-1134.73 801.657 -1124.01 802.148 -1103.07 801.816L-1072.21 801.326L-1081.91 793.894C-1093.29 785.176 -1101.7 773.741 -1107.09 759.633C-1110.41 750.932 -1110.94 745.977 -1110.8 724.487C-1110.64 698.178 -1110.41 696.766 -1095.9 631.566C-1084.49 580.307 -1083.89 575.545 -1083.92 536.857C-1083.96 493.481 -1085.62 485.702 -1105.37 436.216C-1112.76 417.719 -1123.33 389.777 -1128.87 374.119C-1145.81 326.22 -1155.33 301.548 -1161.94 288.471C-1179.74 253.223 -1198.35 233.031 -1224.45 220.631C-1247.59 209.638 -1261.88 206.834 -1299.97 205.801L-1332 204.934V217.391ZM339.737 273.568C303.209 310.088 263.083 352.508 236.053 383.179C171.278 456.678 128.12 498.531 79.9481 534.559C-7.19394 599.735 -121.812 654.599 -205.5 671.197C-216.428 673.364 -229.275 674.309 -246.65 674.224C-269.358 674.113 -276.016 673.264 -312.51 665.832C-360.587 656.04 -386.395 653.404 -412.207 655.65C-468.113 660.516 -509.92 680.267 -582.269 735.988C-623.238 767.542 -636.542 777.345 -656.039 790.336L-673.873 802.219H-655.301H-636.73L-626.641 794.736C-621.093 790.62 -602.249 776.173 -584.765 762.633C-511.742 706.078 -473.447 686.632 -423.398 680.687C-392.731 677.045 -367.608 680.587 -316.753 695.724C-299.037 700.996 -278.467 706.312 -271.04 707.536C-233.687 713.692 -192.683 701.702 -105.906 659.242C-16.862 615.674 55.3089 570.371 117.841 518.793C150.192 492.108 187.696 454.484 239.661 396.581C285.649 345.341 318.951 311.281 370.108 263.169L400.43 234.65L399.88 224.319L399.328 213.989L339.737 273.568ZM-1332 258.857V271.237L-1321.62 272.386C-1269.21 278.192 -1235.59 301.835 -1211.92 349.558C-1202.71 368.126 -1194.96 389.589 -1182.03 432.32C-1177.13 448.537 -1171.17 468.238 -1168.8 476.101C-1151.31 533.916 -1152.01 576.879 -1171.39 634.521C-1181.18 663.668 -1194.75 692.56 -1218.88 735.656C-1230.3 756.05 -1242.91 779.168 -1246.9 787.03L-1254.16 801.326L-1215.22 801.808C-1193.81 802.073 -1175.98 801.984 -1175.6 801.61C-1175.23 801.235 -1175.85 798.604 -1176.99 795.767C-1180.35 787.416 -1179.53 761.933 -1175.36 745.037C-1173.3 736.683 -1165.44 711.755 -1157.91 689.641C-1131.9 613.333 -1125.39 582.235 -1126.76 540.663C-1127.84 507.571 -1129.59 500.586 -1157.3 418.918C-1189.69 323.458 -1199.6 303.47 -1227.09 278.271C-1248.43 258.704 -1282.86 246.554 -1317.11 246.501L-1332 246.477V258.857ZM373.164 272.717C325.12 317.091 288.355 354.15 240.535 406.41C175.509 477.473 143.835 507.892 97.9922 543.312C35.4514 591.631 -57.333 648.006 -154.625 696.798C-182.33 710.694 -210.172 723.358 -219.172 726.158C-250.572 735.931 -272.483 734.187 -312.51 718.728C-361.368 699.858 -381.127 695.002 -409.046 695.002C-462.153 695.002 -504.27 714.621 -584.442 776.711L-616.226 801.326L-601.784 801.841L-587.341 802.355L-564.054 784.995C-532.397 761.395 -514.418 750.005 -492.516 739.678C-465.381 726.882 -448.158 722.773 -421.677 722.775C-388.097 722.777 -371.3 728.633 -322.723 757.274C-290.166 776.469 -272.267 781.185 -249.701 776.509C-229.899 772.406 -214.856 764.327 -160.698 728.711C-133.54 710.851 -86.5536 680.567 -56.2846 661.417C106.253 558.583 152.792 521.53 243.826 422.492C295.908 365.832 342.693 320.586 391.758 279.427L400.411 272.168L399.869 260.36L399.328 248.55L373.164 272.717ZM-1332 302.752V317.702L-1321.7 320.666C-1290.49 329.651 -1265.81 350.991 -1249.48 383.113C-1231.73 418.016 -1211.25 506.525 -1211.14 548.79C-1211.06 579.919 -1218.41 608.344 -1234.58 639.408C-1250.94 670.853 -1277.05 700.89 -1314.41 731.247L-1332 745.543V773.88V802.219H-1321.39H-1310.78L-1288.61 778.074C-1246.57 732.289 -1222.4 699.33 -1204.82 663.811C-1176.03 605.639 -1168.76 555.915 -1181.18 502.012C-1192.74 451.83 -1210.91 392.523 -1222.13 368.33C-1244.22 320.711 -1276.88 295.497 -1325.23 288.746L-1332 287.802V302.752ZM387.242 298.653C340.161 337.113 304.77 370.824 247.971 431.313C200.457 481.914 169.344 511.254 130.471 542.12C93.6075 571.39 72.3009 586.404 -12.9789 643.197C-92.6525 696.257 -125.756 719.448 -160.94 746.851C-199.924 777.213 -219.132 791.215 -229.284 796.669L-239.432 802.125L-212.332 802.171L-185.231 802.219L-167.221 784.221C-118.091 735.119 -80.0776 705.476 33.0335 628.049C155.45 544.252 180.928 523.405 267.606 436.116C315.75 387.632 345.172 361.214 378.081 336.92L400.14 320.636L400.185 305C400.21 296.401 399.866 289.364 399.422 289.364C398.976 289.364 393.496 293.544 387.242 298.653ZM-1332 359.747V380.095L-1318.73 393.252C-1308.52 403.372 -1303.74 409.917 -1298.05 421.599C-1278.37 461.937 -1274.14 525.744 -1288 573.145C-1294.87 596.6 -1303.84 612.19 -1323.27 634.385L-1332 644.351V676.976V709.598L-1324.33 703.651C-1309.57 692.202 -1282.78 665.391 -1271.96 651.222C-1258.72 633.892 -1245.22 606.539 -1239.76 585.998C-1228.26 542.724 -1241.21 446.659 -1265.04 398.368C-1274.04 380.131 -1285.21 365.982 -1298.4 356.096C-1308.47 348.552 -1325.93 339.399 -1330.25 339.399C-1331.28 339.399 -1332 347.771 -1332 359.747ZM388.705 352.899C359.205 370.515 329.698 395.107 272.117 450.063C249.788 471.376 226.646 493.209 220.692 498.581C186.089 529.806 139.908 564.312 54.6864 622.627C-50.6982 694.736 -85.1461 721.66 -133.874 770.001L-165.451 801.326L-152.021 801.858L-138.591 802.389L-128.679 791.137C-114.679 775.24 -83.3832 744.42 -65.3067 728.729C-19.7238 689.161 12.4831 666.408 157.538 571.295C185.325 553.075 223.712 527.016 242.843 513.389C312.347 463.874 321.959 457.334 334.719 450.885C342.401 447.002 351.307 443.98 356.535 443.483C364.581 442.717 365.732 443.098 369.458 447.756C372.987 452.168 373.404 454.252 372.504 462.934C371.93 468.469 368.529 480.933 364.947 490.632C339.525 559.476 336.468 571.172 336.518 599.4C336.558 621.982 340.309 637.541 350.714 658.291C363.971 684.731 380.503 703.596 395.268 709.135L400.23 710.996V528.771C400.23 428.548 400.028 346.549 399.779 346.552C399.53 346.554 394.548 349.409 388.705 352.899ZM-1331.87 502.905C-1331.85 592.269 -1332.34 589.778 -1320.99 558.987C-1312.8 536.77 -1309.82 516.908 -1310.84 491.29C-1311.76 467.977 -1314.74 453.85 -1321.95 438.575C-1332.22 416.835 -1331.89 414.646 -1331.87 502.905ZM256.722 536.837C226.715 544.857 152.348 585.48 72.7305 637.341C2.07894 683.362 -39.8736 716.112 -83.4392 759.25C-100.855 776.495 -116.949 793.217 -119.199 796.412L-123.293 802.219L-112.795 802.214L-102.297 802.209L-84.2529 782.393C-29.4134 722.175 53.4395 661.027 134.508 620.944C164.925 605.905 187.833 598.21 205.354 597.147C235.214 595.335 245.741 603.812 267.366 647.082C293.583 699.536 316.457 734.133 334.9 749.227C350.553 762.036 372.195 769.969 391.659 770.027L400.23 770.054V754.2V738.347L392.776 737.165C365.956 732.918 343.983 711.08 322.561 667.372C310.851 643.483 305.753 624.97 301.132 589.572C295.854 549.146 292.967 541.262 281.731 536.614C274.515 533.628 268.536 533.682 256.722 536.837ZM170.168 622.951C125.396 632.87 48.1039 676.768 -11.4577 726.108C-33.9785 744.762 -68.6593 778.042 -81.891 793.694L-89.0995 802.219L-79.4586 802.218L-69.8177 802.214L-46.3604 778.757C36.0234 696.368 130.89 645.747 179.696 658.129C203.001 664.042 214.122 674.256 253.48 725.902C267.117 743.797 282.372 762.758 287.375 768.037C298.586 779.858 315.281 791.839 328.79 797.756C338.355 801.944 340.871 802.219 369.608 802.219H400.23L400.212 793.731L400.196 785.243L384.719 784.924C356.084 784.334 331.26 773.282 311.157 752.174C299.373 739.799 280.017 712.261 256.655 674.629C239.501 646.996 225.926 631.687 213.474 625.938C206.092 622.531 201.662 621.807 189.115 621.962C180.679 622.066 172.153 622.511 170.168 622.951ZM123.254 678.748C97.5301 685.673 70.3956 698.726 40.0797 718.76C13.8112 736.118 -5.49965 751.933 -32.8274 778.467L-57.1869 802.119L-46.5517 802.169L-35.9184 802.219L-21.216 788.242C19.5798 749.456 69.3797 718.374 105.311 709.273C124.892 704.312 145.905 704.518 160.614 709.814C182.471 717.682 197.195 729.944 242.061 777.649L265.17 802.219H285.152H305.134L293.545 793.531C279.759 783.196 268.469 771.219 245.302 742.357C219.712 710.476 198.133 689.72 182.942 682.378C171.805 676.995 168.582 676.288 153.169 675.844C140.52 675.48 132.496 676.259 123.254 678.748ZM105.731 724.53C72.2739 731.124 36.0144 751.558 -6.87091 787.985L-22.5783 801.326L-10.5122 801.855L1.55388 802.386L16.9238 790.962C37.8333 775.421 58.5658 764.222 79.0458 757.404C93.5767 752.569 98.7987 751.702 113.33 751.72C142.561 751.758 160.468 759.642 194.541 787.477L212.588 802.219H229.243H245.898L224.272 780.579C187.17 743.452 166.863 729.508 142.42 724.376C128.066 721.363 121.655 721.39 105.731 724.53ZM-457.946 742.331C-483.095 747.75 -511.325 761.843 -547.078 786.828L-567.825 801.326L-551.316 801.837L-534.81 802.348L-517.038 792.529C-484.165 774.366 -452.476 766.99 -427.635 771.718C-412.875 774.527 -393.299 784.094 -381.639 794.194L-372.375 802.219H-336.684H-300.995L-310.812 796.33C-316.211 793.09 -330.601 783.058 -342.787 774.036C-367.189 755.966 -384.947 746.617 -402.758 742.46C-416.912 739.156 -442.927 739.095 -457.946 742.331ZM81.1066 771.798C66.2545 775.773 47.4742 784.334 31.2291 794.53L20.4026 801.326L42.0555 801.857C58.1093 802.252 66.5088 801.617 74.5348 799.405C88.4738 795.563 112.768 795.508 127.46 799.283C143.133 803.311 188.88 803.567 185.562 799.607C181.338 794.566 154.582 778.735 142.588 774.18C125.733 767.778 99.8652 766.775 81.1066 771.798ZM-475.809 792.357C-481.764 793.656 -490.695 796.364 -495.658 798.372L-504.68 802.025L-457.765 802.043L-410.851 802.062L-418.068 798.258C-433.7 790.022 -455.087 787.836 -475.809 792.357Z" fill="#002E72" fill-opacity="0.2"/>
</g>
<defs>
<clipPath id="clip0">
<rect width="400" height="800" fill="white"/>
</clipPath>
</defs>
</svg>
