<svg width="407" height="800" viewBox="0 0 407 800" fill="none" xmlns="http://www.w3.org/2000/svg">
<rect width="406.25" height="800" fill="url(#paint0_linear)"/>
<path fill-rule="evenodd" clip-rule="evenodd" d="M-1308.96 -6.0147C-1301.51 -5.26239 -1269.85 -4.13125 -1238.58 -3.50224C-1155.62 -1.83323 -1134.53 0.663142 -1096.75 13.2915C-1050.09 28.8773 -1020.09 54.9615 -1002.32 95.3698C-994.899 112.253 -990.863 124.926 -984.387 151.677C-981.485 163.662 -975.689 187.539 -971.508 204.738C-959.213 255.309 -949.139 279.722 -922.212 324.218C-886.855 382.642 -883.69 409.834 -900.247 512.988C-904.37 538.673 -905.727 574.873 -903.121 589.685C-896.954 624.761 -872.557 642.543 -833.749 640.244C-811.947 638.952 -799.639 635.471 -775.754 623.834C-718.489 595.94 -665.102 534.56 -644.269 472.663C-634.958 444.998 -633.866 435.92 -632.26 372.712C-631.423 339.787 -629.99 309.632 -629.074 305.701C-619.297 263.733 -599.72 236.103 -568.808 220.651C-549.055 210.777 -524.303 207.449 -504.398 211.993C-473.342 219.084 -447.462 245.836 -428.249 290.709C-412.117 328.383 -405.697 341.374 -395.464 357.042C-367.388 400.04 -325.298 426.628 -259.049 443.221C-201.404 457.66 -145.013 468.414 -113.849 470.908C-25.09 478.015 57.9523 440.693 140.942 356.392C167.702 329.212 177.395 317.967 227.772 255.667C247.642 231.096 277.117 195.312 293.274 176.147C331.564 130.726 352.637 102.805 381.573 59.1519L405.23 23.4629V12.2444C405.23 6.07403 404.916 1.02589 404.534 1.02589C404.151 1.02589 400.371 6.85493 396.136 13.9813C369.267 59.1769 332.188 110.377 287.752 163.639C272.585 181.821 243.164 218.007 222.375 244.051C174.753 303.714 158.945 322.018 132.862 347.695C76.3789 403.297 17.8223 436.599 -41.4615 446.838C-61.7972 450.35 -98.948 450.301 -123.23 446.731C-148.342 443.037 -214.932 426.471 -247.965 415.697C-291.79 401.403 -316.372 387.361 -338.819 363.797C-358.53 343.104 -369.201 324.035 -391.329 269.962C-396.96 256.203 -404.497 239.718 -408.079 233.33C-435.45 184.515 -475.261 161.605 -528.364 164.107C-595.867 167.287 -651.551 213.094 -672.248 282.471C-676.436 296.513 -676.511 298.126 -676.562 373.605L-676.612 450.444L-681.432 467.915C-698.565 530.015 -745.876 583.756 -798.246 600.6C-811.602 604.896 -831.167 605.012 -842.033 600.859C-853.203 596.592 -863.545 584.903 -867.97 571.551C-873.354 555.301 -872.441 521.563 -865.442 478.142C-857.17 426.84 -855.462 406.555 -857.719 386.512C-861.192 355.655 -868.385 338.692 -894.955 298.677C-922.385 257.366 -931.018 234.85 -948.04 160.213C-959.753 108.865 -966.301 86.7603 -975.9 66.1853C-990.341 35.2317 -1011.83 13.2844 -1043.03 -2.36574L-1054.08 -7.90887L-1188.28 -7.64618C-1262.84 -7.50144 -1316.47 -6.77594 -1308.96 -6.0147ZM-999.266 -1.11487C-963.491 26.8884 -947.32 62.8276 -925.532 162.745C-913.363 218.552 -900.494 250.045 -876.613 282.471C-853.923 313.28 -844.605 328.581 -839.148 344.001C-834.455 357.264 -833.636 362.415 -833.017 382.54C-832.28 406.512 -832.757 410.549 -844.209 477.249C-852.114 523.28 -849.998 551.01 -837.506 565.1C-830.223 573.313 -822.714 576.424 -810.164 576.424C-783.802 576.424 -751.077 554.202 -729.03 521.327C-704.243 484.366 -696.909 444.581 -703.458 382.606C-708.662 333.351 -706.937 299.67 -697.827 272.705C-692.351 256.497 -679.099 231.607 -668.641 217.885C-640.887 181.478 -605.297 157.452 -562.834 146.464C-548.059 142.64 -540.54 141.772 -521.333 141.67C-478.272 141.445 -446.008 153.428 -419.483 179.503C-399.945 198.713 -388.129 218.934 -369.241 265.495C-349.214 314.865 -338.483 333.238 -317.514 354.065C-302.164 369.311 -293.658 375.194 -270.082 386.865C-239.14 402.18 -165.976 424.551 -119.852 432.796C-95.7163 437.112 -51.8115 437.098 -31.5317 432.77C34.9985 418.567 98.0173 378.207 156.803 312.15C174.172 292.633 193.158 269.48 233.891 218.141C243.249 206.347 265.174 179.408 282.614 158.278C318.767 114.472 335.735 92.4946 355.039 64.4627C369.321 43.7251 399.817 -4.77276 399.817 -6.74735C399.817 -7.38529 396.771 -7.90887 393.047 -7.90887C386.836 -7.90887 385.912 -7.22625 381.845 0.366508C374.801 13.5167 336.401 70.6598 321.616 89.9929C314.196 99.696 295.409 122.848 279.865 141.443C264.322 160.04 237.695 192.945 220.692 214.567C175.495 272.044 158.187 292.258 131.92 318.244C61.792 387.628 -10.155 418.863 -84.0472 412.012C-130.098 407.741 -203.598 386.155 -240.747 365.989C-290.673 338.89 -313.322 311.219 -340.121 244.578C-345.177 232.004 -352.631 214.976 -356.684 206.742C-383.597 152.057 -419.873 123.468 -477.202 111.754C-503.628 106.356 -546.915 107.476 -573.66 114.254C-633.482 129.411 -676.353 159.53 -727.858 222.585C-752.033 252.178 -768.125 267.773 -777.732 270.913C-791.775 275.502 -811.539 269.163 -831.458 253.681C-859.547 231.848 -876.023 197.846 -891.974 128.793C-905.868 68.6531 -921.833 28.3412 -942.227 1.91937L-949.123 -7.01539L-978.591 -7.5068L-1008.06 -8L-999.266 -1.11487ZM-908.773 8.62044C-895.548 30.2515 -883.342 58.9553 -873.044 92.6286C-857.244 144.286 -851.958 159.223 -844.031 174.575C-830.281 201.206 -813.192 214.463 -792.791 214.32C-775.7 214.2 -760.063 205.164 -725.23 175.273C-680.694 137.056 -644.49 115.491 -602.531 102.182C-531.04 79.507 -453.337 87.1284 -399.986 122.047C-368.171 142.871 -348.723 170.579 -323.764 230.649C-297.344 294.236 -277.115 321.255 -237.139 346.344C-203.873 367.221 -146.492 387.311 -98.1992 394.99C-3.94238 409.975 80.4874 369.558 167.462 267.82C174.856 259.169 196.208 232.794 214.909 209.206C233.611 185.618 261.094 151.845 275.982 134.154C316.637 85.8454 352.421 36.781 373.399 0.579156L378.316 -7.90887H371.385C364.481 -7.90887 364.396 -7.82131 350.279 14.2422C325.939 52.2775 303.536 81.8122 266.094 125.219C256.769 136.03 232.567 165.381 212.312 190.443C165.609 248.231 150.322 265.677 126.105 288.836C60.7942 351.293 -4.99072 378.2 -75.3085 371.214C-143.89 364.401 -206.278 337.754 -243.169 299.515C-265.085 276.795 -277.547 255.549 -297.422 207.001C-315.551 162.722 -329.398 139.815 -350.706 118.856C-402.067 68.3386 -498.714 47.9709 -595.313 67.3093C-622.462 72.7434 -646.456 80.0789 -688.643 95.8433C-734.572 113.005 -744.853 115.843 -761.319 115.904C-787.944 116 -804.65 100.741 -832.863 50.5513C-837.953 41.495 -847.854 24.6369 -854.863 13.0878L-867.607 -7.90887H-893.242H-918.878L-908.773 8.62044ZM-833.251 -5.67518C-827.374 3.98866 -800.236 37.8425 -791.714 46.1393C-777.95 59.5414 -770.615 64.3197 -756.602 69.0176C-737.647 75.3702 -713.915 73.5029 -658.467 61.2926C-602.293 48.9234 -585.773 46.1947 -553.249 43.9181C-482.9 38.9915 -407.271 55.2778 -360.452 85.4326C-325.794 107.757 -305.969 135.121 -281.485 194.44C-265.441 233.31 -259.416 245.463 -247.135 263.733C-217.409 307.951 -168.589 337.8 -103.612 351.485C-78.9642 356.676 -30.7162 357.192 -10.0756 352.484C54.8993 337.666 110.094 298.787 174.402 222.542C183.904 211.277 202.572 188.79 215.887 172.573C229.199 156.357 249.055 132.635 260.008 119.858C287.888 87.3375 307.098 63.5638 320.649 44.8062C332.401 28.5378 354.707 -5.41071 354.707 -7.02969C354.707 -7.51216 351.583 -7.90887 347.765 -7.90887C340.963 -7.90887 340.573 -7.53897 328.525 10.4074C311.055 36.4272 292.276 60.6458 267.213 89.48C255.253 103.24 232.541 129.776 216.74 148.449C139.497 239.743 105.341 272.033 56.5286 299.906C-27.075 347.646 -134.231 336.417 -198.035 273.23C-220.235 251.247 -232.407 230.333 -253.431 178.065C-273.633 127.835 -285.04 107.807 -304.964 87.593C-337.853 54.2234 -393.617 31.0896 -469.005 19.5405C-499.566 14.8605 -572.61 14.948 -614.259 19.7174C-654.283 24.3009 -701.111 24.5064 -717.111 20.1677C-732.858 15.8987 -748.403 8.47033 -760.368 -0.50195L-770.243 -7.90887H-802.427C-827.696 -7.90887 -834.318 -7.42818 -833.251 -5.67518ZM-708.63 -6.11834C-706.448 -5.23737 -698.329 -3.15915 -690.586 -1.49907C-679.021 0.979433 -669.112 1.39579 -635.01 0.832904C-612.184 0.45407 -569.555 0.20747 -540.279 0.282522C-494.622 0.400461 -483.583 0.974072 -462.689 4.32461C-393.028 15.4948 -340.432 34.2971 -305.1 60.6636C-278.786 80.3004 -260.957 106.479 -243.49 151.13C-223.467 202.315 -214.784 221.239 -204.132 236.904C-177.252 276.434 -135.458 302.408 -84.8809 311.016C-5.02869 324.604 77.1006 287.253 157.868 200.618C178.272 178.731 274.847 67.4433 293.081 44.8062C300.206 35.9608 311.757 20.4822 318.75 10.4074L331.464 -7.90887H322.684H313.902L296.609 14.8748C272.651 46.4359 179.277 151.913 147.39 183.434C109.098 221.284 79.1703 243.678 42.5444 261.882C8.33472 278.884 -17.932 285.559 -50.3878 285.494C-75.8228 285.444 -97.0029 280.659 -118.95 270.003C-162.58 248.821 -184.535 218.33 -210.975 142.195C-224.443 103.411 -234.304 83.2525 -248.36 65.7564C-268.732 40.4032 -304.984 18.6452 -355.327 1.5584L-380.589 -7.01539L-546.594 -7.36921C-645.878 -7.58007 -711.004 -7.07793 -708.63 -6.11834ZM-324.652 -6.10404C-322.667 -5.24452 -312.054 -0.861128 -301.065 3.63663C-273.568 14.8926 -253.317 27.6479 -237.139 43.902C-215.773 65.3705 -209.069 79.096 -187.597 145.365C-172.84 190.906 -161.057 212.233 -139.461 232.492C-124.726 246.314 -113.031 253.576 -95.0234 260.084C-26.3008 284.921 55.4894 254.165 142.449 170.786C162.395 151.662 175.048 137.999 245.055 59.9953C271.004 31.0824 295.547 1.6281 298.972 -4.71022C300.549 -7.62831 299.692 -7.90887 289.173 -7.90887H277.642L266.132 5.04654C235.443 39.5901 156.379 123.695 139.268 139.997C65.4064 210.376 -5.09363 244.051 -58.856 234.632C-97.5135 227.862 -126.494 203.345 -142.645 163.748C-146.651 153.925 -150.628 139.08 -163.984 84.1191C-169.6 61.0067 -179.675 39.2291 -190.262 27.3173C-199.176 17.2889 -215.52 5.45575 -231.222 -2.33715L-242.449 -7.90887L-285.354 -7.78735C-311.516 -7.71409 -326.854 -7.05649 -324.652 -6.10404ZM-171.942 -0.925457C-147.685 16.2757 -140.89 32.8015 -132.535 94.9141C-125.859 144.536 -116.92 168.151 -97.3295 187.92C-67.1273 218.396 -23.5671 222.072 26.3048 198.354C46.6459 188.679 55.7527 183.15 78.6326 166.58C112.617 141.968 140.522 115.612 208.526 43.8967C223.895 27.689 241.278 9.40312 247.155 3.25958L257.841 -7.90887H227.989H198.137L173.12 16.6671C159.36 30.1836 131.457 58.1655 111.112 78.8512C51.6261 139.334 16.7271 161.852 -17.526 161.852C-34.1554 161.852 -42.5837 159.128 -52.3799 150.588C-72.3042 133.221 -77.6019 103.336 -67.6019 64.7236C-63.145 47.5117 -50.5756 20.8217 -39.6174 5.29671C-35.1172 -1.07735 -31.4362 -6.65621 -31.4362 -7.10116C-31.4362 -7.54611 -65.2653 -7.90887 -106.613 -7.90887H-181.79L-171.942 -0.925457ZM-1327 31.4541V49.7561L-1259.79 48.4891C-1169.24 46.7826 -1147.97 49.4862 -1110.52 67.463C-1093.72 75.5257 -1089.69 78.4474 -1074.31 93.7294C-1059.1 108.856 -1055.9 113.18 -1047.74 129.686C-1036.66 152.12 -1030.87 169.752 -1017.76 221.044C-1004.13 274.369 -998.419 290.192 -979.821 326.251C-951.175 381.788 -948.353 387.806 -943.334 404.06C-938.665 419.19 -938.396 421.975 -938.426 454.912C-938.455 484.546 -939.3 495.383 -944.076 527.378C-954.976 600.377 -955.426 616.838 -947.25 643.66C-941.844 661.399 -925.386 678.039 -906.92 684.437C-871.05 696.863 -811.021 687.401 -759.648 661.222C-695.577 628.573 -641.726 575.876 -567.276 472.972C-531.284 423.225 -519.353 413.056 -496.973 413.043C-482.549 413.036 -474.149 415.801 -434.346 433.654C-353.849 469.758 -313.427 481.035 -214.583 494.959C-138.737 505.643 -112.046 507.058 -76.0032 502.307C-7.17944 493.236 61.2363 457.567 125.291 397.365C154.327 370.073 178.808 342.534 233.774 275.323C249.044 256.649 276.264 224.484 294.259 203.845C341.365 149.818 365.156 119.41 396.004 73.7995C405.043 60.4367 405.38 59.4985 404.864 49.195L404.328 38.4822L384.102 68.7514C361.015 103.306 333.846 139.475 309.333 168.29C267.173 217.846 246.74 242.359 216.392 279.79C175.712 329.963 157.808 350.177 130.827 376.391C68.7445 436.712 3.52954 472.175 -63.0133 481.803C-85.4908 485.056 -124.365 484.269 -154.004 479.963C-187.158 475.147 -256.998 461.589 -283.449 454.835C-336.271 441.347 -376.125 419.798 -405.867 388.641C-422.334 371.39 -430.562 358.709 -449.339 321.641C-457.843 304.852 -468.942 285.641 -474.005 278.947C-510.142 231.158 -571.598 243.857 -591.47 303.216C-596.769 319.044 -599.102 337.293 -601.611 382.54C-603.576 417.968 -606.091 433.554 -613.725 457.558C-624.669 491.968 -650.876 535.414 -680.707 568.594C-737.075 631.294 -809.226 666.766 -864.363 658.887C-892.56 654.855 -910.882 640.944 -918.589 617.708C-924.298 600.502 -923.091 556.191 -915.594 507.627C-910.424 474.148 -909.529 463.671 -909.558 437.042C-909.588 410.586 -910.197 403.569 -913.515 391.475C-918.102 374.754 -927.553 354.546 -943.602 327.145C-967.124 286.986 -978.156 258.075 -991.337 202.058C-1005.11 143.526 -1011.8 122.464 -1024.03 99.1957C-1046.75 55.9353 -1090.36 29.1186 -1153.22 19.7371C-1168.25 17.4944 -1189.69 16.7064 -1246.7 16.3079C-1287.39 16.022 -1322.11 15.1946 -1323.84 14.4709C-1326.73 13.2647 -1327 14.7122 -1327 31.4541ZM-1267.45 67.2164C-1278.87 67.9008 -1296.93 68.5655 -1307.6 68.6942L-1327 68.9301V85.2163V101.501L-1319.33 100.464C-1298.65 97.666 -1244.1 95.3466 -1219.82 96.2329C-1170.4 98.0341 -1139.61 109.501 -1113.18 135.948C-1091.06 158.079 -1078.32 182.829 -1063.53 232.436C-1039.23 313.928 -1034.28 327.116 -1009.88 375.392C-991.783 411.196 -985.383 429.026 -982.207 452.472C-979.623 471.554 -981.027 514.028 -985.09 539.792C-993.986 596.183 -995.592 610.784 -995.697 636.287C-995.816 665.445 -993.658 676.483 -984.596 693.066C-968.087 723.272 -924.834 739.343 -874.996 733.787C-805.983 726.092 -747.984 703.671 -688.821 661.819C-664.198 644.402 -642.094 626.43 -603.752 592.653C-536.065 533.026 -509.115 516.39 -468.974 509.458C-439.883 504.435 -420.787 505.734 -338.185 518.359C-233.964 534.29 -150.318 540.349 -104.515 535.287C-64.1158 530.823 -28.45 520.121 11.0883 500.602C78.9502 467.1 132.189 421.748 204.221 336.079C214.138 324.285 232.363 302.581 244.723 287.846C257.081 273.111 283.436 242.956 303.29 220.835C344.786 174.6 363.397 152.42 387.839 120.074L405.23 97.0602V85.4236V73.7852L390.306 95.0356C360.544 137.41 344.36 157.4 290.105 218.807C275.053 235.842 246.74 269.197 227.186 292.93C180.484 349.61 171.312 360.012 142.056 389.466C64.3038 467.746 -13.0186 508.338 -98.5853 515.8C-124.448 518.055 -145.323 517.083 -201.05 511.024C-277.368 502.725 -315.242 495.827 -386.904 477.172C-456.15 459.145 -476.318 457.258 -502.572 466.343C-523.824 473.696 -534.523 482.726 -604.335 552.222C-648.823 596.51 -677.484 623.543 -690.238 633.249C-739.316 670.598 -784.103 691.904 -836.201 702.683C-857.468 707.083 -901.667 707.208 -915.68 702.907C-929.482 698.672 -946.039 687.58 -952.959 677.936C-971.568 651.996 -973.253 620.326 -960.44 537.247C-955.736 506.756 -954.736 494.836 -954.579 467.42C-954.314 421.285 -956.546 413.067 -983.578 360.6C-1010.6 308.149 -1018.06 289.186 -1031.16 239.584C-1053.5 155.033 -1064.53 131.379 -1094.4 103.99C-1109.21 90.4074 -1132.92 77.9756 -1154.27 72.5915C-1181.25 65.7886 -1216.04 64.1375 -1267.45 67.2164ZM391.338 127.597C373.043 152.166 346.594 183.15 304.156 229.731C284.021 251.83 247.595 293.645 223.207 322.652C175.194 379.761 123.319 433.363 93.0679 457.12C65.9819 478.392 36.646 496.918 7.35864 511.247C-78.376 553.192 -145.731 558.501 -318.337 536.917C-386.368 528.411 -415.795 526.402 -442.437 528.454C-467.357 530.371 -488.882 536.363 -512.31 547.903C-535.715 559.429 -555.385 573.531 -604.169 613.759C-672.289 669.932 -700.873 689.797 -743.275 710.43C-794.085 735.157 -852.282 750.048 -899.356 750.368C-946.46 750.688 -980.408 736.314 -998.686 708.307C-1014.96 683.365 -1016.21 651.135 -1003.99 571.064C-997.476 528.404 -996.196 515.638 -996.104 492.438C-995.938 450.426 -1000.28 434.44 -1026.64 379.86C-1046.27 339.24 -1053.67 320.856 -1064.44 286.045C-1086.88 213.523 -1098.43 185.654 -1114.79 164.532C-1131.99 142.333 -1156.54 126.432 -1185.46 118.77C-1204.37 113.759 -1252.36 112.294 -1295.63 115.407L-1327 117.662V131.836C-1327 144.498 -1326.66 145.91 -1323.84 145.079C-1322.1 144.566 -1307.29 143.215 -1290.91 142.075C-1208.33 136.325 -1162.41 152.52 -1130.93 198.506C-1116.72 219.256 -1106.54 243.172 -1089.63 295.517C-1077.59 332.797 -1066.69 360.455 -1050.12 395.805C-1035.41 427.189 -1032 435.857 -1027.54 453.125C-1018.02 490.007 -1019.07 525.473 -1031.85 597.868C-1046.33 679.912 -1041.51 717.111 -1012.98 743.263C-990.677 763.715 -959.567 774.492 -918.302 776.061C-889.377 777.162 -871.6 775.276 -836.201 767.355C-758.404 749.945 -700.986 721.271 -625.086 661.925C-609.703 649.897 -588.998 633.764 -579.073 626.073C-525.661 584.68 -487.119 566.089 -440.636 559.291C-413.848 555.372 -364.403 556.73 -310.127 562.87C-169.832 578.746 -94.6735 571.995 -13.1414 536.195C38.4485 513.542 88.9214 478.165 139.77 429.022C165.069 404.57 185.353 382.008 254.764 301.11C267.778 285.945 288.483 262.764 300.777 249.598C341.892 205.569 365.697 179.015 385.542 155.054L405.23 131.279V120.655C405.23 114.812 405.028 110.059 404.779 110.093C404.53 110.128 398.484 118.005 391.338 127.597ZM394.411 156.108C377.708 176.317 349.528 207.533 315.024 244.051C283.9 276.994 268.155 294.731 203.994 369.138C130.697 454.138 73.6038 501.288 -1.66345 538.975C-50.5178 563.437 -94.8159 576.648 -145.114 581.751C-168.742 584.148 -242.797 584.23 -266.911 581.883C-276.835 580.919 -301.601 578.415 -321.946 576.319C-369.237 571.448 -427.206 572.15 -451.863 577.891C-498.045 588.647 -529.622 606.118 -597.966 658.728C-665.113 710.417 -691.261 727.627 -732.448 747.246C-773.211 766.665 -832.797 784.197 -878.327 790.169C-940.359 798.307 -1006.92 781.256 -1034.9 750.061C-1043.88 740.057 -1051.85 724.159 -1054.7 710.562C-1058.33 693.289 -1055.72 651.884 -1048.45 611.27C-1035.85 540.884 -1033.72 509.178 -1039.38 476.223C-1043.06 454.838 -1048.73 438.734 -1066.71 398.623C-1081.28 366.12 -1090.7 341.901 -1101.47 309.275C-1122.8 244.623 -1137.29 216.016 -1159.87 194.017C-1177.42 176.914 -1197.53 166.721 -1225.22 160.899C-1241.05 157.568 -1284.4 156.603 -1311.21 158.983L-1327 160.386V172.895V185.405L-1303.99 184.178C-1248.82 181.235 -1208.79 192.283 -1181.18 218.078C-1167.34 231.001 -1153.24 251.224 -1143.89 271.554C-1137.24 285.998 -1132.96 297.329 -1116.81 343.227C-1110.58 360.918 -1101.66 384.64 -1096.97 395.942C-1092.29 407.245 -1084.92 425.032 -1080.6 435.468C-1057.03 492.45 -1056.15 531.32 -1076.24 628.6C-1090.01 695.275 -1090.4 724.713 -1077.85 750.883C-1071.23 764.689 -1054.69 780.369 -1037.07 789.538L-1024.24 796.219H-907.979H-791.723L-779.227 791.961C-733.359 776.333 -688.792 753.518 -647.641 724.6C-639.702 719.021 -616.56 701.774 -596.215 686.272C-551.773 652.409 -527.679 636.366 -502.386 623.8C-448.052 596.806 -397.225 591.272 -305.706 602.385C-235.942 610.857 -178.387 609.631 -124.363 598.52C-62.7804 585.856 8.30042 553.496 68.7084 510.622C121.579 473.097 161.527 434.388 230.99 353.375C267.328 310.991 285.308 291.247 332.163 242.264C355.194 218.185 381.1 190.668 389.727 181.117L405.414 163.749L404.871 153.93L404.328 144.112L394.411 156.108ZM384.211 198.062C373.144 210.089 346.809 237.618 325.685 259.24C289.034 296.754 273.972 313.337 210.354 386.212C120.558 489.075 36.2849 551.865 -64.8177 591.236C-144.046 622.088 -211.047 629.427 -302.999 617.326C-393.288 605.443 -442.749 610.455 -497.875 637.077C-521.677 648.573 -550.883 668.093 -597.118 703.409C-655.533 748.031 -694.187 772.437 -731.454 788.232L-748.192 795.326L-721.771 795.821L-695.351 796.316L-682.323 788.838C-660.173 776.123 -629.436 754.726 -588.998 723.866C-530.228 679.017 -504.925 663.163 -472.112 650.631C-422.978 631.866 -382.998 630.128 -304.861 643.362C-259.567 651.031 -236.639 652.618 -211.843 649.798C-120.289 639.386 -13.0709 592.957 81.3392 522.844C136.57 481.827 166.514 452.321 253.229 353.466C283.393 319.08 302.157 299.402 357.695 243.914L405.23 196.424V186.285C405.23 180.709 405.028 176.158 404.779 176.172C404.53 176.185 395.275 186.036 384.211 198.062ZM-1327 211.391V223.85L-1305.8 224.906C-1259.1 227.234 -1229.23 238.408 -1205.68 262.359C-1184.86 283.518 -1171.12 310.403 -1150.19 370.925C-1145.94 383.21 -1136.08 410.953 -1128.29 432.575C-1108.76 486.78 -1106.78 495.056 -1105.57 527.505C-1104.05 568.156 -1108.27 595.073 -1125.68 655.615C-1142.81 715.212 -1143.71 719.758 -1143.79 747.078C-1143.85 770.872 -1143.61 772.589 -1138.85 782.187C-1136.1 787.735 -1132.74 793.183 -1131.4 794.291C-1129.73 795.657 -1119.01 796.148 -1098.07 795.816L-1067.21 795.326L-1076.91 787.894C-1088.29 779.175 -1096.7 767.741 -1102.09 753.633C-1105.41 744.932 -1105.94 739.977 -1105.8 718.487C-1105.64 692.178 -1105.41 690.766 -1090.9 625.566C-1079.49 574.307 -1078.89 569.545 -1078.92 530.857C-1078.96 487.481 -1080.62 479.702 -1100.37 430.216C-1107.76 411.719 -1118.33 383.777 -1123.87 368.119C-1140.81 320.22 -1150.33 295.548 -1156.94 282.471C-1174.74 247.223 -1193.35 227.031 -1219.45 214.631C-1242.59 203.638 -1256.88 200.834 -1294.97 199.801L-1327 198.934V211.391ZM344.737 267.568C308.209 304.088 268.083 346.508 241.053 377.179C176.278 450.678 133.12 492.531 84.9481 528.559C-2.19385 593.735 -116.812 648.599 -200.5 665.197C-211.428 667.364 -224.275 668.309 -241.65 668.224C-264.358 668.113 -271.016 667.264 -307.51 659.832C-355.587 650.04 -381.395 647.404 -407.207 649.65C-463.113 654.516 -504.92 674.267 -577.269 729.988C-618.238 761.542 -631.542 771.345 -651.039 784.336L-668.873 796.219H-650.301H-631.73L-621.641 788.736C-616.093 784.62 -597.249 770.173 -579.765 756.633C-506.742 700.078 -468.447 680.632 -418.398 674.687C-387.731 671.045 -362.608 674.587 -311.753 689.724C-294.037 694.996 -273.467 700.312 -266.04 701.536C-228.687 707.692 -187.683 695.702 -100.906 653.242C-11.8619 609.674 60.3088 564.371 122.841 512.793C155.192 486.108 192.696 448.484 244.661 390.581C290.649 339.341 323.951 305.281 375.108 257.169L405.431 228.65L404.88 218.319L404.328 207.989L344.737 267.568ZM-1327 252.857V265.237L-1316.62 266.386C-1264.21 272.192 -1230.59 295.835 -1206.92 343.558C-1197.71 362.126 -1189.96 383.589 -1177.03 426.32C-1172.13 442.537 -1166.17 462.238 -1163.8 470.101C-1146.31 527.916 -1147.01 570.879 -1166.39 628.521C-1176.18 657.668 -1189.75 686.56 -1213.88 729.656C-1225.3 750.05 -1237.91 773.168 -1241.9 781.03L-1249.16 795.326L-1210.22 795.808C-1188.81 796.073 -1170.98 795.984 -1170.6 795.61C-1170.23 795.235 -1170.85 792.604 -1171.99 789.767C-1175.35 781.416 -1174.53 755.933 -1170.36 739.037C-1168.3 730.683 -1160.44 705.755 -1152.91 683.641C-1126.9 607.333 -1120.39 576.235 -1121.76 534.663C-1122.84 501.571 -1124.59 494.586 -1152.3 412.918C-1184.69 317.458 -1194.6 297.47 -1222.09 272.271C-1243.43 252.704 -1277.86 240.554 -1312.11 240.501L-1327 240.477V252.857ZM378.164 266.717C330.12 311.091 293.355 348.15 245.535 400.41C180.509 471.473 148.835 501.892 102.992 537.312C40.4514 585.631 -52.333 642.005 -149.625 690.798C-177.33 704.694 -205.172 717.358 -214.172 720.158C-245.572 729.931 -267.483 728.187 -307.51 712.728C-356.368 693.857 -376.127 689.002 -404.046 689.002C-457.153 689.002 -499.27 708.621 -579.442 770.711L-611.226 795.326L-596.784 795.841L-582.341 796.355L-559.054 778.995C-527.397 755.395 -509.418 744.005 -487.516 733.678C-460.382 720.882 -443.158 716.773 -416.677 716.775C-383.097 716.777 -366.3 722.633 -317.723 751.274C-285.166 770.469 -267.267 775.185 -244.701 770.509C-224.899 766.406 -209.856 758.327 -155.698 722.711C-128.54 704.851 -81.5536 674.567 -51.2847 655.417C111.253 552.583 157.792 515.53 248.826 416.492C300.908 359.831 347.693 314.586 396.758 273.427L405.411 266.168L404.869 254.36L404.328 242.55L378.164 266.717ZM-1327 296.752V311.702L-1316.7 314.666C-1285.49 323.651 -1260.81 344.991 -1244.48 377.113C-1226.73 412.016 -1206.25 500.525 -1206.14 542.79C-1206.06 573.919 -1213.41 602.344 -1229.58 633.408C-1245.94 664.853 -1272.05 694.89 -1309.41 725.247L-1327 739.543V767.88V796.219H-1316.39H-1305.78L-1283.61 772.074C-1241.57 726.289 -1217.4 693.33 -1199.82 657.811C-1171.03 599.639 -1163.76 549.915 -1176.18 496.012C-1187.74 445.83 -1205.91 386.523 -1217.13 362.33C-1239.22 314.711 -1271.88 289.497 -1320.23 282.746L-1327 281.802V296.752ZM392.242 292.653C345.161 331.113 309.77 364.824 252.971 425.313C205.457 475.914 174.344 505.254 135.471 536.12C98.6074 565.39 77.301 580.404 -7.97888 637.197C-87.6525 690.257 -120.756 713.448 -155.94 740.851C-194.925 771.213 -214.132 785.215 -224.284 790.669L-234.432 796.125L-207.332 796.171L-180.231 796.219L-162.221 778.221C-113.091 729.119 -75.0776 699.476 38.0334 622.049C160.45 538.252 185.928 517.405 272.606 430.116C320.75 381.632 350.172 355.214 383.081 330.92L405.14 314.636L405.185 299C405.21 290.401 404.866 283.364 404.422 283.364C403.976 283.364 398.496 287.544 392.242 292.653ZM-1327 353.747V374.095L-1313.73 387.252C-1303.52 397.372 -1298.74 403.917 -1293.05 415.599C-1273.37 455.937 -1269.14 519.744 -1283 567.145C-1289.87 590.6 -1298.84 606.19 -1318.27 628.385L-1327 638.351V670.976V703.598L-1319.33 697.651C-1304.57 686.202 -1277.78 659.391 -1266.96 645.222C-1253.72 627.892 -1240.22 600.539 -1234.76 579.998C-1223.26 536.724 -1236.21 440.659 -1260.04 392.368C-1269.04 374.131 -1280.21 359.982 -1293.4 350.096C-1303.47 342.552 -1320.93 333.399 -1325.25 333.399C-1326.28 333.399 -1327 341.771 -1327 353.747ZM393.705 346.899C364.205 364.515 334.698 389.107 277.117 444.063C254.788 465.376 231.646 487.209 225.692 492.581C191.089 523.806 144.909 558.312 59.6864 616.627C-45.6981 688.736 -80.1461 715.66 -128.874 764.001L-160.451 795.326L-147.021 795.858L-133.591 796.389L-123.679 785.137C-109.679 769.24 -78.3832 738.42 -60.3066 722.729C-14.7238 683.161 17.483 660.408 162.537 565.295C190.325 547.075 228.712 521.016 247.843 507.389C317.347 457.874 326.959 451.334 339.719 444.885C347.401 441.002 356.307 437.98 361.535 437.483C369.581 436.717 370.732 437.098 374.458 441.756C377.987 446.168 378.404 448.252 377.504 456.934C376.93 462.469 373.529 474.933 369.947 484.632C344.525 553.476 341.468 565.172 341.518 593.4C341.558 615.982 345.309 631.541 355.714 652.291C368.971 678.731 385.503 697.596 400.268 703.135L405.23 704.996V522.771C405.23 422.548 405.028 340.549 404.779 340.552C404.53 340.554 399.548 343.409 393.705 346.899ZM-1326.87 496.905C-1326.85 586.269 -1327.34 583.778 -1315.99 552.987C-1307.8 530.77 -1304.82 510.908 -1305.84 485.29C-1306.76 461.977 -1309.74 447.85 -1316.95 432.575C-1327.22 410.835 -1326.89 408.646 -1326.87 496.905ZM261.722 530.837C231.715 538.857 157.348 579.48 77.7305 631.341C7.07898 677.362 -34.8737 710.112 -78.4392 753.25C-95.8553 770.495 -111.949 787.217 -114.199 790.412L-118.293 796.219L-107.795 796.214L-97.297 796.209L-79.2529 776.393C-24.4135 716.175 58.4395 655.027 139.508 614.944C169.925 599.905 192.833 592.21 210.354 591.147C240.214 589.335 250.74 597.812 272.366 641.082C298.583 693.536 321.457 728.133 339.9 743.227C355.553 756.036 377.195 763.969 396.659 764.027L405.23 764.054V748.2V732.347L397.776 731.165C370.956 726.918 348.983 705.08 327.561 661.372C315.851 637.483 310.753 618.97 306.132 583.572C300.854 543.146 297.967 535.262 286.731 530.614C279.515 527.628 273.536 527.682 261.722 530.837ZM175.168 616.951C130.396 626.87 53.1039 670.768 -6.45776 720.108C-28.9785 738.762 -63.6593 772.042 -76.891 787.694L-84.0995 796.219L-74.4586 796.218L-64.8177 796.214L-41.3604 772.757C41.0234 690.368 135.89 639.747 184.696 652.129C208.001 658.042 219.122 668.256 258.48 719.902C272.117 737.797 287.372 756.758 292.375 762.037C303.586 773.857 320.281 785.839 333.79 791.756C343.355 795.944 345.871 796.219 374.608 796.219H405.23L405.212 787.731L405.196 779.243L389.719 778.924C361.083 778.334 336.26 767.282 316.157 746.174C304.373 733.799 285.017 706.261 261.655 668.629C244.501 640.996 230.926 625.687 218.474 619.938C211.092 616.531 206.662 615.807 194.115 615.962C185.679 616.066 177.153 616.511 175.168 616.951ZM128.254 672.748C102.53 679.673 75.3955 692.726 45.0797 712.76C18.8112 730.118 -0.499634 745.933 -27.8274 772.467L-52.1869 796.119L-41.5518 796.169L-30.9183 796.219L-16.2159 782.242C24.5798 743.456 74.3796 712.374 110.311 703.273C129.892 698.312 150.905 698.518 165.614 703.814C187.471 711.682 202.195 723.944 247.061 771.649L270.17 796.219H290.152H310.134L298.545 787.531C284.759 777.195 273.469 765.219 250.302 736.357C224.712 704.476 203.133 683.72 187.942 676.378C176.805 670.995 173.582 670.288 158.169 669.844C145.52 669.48 137.496 670.259 128.254 672.748ZM110.731 718.53C77.2739 725.124 41.0144 745.558 -1.87097 781.985L-17.5782 795.326L-5.51221 795.855L6.55383 796.386L21.9238 784.962C42.8333 769.421 63.5658 758.222 84.0458 751.404C98.5767 746.569 103.799 745.702 118.33 745.72C147.561 745.758 165.468 753.642 199.541 781.477L217.588 796.219H234.243H250.898L229.272 774.579C192.17 737.452 171.863 723.508 147.42 718.376C133.066 715.363 126.655 715.39 110.731 718.53ZM-452.946 736.331C-478.095 741.75 -506.325 755.843 -542.078 780.828L-562.825 795.326L-546.316 795.837L-529.81 796.348L-512.038 786.529C-479.165 768.366 -447.476 760.99 -422.635 765.718C-407.875 768.527 -388.299 778.094 -376.639 788.194L-367.375 796.219H-331.684H-295.995L-305.812 790.33C-311.211 787.09 -325.601 777.058 -337.786 768.036C-362.189 749.966 -379.947 740.617 -397.758 736.46C-411.912 733.156 -437.927 733.095 -452.946 736.331ZM86.1066 765.798C71.2545 769.773 52.4742 778.334 36.2291 788.53L25.4026 795.326L47.0555 795.857C63.1094 796.252 71.5088 795.617 79.5348 793.405C93.4739 789.563 117.768 789.508 132.46 793.283C148.133 797.311 193.88 797.567 190.562 793.607C186.338 788.566 159.582 772.735 147.588 768.18C130.733 761.778 104.865 760.775 86.1066 765.798ZM-470.809 786.357C-476.764 787.656 -485.695 790.364 -490.658 792.372L-499.68 796.025L-452.765 796.043L-405.851 796.062L-413.068 792.258C-428.7 784.022 -450.087 781.836 -470.809 786.357Z" fill="#002E72" fill-opacity="0.2"/>
<defs>
<linearGradient id="paint0_linear" x1="-30.5" y1="830" x2="299" y2="-6.27403e-06" gradientUnits="userSpaceOnUse">
<stop stop-color="#5F40A1"/>
<stop offset="1" stop-color="#4056A1"/>
</linearGradient>
</defs>
</svg>
