<svg width="300" height="148" viewBox="0 0 300 148" fill="none" xmlns="http://www.w3.org/2000/svg">
<path fill-rule="evenodd" clip-rule="evenodd" d="M43.5571 21.2898C38.3164 21.7266 34.6239 22.7252 30.902 24.7121C28.0263 26.2472 26.8516 27.7862 25.6653 31.5729C24.8824 34.0706 24.8297 34.9785 25.3024 37.8304C25.9654 41.8312 27.2484 43.2148 31.9765 45.0282C37.455 47.1296 40.1895 47.6777 46.7011 47.9798C51.7287 48.2126 53.9146 48.0892 57.0762 47.3933C62.7446 46.1457 68.3219 43.8966 71.643 41.5179L72.8224 40.6734C73.8715 39.9223 74.4939 38.7113 74.4939 37.4211V34.2654C74.4939 27.9472 73.717 26.4101 69.4186 24.2252C64.1789 21.5611 54.0715 20.4138 43.5571 21.2898ZM60.7238 24.1311C70.0609 26.031 74.9114 30.4828 71.3206 33.856C68.287 36.7058 57.7464 40.0284 51.7191 40.035C46.9481 40.0401 36.5167 38.2166 33.3799 36.8293C28.4514 34.6495 26.426 30.4959 29.077 28.0049C30.6307 26.5458 34.4326 24.9196 38.2147 24.0977C42.712 23.1204 55.8525 23.1397 60.7238 24.1311ZM44.9712 24.1807C44.7855 24.3659 44.6337 24.9201 44.6337 25.4116C44.6337 25.9035 44.163 26.4546 43.588 26.6373C42.0156 27.1364 39.0665 29.9033 39.0665 30.8801C39.0665 32.5608 40.1713 32.953 44.9095 32.953C48.895 32.953 49.6649 33.0937 50.4539 33.9652C51.3456 34.9506 51.3381 34.9775 50.1528 34.9744C49.4832 34.9729 48.0519 34.7264 46.9714 34.4263C45.3503 33.9764 44.8675 34.0204 44.2095 34.6789C43.6817 35.2062 43.582 35.6465 43.914 35.9786C44.5507 36.6152 49.1987 37.508 51.875 37.508C53.0355 37.508 54.3028 37.8572 54.8104 38.3168C55.858 39.2647 56.7802 38.872 56.7802 37.4781C56.7802 36.9376 56.9902 36.4958 57.2473 36.4958C57.5044 36.4958 58.4276 35.8961 59.2981 35.1632C62.5513 32.4262 60.3973 30.4417 54.1601 30.4301C50.5693 30.423 50.1947 30.3213 49.2256 29.0889C48.6486 28.3556 48.1764 27.5585 48.1764 27.3175C48.1764 27.0766 49.3014 26.8798 50.677 26.8798C53.2399 26.8798 54.4172 26.1257 53.1757 25.2785C52.792 25.0168 51.1842 24.9055 49.6026 25.031C47.4461 25.2021 46.6591 25.0821 46.4556 24.5512C46.1646 23.7931 45.5198 23.6321 44.9712 24.1807ZM46.0507 29.0055C46.3848 29.3395 46.6581 29.7848 46.6581 29.9949C46.6581 30.5799 43.3456 31.0698 42.0884 30.671C40.9942 30.3238 41.0003 30.2995 42.424 29.3607C44.1017 28.2549 45.1929 28.1476 46.0507 29.0055ZM58.0014 33.5042C58.2651 33.7461 57.8455 34.1627 57.0231 34.4754C55.7665 34.9532 55.4238 34.8636 54.3331 33.7724C53.9249 33.3642 54.2644 32.6705 54.8372 32.7423L55.3109 32.8017C56.5367 32.9551 57.7473 33.2714 58.0014 33.5042ZM71.6207 39.4125C70.7841 40.0284 70.6829 39.9434 70.5361 38.4995C70.4329 37.4873 70.7092 36.5343 71.2953 35.8829C72.2052 34.8707 72.2184 34.8818 72.3799 36.7959C72.4998 38.216 72.2974 38.914 71.6207 39.4125ZM28.9444 38.8219C28.9444 40.406 28.2546 41.5052 27.7788 40.6792C27.6559 40.4662 27.3896 39.1544 27.1882 37.7646L27.0268 36.6544C26.9573 36.1764 27.5245 35.8741 27.8826 36.1982C28.5506 36.8025 28.9444 37.7758 28.9444 38.8219ZM68.0769 41.7674C66.1937 42.8793 61.8311 44.5115 58.5338 45.3385C55.3135 46.1462 45.491 46.6316 44.8731 46.0136C44.7177 45.8582 44.4631 44.9462 44.3072 43.9867C44.159 43.0723 44.8659 42.2432 45.7922 42.2449L49.7696 42.2522C56.0863 42.2644 60.4257 41.3893 65.637 39.0531L67.0556 38.4172C67.8488 38.0615 68.7565 38.5919 68.8361 39.4575C68.954 40.7461 68.7491 41.3706 68.0769 41.7674ZM31.8879 40.7192C32.0311 42.4623 31.9552 42.605 31.1287 42.1424C29.9591 41.488 29.8194 38.421 30.9688 38.6381C31.4501 38.7292 31.7861 39.4904 31.8879 40.7192ZM36.0299 42.1222C36.0299 44.099 35.7727 44.3455 34.3 43.7802C33.7665 43.5757 33.4993 42.8388 33.4993 41.5731C33.4993 39.8189 33.5965 39.6913 34.7646 39.9145C35.8553 40.123 36.0299 40.4272 36.0299 42.1222ZM42.7014 43.639C42.9073 45.7985 42.5348 45.9706 39.1298 45.2894C37.6575 44.9948 37.5482 44.8253 37.5482 42.8317C37.5482 41.723 38.5612 40.8907 39.6489 41.1057L40.0311 41.1813C42.4448 41.6586 42.5192 41.7269 42.7014 43.639ZM72.1845 43.6283C65.2236 50.9598 43.7039 52.8805 30.7532 47.326C28.5471 46.38 26.5722 45.6057 26.3647 45.6057C25.7068 45.6057 25.3201 48.5118 25.6689 50.8368C25.9821 52.926 26.1851 53.1694 28.6134 54.3598C33.8015 56.903 41.511 58.3773 49.4412 58.3423C58.7039 58.3018 68.6271 55.1326 73.1021 50.7862C74.8168 49.1206 75 48.6884 75 46.3036C75 43.5818 74.6518 42.0629 74.0283 42.0629C73.8319 42.0629 73.0019 42.7674 72.1845 43.6283ZM72.6759 49.7062C71.3687 51.1506 70.9512 50.8818 70.9512 48.5968C70.9512 47.0623 71.2457 46.2874 72.0899 45.6001C72.5711 45.2085 73.2942 45.5186 73.3422 46.1372L73.3865 46.7095C73.4948 48.0993 73.2686 49.0508 72.6759 49.7062ZM28.3406 50.0736C28.4327 51.3186 28.2768 52.1851 27.961 52.1851C27.667 52.1851 27.4261 51.5205 27.4261 50.7083C27.4261 49.896 27.2757 48.8397 27.0925 48.3615C26.8582 47.7511 26.9716 47.5623 27.4721 47.7268C27.8962 47.867 28.2485 48.8169 28.3406 50.0736ZM69.4328 49.8454C69.4328 52.0348 69.402 52.0737 66.7758 53.2054C61.4181 55.5137 57.6993 56.3179 51.0865 56.5998L46.1759 56.8086C45.3349 56.8443 44.6337 56.1722 44.6337 55.3305C44.6337 54.4808 44.4955 53.426 44.3264 52.9857C44.0582 52.2868 44.6944 52.1851 49.3227 52.1851C54.9683 52.1851 62.0462 50.7579 66.4681 48.7279C67.6812 48.1712 68.8442 47.6964 69.0533 47.6726C69.2623 47.6494 69.4328 48.6272 69.4328 49.8454ZM31.3803 51.6445C31.4977 53.2545 31.3681 53.753 30.8742 53.59C30.5002 53.467 30.1403 52.4249 30.0512 51.2073C29.9338 49.5973 30.0634 49.0988 30.5574 49.2618C30.9314 49.3848 31.2912 50.4268 31.3803 51.6445ZM35.9479 50.6597C36.4626 50.6652 36.5395 51.1835 36.2698 52.8177C36.0739 54.0005 35.8533 55.0365 35.7789 55.12C35.7039 55.203 35.047 55.1215 34.3182 54.9383C33.1339 54.6412 32.9932 54.3633 32.9932 52.3242C32.9932 50.2052 33.0742 50.0645 34.132 50.3479C34.758 50.5154 35.5754 50.6561 35.9479 50.6597ZM41.9133 51.6789C43.0141 51.6789 43.1153 51.8865 43.1153 54.1442V54.2581C43.1153 55.4803 42.0054 56.4021 40.804 56.1777C37.6828 55.5947 37.5482 55.4672 37.5482 53.1042C37.5482 51.0691 37.5659 51.0499 39.1298 51.3626C39.9998 51.5367 41.2524 51.6789 41.9133 51.6789ZM72.1845 54.2565C70.2244 56.321 66.9408 57.9516 61.4905 59.5676C52.2045 62.3203 39.3438 61.6204 30.572 57.8848C28.2662 56.9025 26.217 56.2617 26.0181 56.4606C25.6203 56.8584 25.4477 61.5683 25.7827 62.8791C26.0034 63.7415 29.9566 65.8889 32.9932 66.7953C37.1949 68.05 44.1574 68.9721 49.3809 68.965C58.6609 68.9529 68.5973 65.7902 73.1021 61.4144C74.8168 59.7488 75 59.3166 75 56.9318C75 54.21 74.6518 52.6912 74.0283 52.6912C73.8319 52.6912 73.0019 53.3957 72.1845 54.2565ZM72.7438 60.0682C71.5681 61.8623 70.9512 61.5723 70.9512 59.225C70.9512 57.691 71.2457 56.9151 72.0899 56.2278C73.2281 55.3012 73.2286 55.3017 73.388 57.071C73.4796 58.0878 73.2053 59.3642 72.7438 60.0682ZM28.3406 60.7018C28.4327 61.9468 28.2768 62.8133 27.961 62.8133C27.667 62.8133 27.4261 62.1488 27.4261 61.3365C27.4261 60.5242 27.2757 59.4679 27.0925 58.9897C26.8582 58.3793 26.9716 58.1905 27.4721 58.355C27.8962 58.4952 28.2485 59.4451 28.3406 60.7018ZM69.4328 60.4543C69.4328 62.8963 69.2785 63.0203 63.8657 64.9222C59.209 66.5584 54.4237 67.3682 49.4087 67.3682H46.1105C45.2948 67.3682 44.6337 66.707 44.6337 65.8914C44.6337 65.0791 44.4955 64.0543 44.3264 63.6139C44.0582 62.915 44.6944 62.8133 49.3227 62.8133C54.9683 62.8133 62.0462 61.3861 66.4681 59.3561C67.6812 58.7994 68.8442 58.3246 69.0533 58.3009C69.2623 58.2776 69.4328 59.2467 69.4328 60.4543ZM31.3803 62.2728C31.4977 63.8827 31.3681 64.3812 30.8742 64.2182C30.5002 64.0952 30.1403 63.0532 30.0512 61.8355C29.9338 60.2255 30.0634 59.727 30.5574 59.89C30.9314 60.013 31.2912 61.0551 31.3803 62.2728ZM35.9479 61.2879C36.4626 61.2934 36.5395 61.8117 36.2698 63.4459C36.0739 64.6287 35.8533 65.6647 35.7789 65.7482C35.7039 65.8312 35.047 65.7497 34.3182 65.5665C33.1339 65.2694 32.9932 64.9916 32.9932 62.9525C32.9932 60.8334 33.0742 60.6927 34.132 60.9761C34.758 61.1436 35.5754 61.2843 35.9479 61.2879ZM41.9133 62.3072C43.0141 62.3072 43.1153 62.5147 43.1153 64.7724V64.8863C43.1153 66.1085 42.0054 67.0304 40.804 66.806C37.6828 66.2229 37.5482 66.0954 37.5482 63.7324C37.5482 61.6973 37.5659 61.6781 39.1298 61.9908C39.9998 62.1649 41.2524 62.3072 41.9133 62.3072ZM72.1845 64.8848C70.2441 66.9284 66.9878 68.5571 61.4905 70.2333C57.5409 71.4373 56.1683 71.5967 49.4417 71.6312C40.7022 71.6762 35.4828 70.7819 29.8903 68.2812C27.9656 67.4204 26.2341 66.8732 26.0423 67.0651C25.6126 67.4947 25.432 71.3487 25.761 73.0695C26.4513 76.6791 42.8501 80.5331 53.1145 79.4976C61.5917 78.6428 69.0674 75.84 73.1021 72.0037C74.8218 70.3689 75 69.9519 75 67.56C75 64.8382 74.6518 63.3194 74.0283 63.3194C73.8319 63.3194 73.0019 64.0239 72.1845 64.8848ZM72.7438 70.6964C71.5681 72.4905 70.9512 72.2005 70.9512 69.8532C70.9512 68.3192 71.2457 67.5434 72.0899 66.8561C73.2281 65.9294 73.2286 65.9299 73.388 67.6992C73.4796 68.716 73.2053 69.9924 72.7438 70.6964ZM28.3406 71.33C28.4327 72.575 28.2768 73.4415 27.961 73.4415C27.667 73.4415 27.4261 72.777 27.4261 71.9647C27.4261 71.1524 27.2757 70.0962 27.0925 69.6179C26.8582 69.0075 26.9716 68.8187 27.4721 68.9832C27.8962 69.1234 28.2485 70.0734 28.3406 71.33ZM69.4328 71.1018C69.4328 73.2634 69.3746 73.3418 67.0288 74.3414C61.2785 76.7909 57.6229 77.5997 51.0865 77.8669L46.176 78.0675C45.3346 78.1019 44.6337 77.4291 44.6337 76.5869C44.6337 75.7372 44.4955 74.6825 44.3264 74.2422C44.0582 73.5432 44.6944 73.4415 49.3227 73.4415C54.9683 73.4415 62.0462 72.0143 66.4681 69.9843C67.6812 69.4276 68.8442 68.9529 69.0533 68.9291C69.2623 68.9058 69.4328 69.8836 69.4328 71.1018ZM31.3803 72.901C31.4977 74.5109 31.3681 75.0094 30.8742 74.8464C30.5002 74.7235 30.1403 73.6814 30.0512 72.4637C29.9338 70.8538 30.0634 70.3553 30.5574 70.5182C30.9314 70.6412 31.2912 71.6833 31.3803 72.901ZM35.9479 71.9161C36.4626 71.9217 36.5395 72.4399 36.2698 74.0741C36.0739 75.2569 35.8533 76.2929 35.7789 76.3764C35.7039 76.4594 35.047 76.3779 34.3182 76.1947C33.1339 75.8976 32.9932 75.6198 32.9932 73.5807C32.9932 71.4616 33.0742 71.3209 34.132 71.6043C34.758 71.7718 35.5754 71.9126 35.9479 71.9161ZM41.9133 72.9354C43.0141 72.9354 43.1153 73.1429 43.1153 75.4006V75.5145C43.1153 76.7367 42.0054 77.6586 40.804 77.4342C37.6828 76.8511 37.5482 76.7236 37.5482 74.3606C37.5482 72.3255 37.5659 72.3063 39.1298 72.6191C39.9998 72.7932 41.2524 72.9354 41.9133 72.9354Z" fill="white" fill-opacity="0.3"/>
<rect x="1" y="1" width="98" height="98" rx="49" stroke="white" stroke-opacity="0.3" stroke-width="2"/>
<path d="M136.795 25.746C136.759 25.806 136.719 25.852 136.675 25.884C136.635 25.912 136.585 25.926 136.525 25.926C136.457 25.926 136.377 25.892 136.285 25.824C136.193 25.756 136.077 25.682 135.937 25.602C135.801 25.518 135.635 25.442 135.439 25.374C135.247 25.306 135.013 25.272 134.737 25.272C134.477 25.272 134.247 25.308 134.047 25.38C133.851 25.448 133.685 25.542 133.549 25.662C133.417 25.782 133.317 25.924 133.249 26.088C133.181 26.248 133.147 26.422 133.147 26.61C133.147 26.85 133.205 27.05 133.321 27.21C133.441 27.366 133.597 27.5 133.789 27.612C133.985 27.724 134.205 27.822 134.449 27.906C134.697 27.986 134.949 28.07 135.205 28.158C135.465 28.246 135.717 28.346 135.961 28.458C136.209 28.566 136.429 28.704 136.621 28.872C136.817 29.04 136.973 29.246 137.089 29.49C137.209 29.734 137.269 30.034 137.269 30.39C137.269 30.766 137.205 31.12 137.077 31.452C136.949 31.78 136.761 32.066 136.513 32.31C136.269 32.554 135.967 32.746 135.607 32.886C135.251 33.026 134.845 33.096 134.389 33.096C133.829 33.096 133.321 32.996 132.865 32.796C132.409 32.592 132.019 32.318 131.695 31.974L132.031 31.422C132.063 31.378 132.101 31.342 132.145 31.314C132.193 31.282 132.245 31.266 132.301 31.266C132.353 31.266 132.411 31.288 132.475 31.332C132.543 31.372 132.619 31.424 132.703 31.488C132.787 31.552 132.883 31.622 132.991 31.698C133.099 31.774 133.221 31.844 133.357 31.908C133.497 31.972 133.655 32.026 133.831 32.07C134.007 32.11 134.205 32.13 134.425 32.13C134.701 32.13 134.947 32.092 135.163 32.016C135.379 31.94 135.561 31.834 135.709 31.698C135.861 31.558 135.977 31.392 136.057 31.2C136.137 31.008 136.177 30.794 136.177 30.558C136.177 30.298 136.117 30.086 135.997 29.922C135.881 29.754 135.727 29.614 135.535 29.502C135.343 29.39 135.123 29.296 134.875 29.22C134.627 29.14 134.375 29.06 134.119 28.98C133.863 28.896 133.611 28.8 133.363 28.692C133.115 28.584 132.895 28.444 132.703 28.272C132.511 28.1 132.355 27.886 132.235 27.63C132.119 27.37 132.061 27.05 132.061 26.67C132.061 26.366 132.119 26.072 132.235 25.788C132.355 25.504 132.527 25.252 132.751 25.032C132.979 24.812 133.257 24.636 133.585 24.504C133.917 24.372 134.297 24.306 134.725 24.306C135.205 24.306 135.641 24.382 136.033 24.534C136.429 24.686 136.777 24.906 137.077 25.194L136.795 25.746ZM144.726 25.38H141.942V33H140.784V25.38H137.994V24.402H144.726V25.38ZM151.306 32.052L151.3 33H146.002V24.402H151.3V25.35H147.166V28.206H150.514V29.118H147.166V32.052H151.306ZM155.466 28.86C155.798 28.86 156.09 28.816 156.342 28.728C156.598 28.64 156.812 28.518 156.984 28.362C157.16 28.202 157.292 28.012 157.38 27.792C157.468 27.572 157.512 27.33 157.512 27.066C157.512 26.518 157.342 26.09 157.002 25.782C156.666 25.474 156.154 25.32 155.466 25.32H154.086V28.86H155.466ZM155.466 24.402C156.01 24.402 156.482 24.466 156.882 24.594C157.286 24.718 157.62 24.896 157.884 25.128C158.148 25.36 158.344 25.64 158.472 25.968C158.604 26.296 158.67 26.662 158.67 27.066C158.67 27.466 158.6 27.832 158.46 28.164C158.32 28.496 158.114 28.782 157.842 29.022C157.574 29.262 157.24 29.45 156.84 29.586C156.444 29.718 155.986 29.784 155.466 29.784H154.086V33H152.928V24.402H155.466ZM168.379 28.704C168.379 29.456 168.297 30.108 168.133 30.66C167.973 31.208 167.753 31.662 167.473 32.022C167.193 32.382 166.861 32.65 166.477 32.826C166.097 33.002 165.689 33.09 165.253 33.09C164.813 33.09 164.403 33.002 164.023 32.826C163.647 32.65 163.319 32.382 163.039 32.022C162.759 31.662 162.539 31.208 162.379 30.66C162.219 30.108 162.139 29.456 162.139 28.704C162.139 27.952 162.219 27.3 162.379 26.748C162.539 26.196 162.759 25.74 163.039 25.38C163.319 25.016 163.647 24.746 164.023 24.57C164.403 24.394 164.813 24.306 165.253 24.306C165.689 24.306 166.097 24.394 166.477 24.57C166.861 24.746 167.193 25.016 167.473 25.38C167.753 25.74 167.973 26.196 168.133 26.748C168.297 27.3 168.379 27.952 168.379 28.704ZM167.269 28.704C167.269 28.048 167.213 27.498 167.101 27.054C166.993 26.606 166.845 26.246 166.657 25.974C166.473 25.702 166.259 25.508 166.015 25.392C165.771 25.272 165.517 25.212 165.253 25.212C164.989 25.212 164.735 25.272 164.491 25.392C164.247 25.508 164.033 25.702 163.849 25.974C163.665 26.246 163.517 26.606 163.405 27.054C163.297 27.498 163.243 28.048 163.243 28.704C163.243 29.36 163.297 29.91 163.405 30.354C163.517 30.798 163.665 31.156 163.849 31.428C164.033 31.7 164.247 31.896 164.491 32.016C164.735 32.132 164.989 32.19 165.253 32.19C165.517 32.19 165.771 32.132 166.015 32.016C166.259 31.896 166.473 31.7 166.657 31.428C166.845 31.156 166.993 30.798 167.101 30.354C167.213 29.91 167.269 29.36 167.269 28.704ZM174.848 32.184V33H170.24V32.184H172.082V26.322C172.082 26.146 172.088 25.968 172.1 25.788L170.57 27.102C170.518 27.146 170.466 27.174 170.414 27.186C170.362 27.194 170.314 27.194 170.27 27.186C170.226 27.178 170.184 27.162 170.144 27.138C170.108 27.114 170.08 27.088 170.06 27.06L169.724 26.598L172.286 24.384H173.156V32.184H174.848Z" fill="white" fill-opacity="0.3"/>
<path d="M135.922 59H133.594V41.804H135.922V59ZM141.646 48.608C141.91 48.312 142.19 48.044 142.486 47.804C142.782 47.564 143.094 47.36 143.422 47.192C143.758 47.016 144.11 46.884 144.478 46.796C144.854 46.7 145.258 46.652 145.69 46.652C146.354 46.652 146.938 46.764 147.442 46.988C147.954 47.204 148.378 47.516 148.714 47.924C149.058 48.324 149.318 48.808 149.494 49.376C149.67 49.944 149.758 50.572 149.758 51.26V59H147.61V51.26C147.61 50.34 147.398 49.628 146.974 49.124C146.558 48.612 145.922 48.356 145.066 48.356C144.434 48.356 143.842 48.508 143.29 48.812C142.746 49.116 142.242 49.528 141.778 50.048V59H139.63V46.844H140.914C141.218 46.844 141.406 46.992 141.478 47.288L141.646 48.608ZM161.472 49.004C161.408 49.092 161.344 49.16 161.28 49.208C161.216 49.256 161.128 49.28 161.016 49.28C160.896 49.28 160.764 49.232 160.62 49.136C160.476 49.032 160.296 48.92 160.08 48.8C159.872 48.68 159.612 48.572 159.3 48.476C158.996 48.372 158.62 48.32 158.172 48.32C157.572 48.32 157.044 48.428 156.588 48.644C156.132 48.852 155.748 49.156 155.436 49.556C155.132 49.956 154.9 50.44 154.74 51.008C154.588 51.576 154.512 52.212 154.512 52.916C154.512 53.652 154.596 54.308 154.764 54.884C154.932 55.452 155.168 55.932 155.472 56.324C155.784 56.708 156.156 57.004 156.588 57.212C157.028 57.412 157.52 57.512 158.064 57.512C158.584 57.512 159.012 57.452 159.348 57.332C159.684 57.204 159.96 57.064 160.176 56.912C160.4 56.76 160.584 56.624 160.728 56.504C160.88 56.376 161.028 56.312 161.172 56.312C161.348 56.312 161.484 56.38 161.58 56.516L162.18 57.296C161.916 57.624 161.616 57.904 161.28 58.136C160.944 58.368 160.58 58.564 160.188 58.724C159.804 58.876 159.4 58.988 158.976 59.06C158.552 59.132 158.12 59.168 157.68 59.168C156.92 59.168 156.212 59.028 155.556 58.748C154.908 58.468 154.344 58.064 153.864 57.536C153.384 57 153.008 56.344 152.736 55.568C152.464 54.792 152.328 53.908 152.328 52.916C152.328 52.012 152.452 51.176 152.7 50.408C152.956 49.64 153.324 48.98 153.804 48.428C154.292 47.868 154.888 47.432 155.592 47.12C156.304 46.808 157.12 46.652 158.04 46.652C158.896 46.652 159.648 46.792 160.296 47.072C160.952 47.344 161.532 47.732 162.036 48.236L161.472 49.004ZM169.386 46.652C170.274 46.652 171.074 46.8 171.786 47.096C172.498 47.392 173.106 47.812 173.61 48.356C174.114 48.9 174.498 49.56 174.762 50.336C175.034 51.104 175.17 51.964 175.17 52.916C175.17 53.876 175.034 54.74 174.762 55.508C174.498 56.276 174.114 56.932 173.61 57.476C173.106 58.02 172.498 58.44 171.786 58.736C171.074 59.024 170.274 59.168 169.386 59.168C168.49 59.168 167.682 59.024 166.962 58.736C166.25 58.44 165.642 58.02 165.138 57.476C164.634 56.932 164.246 56.276 163.974 55.508C163.71 54.74 163.578 53.876 163.578 52.916C163.578 51.964 163.71 51.104 163.974 50.336C164.246 49.56 164.634 48.9 165.138 48.356C165.642 47.812 166.25 47.392 166.962 47.096C167.682 46.8 168.49 46.652 169.386 46.652ZM169.386 57.5C170.586 57.5 171.482 57.1 172.074 56.3C172.666 55.492 172.962 54.368 172.962 52.928C172.962 51.48 172.666 50.352 172.074 49.544C171.482 48.736 170.586 48.332 169.386 48.332C168.778 48.332 168.246 48.436 167.79 48.644C167.342 48.852 166.966 49.152 166.662 49.544C166.366 49.936 166.142 50.42 165.99 50.996C165.846 51.564 165.774 52.208 165.774 52.928C165.774 54.368 166.07 55.492 166.662 56.3C167.262 57.1 168.17 57.5 169.386 57.5ZM177.88 59V46.844H179.164C179.468 46.844 179.656 46.992 179.728 47.288L179.884 48.536C180.332 47.984 180.836 47.532 181.396 47.18C181.956 46.828 182.604 46.652 183.34 46.652C184.156 46.652 184.816 46.88 185.32 47.336C185.832 47.792 186.2 48.408 186.424 49.184C186.6 48.744 186.824 48.364 187.096 48.044C187.376 47.724 187.688 47.46 188.032 47.252C188.376 47.044 188.74 46.892 189.124 46.796C189.516 46.7 189.912 46.652 190.312 46.652C190.952 46.652 191.52 46.756 192.016 46.964C192.52 47.164 192.944 47.46 193.288 47.852C193.64 48.244 193.908 48.728 194.092 49.304C194.276 49.872 194.368 50.524 194.368 51.26V59H192.22V51.26C192.22 50.308 192.012 49.588 191.596 49.1C191.18 48.604 190.58 48.356 189.796 48.356C189.444 48.356 189.108 48.42 188.788 48.548C188.476 48.668 188.2 48.848 187.96 49.088C187.72 49.328 187.528 49.632 187.384 50C187.248 50.36 187.18 50.78 187.18 51.26V59H185.032V51.26C185.032 50.284 184.836 49.556 184.444 49.076C184.052 48.596 183.48 48.356 182.728 48.356C182.2 48.356 181.712 48.5 181.264 48.788C180.816 49.068 180.404 49.452 180.028 49.94V59H177.88ZM205.75 51.596C205.75 51.1 205.678 50.648 205.534 50.24C205.398 49.824 205.194 49.468 204.922 49.172C204.658 48.868 204.334 48.636 203.95 48.476C203.566 48.308 203.13 48.224 202.642 48.224C201.618 48.224 200.806 48.524 200.206 49.124C199.614 49.716 199.246 50.54 199.102 51.596H205.75ZM207.478 57.296C207.214 57.616 206.898 57.896 206.53 58.136C206.162 58.368 205.766 58.56 205.342 58.712C204.926 58.864 204.494 58.976 204.046 59.048C203.598 59.128 203.154 59.168 202.714 59.168C201.874 59.168 201.098 59.028 200.386 58.748C199.682 58.46 199.07 58.044 198.55 57.5C198.038 56.948 197.638 56.268 197.35 55.46C197.062 54.652 196.918 53.724 196.918 52.676C196.918 51.828 197.046 51.036 197.302 50.3C197.566 49.564 197.942 48.928 198.43 48.392C198.918 47.848 199.514 47.424 200.218 47.12C200.922 46.808 201.714 46.652 202.594 46.652C203.322 46.652 203.994 46.776 204.61 47.024C205.234 47.264 205.77 47.616 206.218 48.08C206.674 48.536 207.03 49.104 207.286 49.784C207.542 50.456 207.67 51.224 207.67 52.088C207.67 52.424 207.634 52.648 207.562 52.76C207.49 52.872 207.354 52.928 207.154 52.928H199.03C199.054 53.696 199.158 54.364 199.342 54.932C199.534 55.5 199.798 55.976 200.134 56.36C200.47 56.736 200.87 57.02 201.334 57.212C201.798 57.396 202.318 57.488 202.894 57.488C203.43 57.488 203.89 57.428 204.274 57.308C204.666 57.18 205.002 57.044 205.282 56.9C205.562 56.756 205.794 56.624 205.978 56.504C206.17 56.376 206.334 56.312 206.47 56.312C206.646 56.312 206.782 56.38 206.878 56.516L207.478 57.296Z" fill="white" fill-opacity="0.3"/>
<line x1="51" y1="108" x2="51" y2="148" stroke="white" stroke-opacity="0.3" stroke-width="2"/>
</svg>
