<svg width="300" height="148" viewBox="0 0 300 148" fill="none" xmlns="http://www.w3.org/2000/svg">
<rect x="1" y="1" width="98" height="98" rx="49" stroke="#00B32A" stroke-width="2"/>
<path d="M136.784 25.836C136.74 25.908 136.694 25.962 136.646 25.998C136.598 26.03 136.538 26.046 136.466 26.046C136.39 26.046 136.304 26.014 136.208 25.95C136.116 25.886 136 25.816 135.86 25.74C135.724 25.66 135.562 25.588 135.374 25.524C135.186 25.456 134.962 25.422 134.702 25.422C134.462 25.422 134.25 25.452 134.066 25.512C133.886 25.572 133.734 25.656 133.61 25.764C133.486 25.872 133.392 26 133.328 26.148C133.268 26.292 133.238 26.45 133.238 26.622C133.238 26.842 133.296 27.026 133.412 27.174C133.528 27.318 133.68 27.442 133.868 27.546C134.06 27.65 134.278 27.742 134.522 27.822C134.766 27.898 135.014 27.98 135.266 28.068C135.522 28.156 135.772 28.256 136.016 28.368C136.26 28.48 136.476 28.622 136.664 28.794C136.856 28.966 137.01 29.176 137.126 29.424C137.242 29.672 137.3 29.974 137.3 30.33C137.3 30.714 137.234 31.074 137.102 31.41C136.97 31.746 136.778 32.04 136.526 32.292C136.278 32.54 135.97 32.736 135.602 32.88C135.238 33.024 134.822 33.096 134.354 33.096C134.078 33.096 133.808 33.068 133.544 33.012C133.284 32.96 133.034 32.886 132.794 32.79C132.558 32.69 132.336 32.57 132.128 32.43C131.92 32.29 131.734 32.134 131.57 31.962L131.978 31.29C132.014 31.234 132.06 31.19 132.116 31.158C132.172 31.126 132.234 31.11 132.302 31.11C132.394 31.11 132.496 31.154 132.608 31.242C132.72 31.326 132.854 31.42 133.01 31.524C133.17 31.624 133.362 31.718 133.586 31.806C133.81 31.89 134.078 31.932 134.39 31.932C134.898 31.932 135.29 31.808 135.566 31.56C135.846 31.312 135.986 30.97 135.986 30.534C135.986 30.29 135.928 30.092 135.812 29.94C135.696 29.784 135.542 29.654 135.35 29.55C135.162 29.446 134.946 29.358 134.702 29.286C134.458 29.214 134.21 29.138 133.958 29.058C133.706 28.974 133.458 28.878 133.214 28.77C132.97 28.658 132.752 28.514 132.56 28.338C132.372 28.158 132.22 27.938 132.104 27.678C131.988 27.414 131.93 27.086 131.93 26.694C131.93 26.382 131.99 26.08 132.11 25.788C132.234 25.496 132.412 25.238 132.644 25.014C132.88 24.786 133.17 24.604 133.514 24.468C133.858 24.332 134.25 24.264 134.69 24.264C135.186 24.264 135.64 24.342 136.052 24.498C136.468 24.654 136.826 24.876 137.126 25.164L136.784 25.836ZM144.763 25.53H142.069V33H140.671V25.53H137.971V24.36H144.763V25.53ZM151.359 31.866L151.353 33H145.965V24.36H151.353V25.494H147.375V28.098H150.555V29.196H147.375V31.866H151.359ZM155.568 28.764C155.88 28.764 156.154 28.724 156.39 28.644C156.63 28.564 156.828 28.452 156.984 28.308C157.144 28.16 157.264 27.982 157.344 27.774C157.424 27.566 157.464 27.334 157.464 27.078C157.464 26.826 157.424 26.6 157.344 26.4C157.268 26.2 157.152 26.03 156.996 25.89C156.84 25.75 156.642 25.644 156.402 25.572C156.166 25.496 155.888 25.458 155.568 25.458H154.284V28.764H155.568ZM155.568 24.36C156.132 24.36 156.62 24.426 157.032 24.558C157.448 24.69 157.79 24.876 158.058 25.116C158.33 25.352 158.532 25.638 158.664 25.974C158.796 26.306 158.862 26.674 158.862 27.078C158.862 27.49 158.792 27.868 158.652 28.212C158.512 28.552 158.304 28.846 158.028 29.094C157.752 29.338 157.408 29.53 156.996 29.67C156.588 29.806 156.112 29.874 155.568 29.874H154.284V33H152.88V24.36H155.568ZM168.468 28.68C168.468 29.436 168.386 30.09 168.222 30.642C168.062 31.194 167.84 31.652 167.556 32.016C167.272 32.38 166.938 32.65 166.554 32.826C166.17 33.002 165.756 33.09 165.312 33.09C164.868 33.09 164.454 33.002 164.07 32.826C163.686 32.65 163.352 32.38 163.068 32.016C162.788 31.652 162.568 31.194 162.408 30.642C162.248 30.09 162.168 29.436 162.168 28.68C162.168 27.924 162.248 27.27 162.408 26.718C162.568 26.162 162.788 25.704 163.068 25.344C163.352 24.98 163.686 24.71 164.07 24.534C164.454 24.354 164.868 24.264 165.312 24.264C165.756 24.264 166.17 24.354 166.554 24.534C166.938 24.71 167.272 24.98 167.556 25.344C167.84 25.704 168.062 26.162 168.222 26.718C168.386 27.27 168.468 27.924 168.468 28.68ZM167.136 28.68C167.136 28.04 167.084 27.508 166.98 27.084C166.88 26.656 166.746 26.314 166.578 26.058C166.41 25.802 166.216 25.62 165.996 25.512C165.776 25.404 165.548 25.35 165.312 25.35C165.072 25.35 164.842 25.404 164.622 25.512C164.406 25.62 164.214 25.802 164.046 26.058C163.878 26.314 163.744 26.656 163.644 27.084C163.544 27.508 163.494 28.04 163.494 28.68C163.494 29.32 163.544 29.854 163.644 30.282C163.744 30.706 163.878 31.046 164.046 31.302C164.214 31.558 164.406 31.74 164.622 31.848C164.842 31.956 165.072 32.01 165.312 32.01C165.548 32.01 165.776 31.956 165.996 31.848C166.216 31.74 166.41 31.558 166.578 31.302C166.746 31.046 166.88 30.706 166.98 30.282C167.084 29.854 167.136 29.32 167.136 28.68ZM174.703 31.782C174.843 31.782 174.953 31.824 175.033 31.908C175.113 31.988 175.153 32.092 175.153 32.22V33H169.309V32.562C169.309 32.474 169.327 32.382 169.363 32.286C169.399 32.19 169.457 32.102 169.537 32.022L172.225 29.328C172.453 29.1 172.655 28.882 172.831 28.674C173.011 28.466 173.163 28.258 173.287 28.05C173.415 27.842 173.511 27.632 173.575 27.42C173.643 27.204 173.677 26.978 173.677 26.742C173.677 26.514 173.641 26.314 173.569 26.142C173.501 25.966 173.405 25.822 173.281 25.71C173.161 25.594 173.015 25.508 172.843 25.452C172.675 25.392 172.489 25.362 172.285 25.362C172.089 25.362 171.907 25.39 171.739 25.446C171.575 25.502 171.427 25.58 171.295 25.68C171.167 25.78 171.059 25.9 170.971 26.04C170.887 26.176 170.825 26.326 170.785 26.49C170.725 26.654 170.647 26.764 170.551 26.82C170.459 26.876 170.323 26.888 170.143 26.856L169.465 26.736C169.525 26.328 169.637 25.97 169.801 25.662C169.969 25.354 170.179 25.098 170.431 24.894C170.683 24.686 170.971 24.53 171.295 24.426C171.623 24.318 171.977 24.264 172.357 24.264C172.741 24.264 173.093 24.322 173.413 24.438C173.737 24.55 174.015 24.712 174.247 24.924C174.483 25.132 174.667 25.386 174.799 25.686C174.931 25.986 174.997 26.324 174.997 26.7C174.997 27.02 174.949 27.316 174.853 27.588C174.761 27.86 174.635 28.12 174.475 28.368C174.315 28.616 174.127 28.858 173.911 29.094C173.699 29.326 173.475 29.562 173.239 29.802L171.151 31.938C171.323 31.89 171.495 31.852 171.667 31.824C171.843 31.796 172.009 31.782 172.165 31.782H174.703Z" fill="#00B32A"/>
<path d="M144.289 57.732L144.277 60H133.501V42.72H144.277V44.988H136.321V50.196H142.681V52.392H136.321V57.732H144.289ZM154.193 50.772C153.833 50.308 153.437 49.984 153.005 49.8C152.573 49.616 152.105 49.524 151.601 49.524C150.593 49.524 149.805 49.896 149.237 50.64C148.669 51.376 148.385 52.468 148.385 53.916C148.385 54.668 148.449 55.312 148.577 55.848C148.705 56.376 148.889 56.808 149.129 57.144C149.369 57.48 149.661 57.724 150.005 57.876C150.349 58.028 150.737 58.104 151.169 58.104C151.825 58.104 152.389 57.964 152.861 57.684C153.341 57.396 153.785 56.992 154.193 56.472V50.772ZM156.773 42.24V60H155.213C154.869 60 154.649 59.836 154.553 59.508L154.325 58.176C153.813 58.776 153.229 59.26 152.573 59.628C151.925 59.996 151.169 60.18 150.305 60.18C149.617 60.18 148.993 60.044 148.433 59.772C147.873 59.492 147.393 59.088 146.993 58.56C146.593 58.032 146.281 57.38 146.057 56.604C145.841 55.82 145.733 54.924 145.733 53.916C145.733 53.004 145.853 52.16 146.093 51.384C146.341 50.608 146.693 49.936 147.149 49.368C147.605 48.792 148.157 48.344 148.805 48.024C149.461 47.696 150.193 47.532 151.001 47.532C151.721 47.532 152.333 47.648 152.837 47.88C153.341 48.104 153.793 48.42 154.193 48.828V42.24H156.773ZM170.247 47.76V60H168.687C168.343 60 168.123 59.836 168.027 59.508L167.835 58.368C167.579 58.64 167.307 58.888 167.019 59.112C166.739 59.336 166.439 59.528 166.119 59.688C165.799 59.848 165.455 59.972 165.087 60.06C164.727 60.148 164.339 60.192 163.923 60.192C163.251 60.192 162.659 60.08 162.147 59.856C161.635 59.632 161.203 59.316 160.851 58.908C160.507 58.5 160.247 58.012 160.071 57.444C159.895 56.868 159.807 56.236 159.807 55.548V47.76H162.387V55.548C162.387 56.372 162.575 57.012 162.951 57.468C163.335 57.924 163.915 58.152 164.691 58.152C165.259 58.152 165.787 58.024 166.275 57.768C166.771 57.504 167.235 57.144 167.667 56.688V47.76H170.247ZM182.033 50.16C181.953 50.264 181.877 50.344 181.805 50.4C181.733 50.456 181.629 50.484 181.493 50.484C181.357 50.484 181.213 50.436 181.061 50.34C180.917 50.244 180.741 50.14 180.533 50.028C180.333 49.908 180.089 49.8 179.801 49.704C179.513 49.608 179.153 49.56 178.721 49.56C178.161 49.56 177.669 49.66 177.245 49.86C176.829 50.06 176.477 50.348 176.189 50.724C175.909 51.092 175.697 51.544 175.553 52.08C175.417 52.608 175.349 53.204 175.349 53.868C175.349 54.556 175.425 55.168 175.577 55.704C175.729 56.24 175.945 56.692 176.225 57.06C176.513 57.428 176.857 57.708 177.257 57.9C177.665 58.092 178.121 58.188 178.625 58.188C179.121 58.188 179.525 58.128 179.837 58.008C180.149 57.888 180.409 57.756 180.617 57.612C180.825 57.468 181.001 57.336 181.145 57.216C181.297 57.096 181.457 57.036 181.625 57.036C181.833 57.036 181.993 57.116 182.105 57.276L182.837 58.224C182.541 58.584 182.213 58.888 181.853 59.136C181.493 59.384 181.113 59.588 180.713 59.748C180.313 59.9 179.897 60.008 179.465 60.072C179.033 60.144 178.597 60.18 178.157 60.18C177.397 60.18 176.685 60.04 176.021 59.76C175.365 59.472 174.789 59.06 174.293 58.524C173.805 57.98 173.417 57.32 173.129 56.544C172.849 55.76 172.709 54.868 172.709 53.868C172.709 52.964 172.837 52.128 173.093 51.36C173.349 50.584 173.721 49.916 174.209 49.356C174.705 48.796 175.317 48.36 176.045 48.048C176.773 47.728 177.613 47.568 178.565 47.568C179.453 47.568 180.233 47.712 180.905 48C181.585 48.288 182.189 48.696 182.717 49.224L182.033 50.16ZM191.452 54.648C190.532 54.68 189.756 54.756 189.124 54.876C188.492 54.988 187.98 55.136 187.588 55.32C187.196 55.496 186.912 55.708 186.736 55.956C186.568 56.204 186.484 56.476 186.484 56.772C186.484 57.06 186.528 57.308 186.616 57.516C186.712 57.716 186.84 57.884 187 58.02C187.168 58.148 187.36 58.244 187.576 58.308C187.8 58.364 188.044 58.392 188.308 58.392C188.98 58.392 189.556 58.268 190.036 58.02C190.524 57.764 190.996 57.396 191.452 56.916V54.648ZM184.612 49.464C185.996 48.176 187.644 47.532 189.556 47.532C190.26 47.532 190.884 47.648 191.428 47.88C191.98 48.104 192.44 48.424 192.808 48.84C193.184 49.256 193.468 49.752 193.66 50.328C193.86 50.896 193.96 51.528 193.96 52.224V60H192.808C192.56 60 192.372 59.964 192.244 59.892C192.116 59.812 192.008 59.656 191.92 59.424L191.668 58.428C191.356 58.708 191.048 58.96 190.744 59.184C190.44 59.4 190.124 59.584 189.796 59.736C189.476 59.888 189.128 60 188.752 60.072C188.384 60.152 187.976 60.192 187.528 60.192C187.032 60.192 186.568 60.124 186.136 59.988C185.712 59.852 185.344 59.648 185.032 59.376C184.72 59.096 184.472 58.752 184.288 58.344C184.112 57.936 184.024 57.456 184.024 56.904C184.024 56.432 184.148 55.972 184.396 55.524C184.652 55.076 185.068 54.676 185.644 54.324C186.228 53.964 186.992 53.668 187.936 53.436C188.888 53.204 190.06 53.072 191.452 53.04V52.224C191.452 51.344 191.264 50.688 190.888 50.256C190.512 49.824 189.96 49.608 189.232 49.608C188.736 49.608 188.32 49.672 187.984 49.8C187.648 49.92 187.356 50.052 187.108 50.196C186.86 50.34 186.64 50.476 186.448 50.604C186.256 50.724 186.052 50.784 185.836 50.784C185.66 50.784 185.508 50.74 185.38 50.652C185.26 50.556 185.16 50.44 185.08 50.304L184.612 49.464ZM208.698 60H206.118V49.788H200.154V56.736C200.154 57.176 200.262 57.512 200.478 57.744C200.694 57.976 200.982 58.092 201.342 58.092C201.542 58.092 201.714 58.068 201.858 58.02C202.002 57.964 202.126 57.908 202.23 57.852C202.334 57.788 202.422 57.732 202.494 57.684C202.574 57.628 202.65 57.6 202.722 57.6C202.866 57.6 202.982 57.68 203.07 57.84L203.838 59.1C203.438 59.452 202.966 59.724 202.422 59.916C201.878 60.1 201.318 60.192 200.742 60.192C199.726 60.192 198.942 59.908 198.39 59.34C197.846 58.764 197.574 57.956 197.574 56.916V49.788H196.23C196.086 49.788 195.962 49.744 195.858 49.656C195.754 49.56 195.702 49.42 195.702 49.236V48.192L197.682 47.904L198.246 44.364C198.286 44.228 198.354 44.12 198.45 44.04C198.546 43.952 198.674 43.908 198.834 43.908H200.154V47.928H208.698V60ZM209.226 44.004C209.226 44.236 209.178 44.456 209.082 44.664C208.994 44.864 208.87 45.044 208.71 45.204C208.55 45.356 208.362 45.48 208.146 45.576C207.938 45.664 207.718 45.708 207.486 45.708C207.254 45.708 207.034 45.664 206.826 45.576C206.626 45.48 206.446 45.356 206.286 45.204C206.134 45.044 206.01 44.864 205.914 44.664C205.826 44.456 205.782 44.236 205.782 44.004C205.782 43.764 205.826 43.54 205.914 43.332C206.01 43.116 206.134 42.932 206.286 42.78C206.446 42.62 206.626 42.496 206.826 42.408C207.034 42.312 207.254 42.264 207.486 42.264C207.718 42.264 207.938 42.312 208.146 42.408C208.362 42.496 208.55 42.62 208.71 42.78C208.87 42.932 208.994 43.116 209.082 43.332C209.178 43.54 209.226 43.764 209.226 44.004ZM217.251 47.568C218.155 47.568 218.971 47.716 219.699 48.012C220.435 48.308 221.059 48.728 221.571 49.272C222.091 49.816 222.491 50.476 222.771 51.252C223.051 52.028 223.191 52.9 223.191 53.868C223.191 54.836 223.051 55.708 222.771 56.484C222.491 57.26 222.091 57.924 221.571 58.476C221.059 59.02 220.435 59.44 219.699 59.736C218.971 60.032 218.155 60.18 217.251 60.18C216.339 60.18 215.515 60.032 214.779 59.736C214.051 59.44 213.427 59.02 212.907 58.476C212.387 57.924 211.987 57.26 211.707 56.484C211.427 55.708 211.287 54.836 211.287 53.868C211.287 52.9 211.427 52.028 211.707 51.252C211.987 50.476 212.387 49.816 212.907 49.272C213.427 48.728 214.051 48.308 214.779 48.012C215.515 47.716 216.339 47.568 217.251 47.568ZM217.251 58.164C218.355 58.164 219.175 57.796 219.711 57.06C220.255 56.316 220.527 55.256 220.527 53.88C220.527 52.504 220.255 51.444 219.711 50.7C219.175 49.948 218.355 49.572 217.251 49.572C216.131 49.572 215.299 49.948 214.755 50.7C214.211 51.444 213.939 52.504 213.939 53.88C213.939 55.256 214.211 56.316 214.755 57.06C215.299 57.796 216.131 58.164 217.251 58.164ZM228.082 49.38C228.346 49.108 228.618 48.864 228.898 48.648C229.186 48.424 229.49 48.232 229.81 48.072C230.13 47.912 230.47 47.788 230.83 47.7C231.19 47.612 231.582 47.568 232.006 47.568C232.678 47.568 233.266 47.68 233.77 47.904C234.282 48.128 234.71 48.444 235.054 48.852C235.406 49.26 235.67 49.752 235.846 50.328C236.022 50.896 236.11 51.524 236.11 52.212V60H233.542V52.212C233.542 51.388 233.35 50.748 232.966 50.292C232.59 49.836 232.014 49.608 231.238 49.608C230.662 49.608 230.126 49.74 229.63 50.004C229.142 50.268 228.682 50.628 228.25 51.084V60H225.67V47.76H227.23C227.582 47.76 227.806 47.924 227.902 48.252L228.082 49.38Z" fill="white"/>
<g filter="url(#filter0_d)">
<path fill-rule="evenodd" clip-rule="evenodd" d="M37.8444 25.3778C37.5456 25.5774 37.0374 26.2412 36.7158 26.8522C36.3093 27.6232 35.6821 27.9635 34.6661 27.9635C33.7213 27.9635 33.1799 28.2262 33.1399 28.7043C33.1058 29.1118 33.0224 29.6675 32.9547 29.9391C32.887 30.2108 32.8036 31.4638 32.7695 32.7238L32.7078 35.0145L28.5209 30.9951C26.2183 28.7843 23.9265 26.9756 23.4277 26.9756C21.944 26.9756 19.6922 29.6724 20.035 31.0385C20.1955 31.6787 23.1126 34.8219 26.5176 38.0244L32.7078 43.8461L32.7364 53.5623C32.7695 64.9741 33.3642 74.3747 34.0798 74.8178C34.3589 74.9906 42.5549 75.0514 52.2928 74.9526C62.0307 74.8543 69.4423 74.6217 68.7632 74.436C67.7196 74.151 67.6623 74.0473 68.3928 73.7662C68.9489 73.5529 69.2823 72.856 69.3273 71.8133C69.3954 70.2363 69.4068 70.2461 69.751 72.1684C69.9456 73.255 70.1363 64.1982 70.1748 52.0416C70.2361 32.7485 70.1511 29.9391 69.508 29.9391C69.103 29.9391 68.494 29.4946 68.1547 28.9513C67.8055 28.3917 67.0005 27.962 66.2981 27.9605C65.4402 27.958 64.8001 27.5022 64.2178 26.4788C63.5786 25.3561 63.022 25 61.9068 25C61.0987 25 60.1099 25.327 59.7103 25.727C59.0702 26.3671 58.9112 26.3671 58.3797 25.727C57.6023 24.7901 55.2143 24.7901 54.2773 25.727C53.6372 26.3671 53.4782 26.3671 52.9467 25.727C52.1342 24.7481 49.7654 24.8059 48.7411 25.8303C47.9637 26.6077 47.8817 26.6077 47.4465 25.8303C46.8588 24.7802 44.1931 24.7333 43.066 25.7532C42.3202 26.4284 42.1686 26.4284 41.6085 25.7532C40.9566 24.9679 38.7829 24.7511 37.8444 25.3778ZM40.4972 27.3772C40.6158 27.7333 40.1683 27.9635 39.3563 27.9635C38.2114 27.9635 38.1102 27.8548 38.6485 27.2063C39.336 26.3775 40.1905 26.4565 40.4972 27.3772ZM46.0433 27.4987C46.0433 27.7545 45.5988 27.9635 45.0555 27.9635C43.966 27.9635 43.7106 27.186 44.6851 26.8364C45.4324 26.5687 46.0433 26.8665 46.0433 27.4987ZM51.8572 27.3772C51.9757 27.7333 51.5282 27.9635 50.7162 27.9635C49.5713 27.9635 49.4701 27.8548 50.0085 27.2063C50.696 26.3775 51.5504 26.4565 51.8572 27.3772ZM57.4033 27.5224C57.4033 27.7649 56.8205 27.9635 56.1082 27.9635C55.0365 27.9635 54.915 27.8405 55.4034 27.2517C56.0035 26.5287 57.4033 26.7178 57.4033 27.5224ZM62.7232 27.3772C62.8417 27.7333 62.3942 27.9635 61.5823 27.9635C60.4374 27.9635 60.3361 27.8548 60.8745 27.2063C61.562 26.3775 62.4165 26.4565 62.7232 27.3772ZM25.0699 28.971C25.9629 29.9579 25.9501 30.0102 24.4254 31.5349C22.9007 33.0596 22.8483 33.0725 21.8615 32.1795C20.5852 31.0247 20.5961 30.5239 21.9277 29.1064C23.2484 27.7007 23.8954 27.673 25.0699 28.971ZM67.1091 30.2814C66.9382 31.3156 66.796 41.1079 66.793 52.0416L66.7876 71.9215H33.5721L33.8808 70.378C34.0507 69.529 34.1895 63.6174 34.1895 57.241V45.6474L39.0051 50.2057C42.418 53.4364 44.8589 55.2777 47.3843 56.5278C49.3441 57.4978 51.0951 58.1439 51.2758 57.9636C51.4561 57.7833 50.8525 56.1351 49.9349 54.3017C48.6378 51.7107 46.6973 49.3577 41.2277 43.7424L34.1895 36.517V32.7341C34.1895 29.4091 34.2981 28.9513 35.0859 28.9513C35.6238 28.9513 36.3118 29.6423 36.8067 30.68C37.2601 31.6307 37.8696 32.4087 38.162 32.4087C38.4539 32.4087 38.5329 32.1311 38.3378 31.7913C38.1314 31.4327 38.1709 31.3463 38.4322 31.5853C38.6791 31.812 38.8816 32.2536 38.8816 32.5667C38.8816 32.8798 39.2708 33.2108 39.746 33.3026C40.9931 33.5427 40.8084 32.4585 39.3755 31.1304C37.6399 29.5218 37.8336 28.9513 40.1164 28.9513C41.5863 28.9513 42.0921 29.1508 42.0921 29.7302C42.0921 30.758 44.7567 33.3965 45.7944 33.3965C46.9452 33.3965 46.5219 31.7261 45.3123 31.4929C44.4431 31.3255 44.4164 31.3991 45.0476 32.2284C45.5746 32.9208 45.582 33.0013 45.0768 32.5524C44.7073 32.2244 44.331 31.2796 44.2406 30.4533C44.085 29.0313 44.1694 28.9513 45.826 28.9513C47.3181 28.9513 47.651 29.1651 48.0817 30.4004C48.5653 31.7868 50.3794 33.3965 51.4591 33.3965C51.7401 33.3965 51.9703 32.952 51.9703 32.4087C51.9703 31.8654 51.6448 31.4208 51.2467 31.4208C50.6145 31.4208 49.5007 30.0236 49.5007 29.2308C49.5007 29.0772 50.2515 28.9513 51.1696 28.9513C52.5521 28.9513 52.9418 29.2012 53.4421 30.4088C54.2976 32.4739 57.4033 34.3769 57.4033 32.8359C57.4033 32.5272 56.8476 31.7602 56.1685 31.1304C54.4991 29.5835 54.6157 28.9513 56.571 28.9513C57.9639 28.9513 58.3343 29.216 59.0549 30.7274C59.619 31.9103 60.1425 32.4111 60.6221 32.2269C61.0207 32.0738 61.2904 32.2052 61.2252 32.5208C61.1605 32.8344 61.4968 33.1757 61.972 33.2799C63.1489 33.5372 63.0971 32.0891 61.9068 31.452C60.917 30.9225 60.2126 29.5998 60.593 28.9854C60.7189 28.7814 62.3063 28.566 64.121 28.5073L67.4198 28.4006L67.1091 30.2814ZM68.7005 62.1574L68.7632 72.8905L67.6519 73.1212C65.574 73.5529 34.7175 73.7475 34.9773 73.3272C35.1195 73.0975 42.5568 72.9093 51.5055 72.9093H67.7754L67.8653 51.3007C67.9458 32.0051 67.9917 30.8553 68.2965 40.5582C68.4842 46.5345 68.6664 56.2542 68.7005 62.1574ZM27.9316 31.328C28.6918 32.1676 28.6256 32.336 26.8623 34.0578L24.983 35.8932L24.0668 34.8807C23.1674 33.8869 23.1812 33.8375 24.8156 32.1508C26.7423 30.1633 26.8515 30.1347 27.9316 31.328ZM46.9146 50.6977C46.9862 50.8478 46.3194 51.646 45.4329 52.4708L43.8207 53.9718L34.9696 44.9103L26.1185 35.8487L28.9249 32.9199L37.8543 41.6724C42.7658 46.4866 46.843 50.548 46.9146 50.6977ZM69.6246 56.2398C69.5332 58.4807 69.4582 56.6473 69.4582 52.1651C69.4582 47.6828 69.5332 45.8494 69.6246 48.0903C69.716 50.3312 69.716 53.999 69.6246 56.2398ZM48.8927 53.8745C49.4815 55.0861 49.7625 56.2018 49.517 56.3529C49.272 56.5046 48.057 56.1361 46.8178 55.534L44.5641 54.439L45.8902 53.0551C46.6192 52.294 47.3522 51.6712 47.5191 51.6712C47.6856 51.6712 48.304 52.6624 48.8927 53.8745ZM69.6152 67.5909C69.5051 68.4784 69.4127 67.8714 69.4102 66.2415C69.4073 64.6116 69.4972 63.8851 69.6103 64.6274C69.7229 65.3698 69.7249 66.7033 69.6152 67.5909Z" fill="#00B32A"/>
</g>
<line x1="51" y1="108" x2="51" y2="148" stroke="white" stroke-opacity="0.3" stroke-width="2"/>
<defs>
<filter id="filter0_d" x="16" y="25" width="58.1914" height="58" filterUnits="userSpaceOnUse" color-interpolation-filters="sRGB">
<feFlood flood-opacity="0" result="BackgroundImageFix"/>
<feColorMatrix in="SourceAlpha" type="matrix" values="0 0 0 0 0 0 0 0 0 0 0 0 0 0 0 0 0 0 127 0"/>
<feOffset dy="4"/>
<feGaussianBlur stdDeviation="2"/>
<feColorMatrix type="matrix" values="0 0 0 0 0 0 0 0 0 0 0 0 0 0 0 0 0 0 0.25 0"/>
<feBlend mode="normal" in2="BackgroundImageFix" result="effect1_dropShadow"/>
<feBlend mode="normal" in="SourceGraphic" in2="effect1_dropShadow" result="shape"/>
</filter>
</defs>
</svg>
