<svg width="300" height="148" viewBox="0 0 300 148" fill="none" xmlns="http://www.w3.org/2000/svg">
<rect x="1" y="1" width="98" height="98" rx="49" stroke="#00B32A" stroke-width="2"/>
<path d="M136.784 25.836C136.74 25.908 136.694 25.962 136.646 25.998C136.598 26.03 136.538 26.046 136.466 26.046C136.39 26.046 136.304 26.014 136.208 25.95C136.116 25.886 136 25.816 135.86 25.74C135.724 25.66 135.562 25.588 135.374 25.524C135.186 25.456 134.962 25.422 134.702 25.422C134.462 25.422 134.25 25.452 134.066 25.512C133.886 25.572 133.734 25.656 133.61 25.764C133.486 25.872 133.392 26 133.328 26.148C133.268 26.292 133.238 26.45 133.238 26.622C133.238 26.842 133.296 27.026 133.412 27.174C133.528 27.318 133.68 27.442 133.868 27.546C134.06 27.65 134.278 27.742 134.522 27.822C134.766 27.898 135.014 27.98 135.266 28.068C135.522 28.156 135.772 28.256 136.016 28.368C136.26 28.48 136.476 28.622 136.664 28.794C136.856 28.966 137.01 29.176 137.126 29.424C137.242 29.672 137.3 29.974 137.3 30.33C137.3 30.714 137.234 31.074 137.102 31.41C136.97 31.746 136.778 32.04 136.526 32.292C136.278 32.54 135.97 32.736 135.602 32.88C135.238 33.024 134.822 33.096 134.354 33.096C134.078 33.096 133.808 33.068 133.544 33.012C133.284 32.96 133.034 32.886 132.794 32.79C132.558 32.69 132.336 32.57 132.128 32.43C131.92 32.29 131.734 32.134 131.57 31.962L131.978 31.29C132.014 31.234 132.06 31.19 132.116 31.158C132.172 31.126 132.234 31.11 132.302 31.11C132.394 31.11 132.496 31.154 132.608 31.242C132.72 31.326 132.854 31.42 133.01 31.524C133.17 31.624 133.362 31.718 133.586 31.806C133.81 31.89 134.078 31.932 134.39 31.932C134.898 31.932 135.29 31.808 135.566 31.56C135.846 31.312 135.986 30.97 135.986 30.534C135.986 30.29 135.928 30.092 135.812 29.94C135.696 29.784 135.542 29.654 135.35 29.55C135.162 29.446 134.946 29.358 134.702 29.286C134.458 29.214 134.21 29.138 133.958 29.058C133.706 28.974 133.458 28.878 133.214 28.77C132.97 28.658 132.752 28.514 132.56 28.338C132.372 28.158 132.22 27.938 132.104 27.678C131.988 27.414 131.93 27.086 131.93 26.694C131.93 26.382 131.99 26.08 132.11 25.788C132.234 25.496 132.412 25.238 132.644 25.014C132.88 24.786 133.17 24.604 133.514 24.468C133.858 24.332 134.25 24.264 134.69 24.264C135.186 24.264 135.64 24.342 136.052 24.498C136.468 24.654 136.826 24.876 137.126 25.164L136.784 25.836ZM144.763 25.53H142.069V33H140.671V25.53H137.971V24.36H144.763V25.53ZM151.359 31.866L151.353 33H145.965V24.36H151.353V25.494H147.375V28.098H150.555V29.196H147.375V31.866H151.359ZM155.568 28.764C155.88 28.764 156.154 28.724 156.39 28.644C156.63 28.564 156.828 28.452 156.984 28.308C157.144 28.16 157.264 27.982 157.344 27.774C157.424 27.566 157.464 27.334 157.464 27.078C157.464 26.826 157.424 26.6 157.344 26.4C157.268 26.2 157.152 26.03 156.996 25.89C156.84 25.75 156.642 25.644 156.402 25.572C156.166 25.496 155.888 25.458 155.568 25.458H154.284V28.764H155.568ZM155.568 24.36C156.132 24.36 156.62 24.426 157.032 24.558C157.448 24.69 157.79 24.876 158.058 25.116C158.33 25.352 158.532 25.638 158.664 25.974C158.796 26.306 158.862 26.674 158.862 27.078C158.862 27.49 158.792 27.868 158.652 28.212C158.512 28.552 158.304 28.846 158.028 29.094C157.752 29.338 157.408 29.53 156.996 29.67C156.588 29.806 156.112 29.874 155.568 29.874H154.284V33H152.88V24.36H155.568ZM168.468 28.68C168.468 29.436 168.386 30.09 168.222 30.642C168.062 31.194 167.84 31.652 167.556 32.016C167.272 32.38 166.938 32.65 166.554 32.826C166.17 33.002 165.756 33.09 165.312 33.09C164.868 33.09 164.454 33.002 164.07 32.826C163.686 32.65 163.352 32.38 163.068 32.016C162.788 31.652 162.568 31.194 162.408 30.642C162.248 30.09 162.168 29.436 162.168 28.68C162.168 27.924 162.248 27.27 162.408 26.718C162.568 26.162 162.788 25.704 163.068 25.344C163.352 24.98 163.686 24.71 164.07 24.534C164.454 24.354 164.868 24.264 165.312 24.264C165.756 24.264 166.17 24.354 166.554 24.534C166.938 24.71 167.272 24.98 167.556 25.344C167.84 25.704 168.062 26.162 168.222 26.718C168.386 27.27 168.468 27.924 168.468 28.68ZM167.136 28.68C167.136 28.04 167.084 27.508 166.98 27.084C166.88 26.656 166.746 26.314 166.578 26.058C166.41 25.802 166.216 25.62 165.996 25.512C165.776 25.404 165.548 25.35 165.312 25.35C165.072 25.35 164.842 25.404 164.622 25.512C164.406 25.62 164.214 25.802 164.046 26.058C163.878 26.314 163.744 26.656 163.644 27.084C163.544 27.508 163.494 28.04 163.494 28.68C163.494 29.32 163.544 29.854 163.644 30.282C163.744 30.706 163.878 31.046 164.046 31.302C164.214 31.558 164.406 31.74 164.622 31.848C164.842 31.956 165.072 32.01 165.312 32.01C165.548 32.01 165.776 31.956 165.996 31.848C166.216 31.74 166.41 31.558 166.578 31.302C166.746 31.046 166.88 30.706 166.98 30.282C167.084 29.854 167.136 29.32 167.136 28.68ZM169.507 26.736C169.567 26.328 169.679 25.97 169.843 25.662C170.011 25.354 170.221 25.098 170.473 24.894C170.725 24.686 171.013 24.53 171.337 24.426C171.665 24.318 172.019 24.264 172.399 24.264C172.783 24.264 173.131 24.32 173.443 24.432C173.759 24.54 174.029 24.692 174.253 24.888C174.481 25.084 174.655 25.318 174.775 25.59C174.899 25.862 174.961 26.16 174.961 26.484C174.961 26.76 174.927 27.004 174.859 27.216C174.795 27.424 174.701 27.608 174.577 27.768C174.457 27.928 174.309 28.062 174.133 28.17C173.957 28.278 173.759 28.368 173.539 28.44C174.075 28.596 174.477 28.846 174.745 29.19C175.013 29.53 175.147 29.958 175.147 30.474C175.147 30.89 175.069 31.26 174.913 31.584C174.757 31.908 174.545 32.182 174.277 32.406C174.013 32.63 173.703 32.802 173.347 32.922C172.995 33.038 172.621 33.096 172.225 33.096C171.781 33.096 171.397 33.044 171.073 32.94C170.749 32.832 170.469 32.68 170.233 32.484C170.001 32.284 169.807 32.044 169.651 31.764C169.495 31.484 169.363 31.17 169.255 30.822L169.813 30.588C169.961 30.524 170.101 30.506 170.233 30.534C170.369 30.562 170.467 30.636 170.527 30.756C170.591 30.884 170.663 31.022 170.743 31.17C170.823 31.314 170.925 31.448 171.049 31.572C171.177 31.692 171.333 31.794 171.517 31.878C171.705 31.958 171.935 31.998 172.207 31.998C172.483 31.998 172.723 31.954 172.927 31.866C173.135 31.774 173.307 31.658 173.443 31.518C173.583 31.374 173.687 31.214 173.755 31.038C173.823 30.862 173.857 30.688 173.857 30.516C173.857 30.3 173.831 30.102 173.779 29.922C173.727 29.738 173.625 29.582 173.473 29.454C173.325 29.326 173.113 29.226 172.837 29.154C172.565 29.078 172.207 29.04 171.763 29.04V28.11C172.127 28.106 172.433 28.07 172.681 28.002C172.933 27.93 173.133 27.834 173.281 27.714C173.433 27.59 173.541 27.442 173.605 27.27C173.673 27.098 173.707 26.91 173.707 26.706C173.707 26.486 173.673 26.292 173.605 26.124C173.537 25.956 173.441 25.816 173.317 25.704C173.197 25.588 173.053 25.502 172.885 25.446C172.717 25.39 172.531 25.362 172.327 25.362C172.131 25.362 171.949 25.39 171.781 25.446C171.617 25.502 171.469 25.58 171.337 25.68C171.209 25.78 171.101 25.9 171.013 26.04C170.925 26.176 170.861 26.326 170.821 26.49C170.765 26.654 170.689 26.764 170.593 26.82C170.501 26.876 170.365 26.888 170.185 26.856L169.507 26.736Z" fill="#00B32A"/>
<path d="M145.645 41.72V59H142.837V51.308H134.161V59H131.341V41.72H134.161V49.28H142.837V41.72H145.645ZM151.783 46.76V59H149.203V46.76H151.783ZM152.215 43.064C152.215 43.296 152.167 43.516 152.071 43.724C151.983 43.932 151.859 44.116 151.699 44.276C151.539 44.428 151.351 44.552 151.135 44.648C150.927 44.736 150.703 44.78 150.463 44.78C150.231 44.78 150.011 44.736 149.803 44.648C149.603 44.552 149.427 44.428 149.275 44.276C149.123 44.116 148.999 43.932 148.903 43.724C148.815 43.516 148.771 43.296 148.771 43.064C148.771 42.824 148.815 42.6 148.903 42.392C148.999 42.184 149.123 42.004 149.275 41.852C149.427 41.692 149.603 41.568 149.803 41.48C150.011 41.384 150.231 41.336 150.463 41.336C150.703 41.336 150.927 41.384 151.135 41.48C151.351 41.568 151.539 41.692 151.699 41.852C151.859 42.004 151.983 42.184 152.071 42.392C152.167 42.6 152.215 42.824 152.215 43.064ZM162.333 48.98C162.269 49.092 162.197 49.172 162.117 49.22C162.037 49.268 161.937 49.292 161.817 49.292C161.681 49.292 161.533 49.252 161.373 49.172C161.213 49.084 161.025 48.988 160.809 48.884C160.593 48.78 160.337 48.688 160.041 48.608C159.753 48.52 159.413 48.476 159.021 48.476C158.701 48.476 158.409 48.516 158.145 48.596C157.889 48.668 157.669 48.776 157.485 48.92C157.309 49.056 157.173 49.22 157.077 49.412C156.981 49.596 156.933 49.796 156.933 50.012C156.933 50.3 157.021 50.54 157.197 50.732C157.373 50.924 157.605 51.092 157.893 51.236C158.181 51.372 158.509 51.496 158.877 51.608C159.245 51.72 159.621 51.84 160.005 51.968C160.389 52.096 160.765 52.244 161.133 52.412C161.501 52.58 161.829 52.788 162.117 53.036C162.405 53.276 162.637 53.572 162.813 53.924C162.989 54.268 163.077 54.688 163.077 55.184C163.077 55.76 162.973 56.292 162.765 56.78C162.557 57.268 162.253 57.692 161.853 58.052C161.453 58.412 160.953 58.692 160.353 58.892C159.761 59.092 159.081 59.192 158.313 59.192C157.889 59.192 157.477 59.152 157.077 59.072C156.685 59 156.309 58.9 155.949 58.772C155.597 58.636 155.265 58.476 154.953 58.292C154.649 58.108 154.377 57.908 154.137 57.692L154.737 56.708C154.809 56.588 154.897 56.496 155.001 56.432C155.113 56.36 155.249 56.324 155.409 56.324C155.577 56.324 155.741 56.38 155.901 56.492C156.069 56.596 156.261 56.712 156.477 56.84C156.701 56.968 156.969 57.088 157.281 57.2C157.593 57.304 157.981 57.356 158.445 57.356C158.829 57.356 159.161 57.312 159.441 57.224C159.721 57.128 159.953 57 160.137 56.84C160.321 56.68 160.457 56.5 160.545 56.3C160.633 56.092 160.677 55.872 160.677 55.64C160.677 55.328 160.589 55.072 160.413 54.872C160.237 54.672 160.001 54.5 159.705 54.356C159.417 54.212 159.085 54.084 158.709 53.972C158.341 53.86 157.965 53.74 157.581 53.612C157.197 53.484 156.817 53.336 156.441 53.168C156.073 53 155.741 52.788 155.445 52.532C155.157 52.268 154.925 51.952 154.749 51.584C154.573 51.208 154.485 50.752 154.485 50.216C154.485 49.728 154.581 49.264 154.773 48.824C154.973 48.384 155.261 47.996 155.637 47.66C156.021 47.324 156.489 47.06 157.041 46.868C157.601 46.668 158.245 46.568 158.973 46.568C159.797 46.568 160.545 46.7 161.217 46.964C161.889 47.228 162.453 47.588 162.909 48.044L162.333 48.98ZM169.426 59.192C168.41 59.192 167.626 58.908 167.074 58.34C166.53 57.764 166.258 56.956 166.258 55.916V48.788H164.914C164.77 48.788 164.646 48.744 164.542 48.656C164.438 48.56 164.386 48.42 164.386 48.236V47.192L166.366 46.904L166.93 43.364C166.97 43.228 167.038 43.12 167.134 43.04C167.23 42.952 167.358 42.908 167.518 42.908H168.838V46.928H172.234V48.788H168.838V55.736C168.838 56.176 168.946 56.512 169.162 56.744C169.378 56.976 169.666 57.092 170.026 57.092C170.226 57.092 170.398 57.068 170.542 57.02C170.686 56.964 170.81 56.908 170.914 56.852C171.018 56.788 171.106 56.732 171.178 56.684C171.258 56.628 171.334 56.6 171.406 56.6C171.55 56.6 171.666 56.68 171.754 56.84L172.522 58.1C172.122 58.452 171.65 58.724 171.106 58.916C170.562 59.1 170.002 59.192 169.426 59.192ZM179.466 46.568C180.37 46.568 181.186 46.716 181.914 47.012C182.65 47.308 183.274 47.728 183.786 48.272C184.306 48.816 184.706 49.476 184.986 50.252C185.266 51.028 185.406 51.9 185.406 52.868C185.406 53.836 185.266 54.708 184.986 55.484C184.706 56.26 184.306 56.924 183.786 57.476C183.274 58.02 182.65 58.44 181.914 58.736C181.186 59.032 180.37 59.18 179.466 59.18C178.554 59.18 177.73 59.032 176.994 58.736C176.266 58.44 175.642 58.02 175.122 57.476C174.602 56.924 174.202 56.26 173.922 55.484C173.642 54.708 173.502 53.836 173.502 52.868C173.502 51.9 173.642 51.028 173.922 50.252C174.202 49.476 174.602 48.816 175.122 48.272C175.642 47.728 176.266 47.308 176.994 47.012C177.73 46.716 178.554 46.568 179.466 46.568ZM179.466 57.164C180.57 57.164 181.39 56.796 181.926 56.06C182.47 55.316 182.742 54.256 182.742 52.88C182.742 51.504 182.47 50.444 181.926 49.7C181.39 48.948 180.57 48.572 179.466 48.572C178.346 48.572 177.514 48.948 176.97 49.7C176.426 50.444 176.154 51.504 176.154 52.88C176.154 54.256 176.426 55.316 176.97 56.06C177.514 56.796 178.346 57.164 179.466 57.164ZM190.321 49.028C190.705 48.252 191.169 47.644 191.713 47.204C192.257 46.756 192.909 46.532 193.669 46.532C193.933 46.532 194.181 46.564 194.413 46.628C194.645 46.684 194.853 46.772 195.037 46.892L194.857 48.836C194.825 48.972 194.773 49.068 194.701 49.124C194.637 49.172 194.549 49.196 194.437 49.196C194.317 49.196 194.145 49.176 193.921 49.136C193.697 49.088 193.461 49.064 193.213 49.064C192.853 49.064 192.533 49.116 192.253 49.22C191.981 49.324 191.733 49.476 191.509 49.676C191.293 49.876 191.101 50.12 190.933 50.408C190.765 50.696 190.609 51.024 190.465 51.392V59H187.885V46.76H189.385C189.657 46.76 189.845 46.812 189.949 46.916C190.053 47.012 190.125 47.184 190.165 47.432L190.321 49.028ZM207.604 46.76L200.86 62.48C200.772 62.664 200.664 62.808 200.536 62.912C200.416 63.016 200.228 63.068 199.972 63.068H198.064L200.32 58.172L195.328 46.76H197.572C197.788 46.76 197.952 46.812 198.064 46.916C198.184 47.012 198.272 47.128 198.328 47.264L201.244 54.212C201.316 54.412 201.38 54.612 201.436 54.812C201.5 55.004 201.56 55.204 201.616 55.412C201.68 55.204 201.744 55 201.808 54.8C201.872 54.6 201.944 54.4 202.024 54.2L204.82 47.264C204.876 47.12 204.968 47 205.096 46.904C205.232 46.808 205.38 46.76 205.54 46.76H207.604Z" fill="white"/>
<line x1="51" y1="108" x2="51" y2="148" stroke="white" stroke-opacity="0.3" stroke-width="2"/>
<g filter="url(#filter0_d)">
<path fill-rule="evenodd" clip-rule="evenodd" d="M60.2822 25.3475C54.4382 27.3563 47.331 35.5099 41.6464 46.726C37.6205 54.6698 36.1511 58.7686 36.4949 61.0977C36.6582 62.2068 36.7301 62.0297 36.7995 60.3495C36.8865 58.2258 36.913 58.1906 37.5491 59.3393C38.0293 60.2058 38.0782 60.9041 37.7286 61.9065C37.1863 63.4615 36.7574 63.6107 35.8772 62.55C35.5423 62.1466 35.0411 61.8165 34.7638 61.8165C34.4861 61.8165 34.6572 62.2566 35.1438 62.7945C36.2127 63.976 35.7873 64.0566 34.1487 62.9828C32.5051 61.906 32.6352 62.4112 34.4753 64.2513C35.9222 65.6987 35.9882 65.9232 35.665 68.3232C35.4767 69.7202 35.199 71.798 35.0474 72.9413C34.7227 75.3926 35.1589 75.5432 38.0689 73.9833C39.4655 73.2351 41.4479 72.8312 45.2103 72.529C51.0768 72.0571 53.2294 71.4532 52.823 70.3936C52.6215 69.8689 53.1311 69.617 54.8514 69.3906C59.7277 68.7496 59.9516 68.6581 59.7125 67.4102C59.5154 66.3779 59.712 66.2229 61.5761 65.9437C62.7223 65.7716 64.3957 65.7765 65.2944 65.954C66.5042 66.1931 66.7379 66.1442 66.1952 65.7657C65.3189 65.1549 60.355 65.0816 59.4338 65.6659C59.0768 65.8919 58.8567 66.487 58.9448 66.9877C59.0783 67.7481 58.6621 67.9628 56.4152 68.2928C50.3105 69.1902 50.4293 69.154 51.0699 69.9256C51.3971 70.3197 51.5648 70.7417 51.443 70.8635C51.0968 71.2097 44.669 72.065 42.332 72.0757C41.176 72.0811 39.5599 72.4317 38.7413 72.8552C37.9232 73.2782 37.1917 73.5535 37.1159 73.4664C36.9853 73.3163 37.5203 69.5085 37.9584 67.4718C38.0699 66.9515 38.6929 66.2092 39.3423 65.8224C40.5174 65.1227 40.5169 65.1241 39.3002 66.1466C37.7721 67.4307 38.4499 67.5192 40.2108 66.2655C40.9291 65.754 42.2836 64.9818 43.2206 64.5496L44.9237 63.7637L43.2122 63.9784L41.5007 64.1931L43.1467 63.4694C45.0523 62.6312 44.9579 62.0381 43.0357 62.7686C41.2396 63.4518 41.4249 63.0474 43.579 61.5838C44.5878 60.8982 45.422 60.1755 45.4333 59.9769C45.4445 59.7784 45.8293 58.9119 46.289 58.0513C46.7482 57.1901 47.1242 56.1632 47.1242 55.7691C47.1242 55.375 47.3169 54.9789 47.5521 54.8889C47.7873 54.7994 48.6479 53.4058 49.4636 51.7921C51.488 47.7891 55.0739 42.8229 59.5262 37.8556C61.5751 35.5695 63.7443 32.771 64.3472 31.637C65.3795 29.6942 65.401 29.4571 64.7189 27.5299C63.8651 25.1187 62.6651 24.5284 60.2822 25.3475ZM63.4778 26.7177C65.2421 29.236 64.3697 31.0532 57.8494 38.4414C53.356 43.5329 50.8807 47.0136 48.7022 51.3031C47.423 53.8214 46.8988 54.3632 44.9976 55.129C42.6562 56.0718 40.5804 57.8346 42.4826 57.2649C43.0186 57.1046 44.0856 56.8229 44.8543 56.639C46.1795 56.3222 46.2215 56.3613 45.6675 57.3965C45.3462 57.9965 44.4147 58.8517 43.5971 59.2962C42.7799 59.7412 41.4787 60.62 40.7056 61.2488C39.9325 61.8777 39.3002 62.2503 39.3002 62.0767C39.3002 61.9031 40.0748 59.8904 41.021 57.6038C45.2689 47.3427 50.3663 38.9407 56.2568 32.4908C60.4783 27.8688 57.8704 29.6067 53.2088 34.5216C48.1061 39.9021 43.7017 47.0894 39.9995 56.0767C39.087 58.2923 38.333 59.775 38.3247 59.3716C38.3159 58.9681 38.1829 58.0879 38.0289 57.4156C37.8088 56.4571 37.8616 56.3515 38.2724 56.9266C38.6817 57.4997 38.8054 57.2317 38.8381 55.7041C38.8714 54.1603 38.9687 53.9539 39.3002 54.7261C39.62 55.4698 39.7286 55.1706 39.755 53.4772C39.7829 51.6762 40.378 50.218 42.8665 45.8571C48.6807 35.6678 54.0695 29.3319 59.0211 26.8649C62.0514 25.3544 62.5125 25.3392 63.4778 26.7177ZM37.1892 67.2875C37.0332 67.6772 36.9173 67.5613 36.8939 66.9916C36.8728 66.4762 36.9883 66.1877 37.1506 66.35C37.313 66.5124 37.3305 66.9344 37.1892 67.2875ZM36.6308 71.9051C36.4611 72.8112 36.1491 73.5525 35.9384 73.5525C35.7276 73.5525 35.7912 72.287 36.0797 70.7408C36.4098 68.973 36.667 68.3613 36.7726 69.0933C36.8645 69.7339 36.801 70.999 36.6308 71.9051Z" fill="#00B32A"/>
</g>
<defs>
<filter id="filter0_d" x="29" y="25" width="41.4717" height="58" filterUnits="userSpaceOnUse" color-interpolation-filters="sRGB">
<feFlood flood-opacity="0" result="BackgroundImageFix"/>
<feColorMatrix in="SourceAlpha" type="matrix" values="0 0 0 0 0 0 0 0 0 0 0 0 0 0 0 0 0 0 127 0"/>
<feOffset dy="4"/>
<feGaussianBlur stdDeviation="2"/>
<feColorMatrix type="matrix" values="0 0 0 0 0 0 0 0 0 0 0 0 0 0 0 0 0 0 0.25 0"/>
<feBlend mode="normal" in2="BackgroundImageFix" result="effect1_dropShadow"/>
<feBlend mode="normal" in="SourceGraphic" in2="effect1_dropShadow" result="shape"/>
</filter>
</defs>
</svg>
